  0
SECTION
  2
HEADER
  9
$ACADVER
  1
AC1014
  9
$HANDSEED
  5
FFFF
  9
$MEASUREMENT
 70
     1
  0
ENDSEC
  0
SECTION
  2
TABLES
  0
TABLE
  2
VPORT
  5
8
330
0
100
AcDbSymbolTable
 70
     4
  0
VPORT
  5
2E
330
8
100
AcDbSymbolTableRecord
100
AcDbViewportTableRecord
  2
*ACTIVE
 70
     0
 10
0.0
 20
0.0
 11
1.0
 21
1.0
 12
210.0
 22
148.5
 13
0.0
 23
0.0
 14
10.0
 24
10.0
 15
10.0
 25
10.0
 16
0.0
 26
0.0
 36
1.0
 17
0.0
 27
0.0
 37
0.0
 40
341.0
 41
1.24
 42
50.0
 43
0.0
 44
0.0
 50
0.0
 51
0.0
 71
     0
 72
   100
 73
     1
 74
     3
 75
     0
 76
     0
 77
     0
 78
     0
  0
ENDTAB
  0
TABLE
  2
LTYPE
  5
5
330
0
100
AcDbSymbolTable
 70
     1
  0
LTYPE
  5
14
330
5
100
AcDbSymbolTableRecord
100
AcDbLinetypeTableRecord
  2
BYBLOCK
 70
     0
  3

 72
    65
 73
     0
 40
0.0
  0
LTYPE
  5
15
330
5
100
AcDbSymbolTableRecord
100
AcDbLinetypeTableRecord
  2
BYLAYER
 70
     0
  3

 72
    65
 73
     0
 40
0.0
  0
LTYPE
  5
16
330
5
100
AcDbSymbolTableRecord
100
AcDbLinetypeTableRecord
  2
CONTINUOUS
 70
     0
  3
Solid line
 72
    65
 73
     0
 40
0.0
  0
ENDTAB
  0
TABLE
  2
LAYER
  5
2
100
AcDbSymbolTable
 70
1
  0
LAYER
  5
50
100
AcDbSymbolTableRecord
100
AcDbLayerTableRecord
  2
0
 70
0
  6
CONTINUOUS
  0
ENDTAB
  0
TABLE
  2
STYLE
  5
3
330
0
100
AcDbSymbolTable
 70
     1
  0
STYLE
  5
11
330
3
100
AcDbSymbolTableRecord
100
AcDbTextStyleTableRecord
  2
STANDARD
 70
     0
 40
0.0
 41
1.0
 50
0.0
 71
     0
 42
2.5
  3
txt
  4

  0
ENDTAB
  0
TABLE
  2
VIEW
  5
6
330
0
100
AcDbSymbolTable
 70
     0
  0
ENDTAB
  0
TABLE
  2
UCS
  5
7
330
0
100
AcDbSymbolTable
 70
     0
  0
ENDTAB
  0
TABLE
  2
APPID
  5
9
330
0
100
AcDbSymbolTable
 70
     2
  0
APPID
  5
12
330
9
100
AcDbSymbolTableRecord
100
AcDbRegAppTableRecord
  2
ACAD
 70
     0
  0
ENDTAB
  0
TABLE
  2
DIMSTYLE
  5
A
330
0
100
AcDbSymbolTable
 70
     1
  0
DIMSTYLE
105
27
330
A
100
AcDbSymbolTableRecord
100
AcDbDimStyleTableRecord
  2
ISO-25
 70
     0
  3

  4

  5

  6

  7

 40
1.0
 41
2.5
 42
0.625
 43
3.75
 44
1.25
 45
0.0
 46
0.0
 47
0.0
 48
0.0
140
2.5
141
2.5
142
0.0
143
0.03937007874016
144
1.0
145
0.0
146
1.0
147
0.625
 71
     0
 72
     0
 73
     0
 74
     0
 75
     0
 76
     0
 77
     1
 78
     8
170
     0
171
     3
172
     1
173
     0
174
     0
175
     0
176
     0
177
     0
178
     0
270
     2
271
     2
272
     2
273
     2
274
     3
340
11
275
     0
280
     0
281
     0
282
     0
283
     0
284
     8
285
     0
286
     0
287
     3
288
     0
  0
ENDTAB
  0
TABLE
  2
BLOCK_RECORD
  5
1
330
0
100
AcDbSymbolTable
 70
     1
  0
BLOCK_RECORD
  5
1F
330
1
100
AcDbSymbolTableRecord
100
AcDbBlockTableRecord
  2
*MODEL_SPACE
  0
BLOCK_RECORD
  5
1B
330
1
100
AcDbSymbolTableRecord
100
AcDbBlockTableRecord
  2
*PAPER_SPACE
  0
ENDTAB
  0
ENDSEC
  0
SECTION
  2
BLOCKS
  0
BLOCK
  5
20
330
1F
100
AcDbEntity
  8
0
100
AcDbBlockBegin
  2
*MODEL_SPACE
 70
     0
 10
0.0
 20
0.0
 30
0.0
  3
*MODEL_SPACE
  1

  0
ENDBLK
  5
21
330
1F
100
AcDbEntity
  8
0
100
AcDbBlockEnd
  0
BLOCK
  5
1C
330
1B
100
AcDbEntity
 67
     1
  8
0
100
AcDbBlockBegin
  2
*PAPER_SPACE
  1

  0
ENDBLK
  5
1D
330
1B
100
AcDbEntity
 67
     1
  8
0
100
AcDbBlockEnd
  0
ENDSEC
  0
SECTION
  2
ENTITIES
  0
SPLINE
  5
100
100
AcDbEntity
  8
0
 62
7
100
AcDbSpline
 70
8
 71
3
 72
8
 73
4
 74
0
 40
0
 40
0
 40
0
 40
0
 40
1
 40
1
 40
1
 40
1
 10
16.802824
 20
-44.278745
 30
0.0
 10
16.986260
 20
-44.278745
 30
0.0
 10
17.150344
 20
-44.234670
 30
0.0
 10
17.295065
 20
-44.146426
 30
0.0
  0
SPLINE
  5
101
100
AcDbEntity
  8
0
 62
7
100
AcDbSpline
 70
8
 71
3
 72
8
 73
4
 74
0
 40
0
 40
0
 40
0
 40
0
 40
1
 40
1
 40
1
 40
1
 10
17.295065
 20
-44.146426
 30
0.0
 10
17.439718
 20
-44.058263
 30
0.0
 10
17.562361
 20
-43.946205
 30
0.0
 10
17.662926
 20
-43.810319
 30
0.0
  0
SPLINE
  5
102
100
AcDbEntity
  8
0
 62
7
100
AcDbSpline
 70
8
 71
3
 72
8
 73
4
 74
0
 40
0
 40
0
 40
0
 40
0
 40
1
 40
1
 40
1
 40
1
 10
17.662926
 20
-43.810319
 30
0.0
 10
17.763491
 20
-43.674526
 30
0.0
 10
17.841070
 20
-43.523672
 30
0.0
 10
17.895822
 20
-43.357770
 30
0.0
  0
SPLINE
  5
103
100
AcDbEntity
  8
0
 62
7
100
AcDbSpline
 70
8
 71
3
 72
8
 73
4
 74
0
 40
0
 40
0
 40
0
 40
0
 40
1
 40
1
 40
1
 40
1
 10
17.895822
 20
-43.357770
 30
0.0
 10
17.950482
 20
-43.191960
 30
0.0
 10
17.977864
 20
-43.029613
 30
0.0
 10
17.977864
 20
-42.870821
 30
0.0
  0
SPLINE
  5
104
100
AcDbEntity
  8
0
 62
7
100
AcDbSpline
 70
8
 71
3
 72
8
 73
4
 74
0
 40
0
 40
0
 40
0
 40
0
 40
1
 40
1
 40
1
 40
1
 10
17.977864
 20
-42.870821
 30
0.0
 10
17.977864
 20
-42.754379
 30
0.0
 10
17.963713
 20
-42.645047
 30
0.0
 10
17.935514
 20
-42.542664
 30
0.0
  0
SPLINE
  5
105
100
AcDbEntity
  8
0
 62
7
100
AcDbSpline
 70
8
 71
3
 72
8
 73
4
 74
0
 40
0
 40
0
 40
0
 40
0
 40
1
 40
1
 40
1
 40
1
 10
17.935514
 20
-42.542664
 30
0.0
 10
17.907235
 20
-42.440361
 30
0.0
 10
17.864885
 20
-42.349472
 30
0.0
 10
17.808487
 20
-42.270076
 30
0.0
  0
SPLINE
  5
106
100
AcDbEntity
  8
0
 62
7
100
AcDbSpline
 70
8
 71
3
 72
8
 73
4
 74
0
 40
0
 40
0
 40
0
 40
0
 40
1
 40
1
 40
1
 40
1
 10
17.808487
 20
-42.270076
 30
0.0
 10
17.751998
 20
-42.190680
 30
0.0
 10
17.679631
 20
-42.128069
 30
0.0
 10
17.591469
 20
-42.082176
 30
0.0
  0
SPLINE
  5
107
100
AcDbEntity
  8
0
 62
7
100
AcDbSpline
 70
8
 71
3
 72
8
 73
4
 74
0
 40
0
 40
0
 40
0
 40
0
 40
1
 40
1
 40
1
 40
1
 10
17.591469
 20
-42.082176
 30
0.0
 10
17.503225
 20
-42.036363
 30
0.0
 10
17.399105
 20
-42.013365
 30
0.0
 10
17.279188
 20
-42.013365
 30
0.0
  0
SPLINE
  5
108
100
AcDbEntity
  8
0
 62
7
100
AcDbSpline
 70
8
 71
3
 72
8
 73
4
 74
0
 40
0
 40
0
 40
0
 40
0
 40
1
 40
1
 40
1
 40
1
 10
17.279188
 20
-42.013365
 30
0.0
 10
17.099227
 20
-42.013365
 30
0.0
 10
16.935971
 20
-42.056612
 30
0.0
 10
16.789593
 20
-42.143037
 30
0.0
  0
SPLINE
  5
109
100
AcDbEntity
  8
0
 62
7
100
AcDbSpline
 70
8
 71
3
 72
8
 73
4
 74
0
 40
0
 40
0
 40
0
 40
0
 40
1
 40
1
 40
1
 40
1
 10
16.789593
 20
-42.143037
 30
0.0
 10
16.643123
 20
-42.229555
 30
0.0
 10
16.519651
 20
-42.339796
 30
0.0
 10
16.419086
 20
-42.473852
 30
0.0
  0
SPLINE
  5
10a
100
AcDbEntity
  8
0
 62
7
100
AcDbSpline
 70
8
 71
3
 72
8
 73
4
 74
0
 40
0
 40
0
 40
0
 40
0
 40
1
 40
1
 40
1
 40
1
 10
16.419086
 20
-42.473852
 30
0.0
 10
16.318521
 20
-42.607989
 30
0.0
 10
16.240862
 20
-42.757934
 30
0.0
 10
16.186190
 20
-42.923755
 30
0.0
  0
SPLINE
  5
10b
100
AcDbEntity
  8
0
 62
7
100
AcDbSpline
 70
8
 71
3
 72
8
 73
4
 74
0
 40
0
 40
0
 40
0
 40
0
 40
1
 40
1
 40
1
 40
1
 10
16.186190
 20
-42.923755
 30
0.0
 10
16.131450
 20
-43.089657
 30
0.0
 10
16.104148
 20
-43.251912
 30
0.0
 10
16.104148
 20
-43.410704
 30
0.0
  0
SPLINE
  5
10c
100
AcDbEntity
  8
0
 62
7
100
AcDbSpline
 70
8
 71
3
 72
8
 73
4
 74
0
 40
0
 40
0
 40
0
 40
0
 40
1
 40
1
 40
1
 40
1
 10
16.104148
 20
-43.410704
 30
0.0
 10
16.104148
 20
-43.527147
 30
0.0
 10
16.118219
 20
-43.637479
 30
0.0
 10
16.146498
 20
-43.741519
 30
0.0
  0
SPLINE
  5
10d
100
AcDbEntity
  8
0
 62
7
100
AcDbSpline
 70
8
 71
3
 72
8
 73
4
 74
0
 40
0
 40
0
 40
0
 40
0
 40
1
 40
1
 40
1
 40
1
 10
16.146498
 20
-43.741519
 30
0.0
 10
16.174697
 20
-43.845628
 30
0.0
 10
16.217047
 20
-43.937346
 30
0.0
 10
16.273536
 20
-44.016753
 30
0.0
  0
SPLINE
  5
10e
100
AcDbEntity
  8
0
 62
7
100
AcDbSpline
 70
8
 71
3
 72
8
 73
4
 74
0
 40
0
 40
0
 40
0
 40
0
 40
1
 40
1
 40
1
 40
1
 10
16.273536
 20
-44.016753
 30
0.0
 10
16.329934
 20
-44.096138
 30
0.0
 10
16.402300
 20
-44.159657
 30
0.0
 10
16.490544
 20
-44.207288
 30
0.0
  0
SPLINE
  5
10f
100
AcDbEntity
  8
0
 62
7
100
AcDbSpline
 70
8
 71
3
 72
8
 73
4
 74
0
 40
0
 40
0
 40
0
 40
0
 40
1
 40
1
 40
1
 40
1
 10
16.490544
 20
-44.207288
 30
0.0
 10
16.578706
 20
-44.254930
 30
0.0
 10
16.682827
 20
-44.278745
 30
0.0
 10
16.802824
 20
-44.278745
 30
0.0
  0
SPLINE
  5
110
100
AcDbEntity
  8
0
 62
7
100
AcDbSpline
 70
8
 71
3
 72
8
 73
4
 74
0
 40
0
 40
0
 40
0
 40
0
 40
1
 40
1
 40
1
 40
1
 10
16.633447
 20
-45.051525
 30
0.0
 10
16.404038
 20
-45.051525
 30
0.0
 10
16.201170
 20
-45.008346
 30
0.0
 10
16.024764
 20
-44.921840
 30
0.0
  0
SPLINE
  5
111
100
AcDbEntity
  8
0
 62
7
100
AcDbSpline
 70
8
 71
3
 72
8
 73
4
 74
0
 40
0
 40
0
 40
0
 40
0
 40
1
 40
1
 40
1
 40
1
 10
16.024764
 20
-44.921840
 30
0.0
 10
15.848277
 20
-44.835426
 30
0.0
 10
15.700070
 20
-44.718972
 30
0.0
 10
15.580153
 20
-44.572502
 30
0.0
  0
SPLINE
  5
112
100
AcDbEntity
  8
0
 62
7
100
AcDbSpline
 70
8
 71
3
 72
8
 73
4
 74
0
 40
0
 40
0
 40
0
 40
0
 40
1
 40
1
 40
1
 40
1
 10
15.580153
 20
-44.572502
 30
0.0
 10
15.460156
 20
-44.426124
 30
0.0
 10
15.369255
 20
-44.258485
 30
0.0
 10
15.307565
 20
-44.069676
 30
0.0
  0
SPLINE
  5
113
100
AcDbEntity
  8
0
 62
7
100
AcDbSpline
 70
8
 71
3
 72
8
 73
4
 74
0
 40
0
 40
0
 40
0
 40
0
 40
1
 40
1
 40
1
 40
1
 10
15.307565
 20
-44.069676
 30
0.0
 10
15.245783
 20
-43.880948
 30
0.0
 10
15.214938
 20
-43.684201
 30
0.0
 10
15.214938
 20
-43.479516
 30
0.0
  0
SPLINE
  5
114
100
AcDbEntity
  8
0
 62
7
100
AcDbSpline
 70
8
 71
3
 72
8
 73
4
 74
0
 40
0
 40
0
 40
0
 40
0
 40
1
 40
1
 40
1
 40
1
 10
15.214938
 20
-43.479516
 30
0.0
 10
15.214938
 20
-43.288970
 30
0.0
 10
15.243149
 20
-43.101979
 30
0.0
 10
15.299627
 20
-42.918463
 30
0.0
  0
SPLINE
  5
115
100
AcDbEntity
  8
0
 62
7
100
AcDbSpline
 70
8
 71
3
 72
8
 73
4
 74
0
 40
0
 40
0
 40
0
 40
0
 40
1
 40
1
 40
1
 40
1
 10
15.299627
 20
-42.918463
 30
0.0
 10
15.356036
 20
-42.735027
 30
0.0
 10
15.434603
 20
-42.560358
 30
0.0
 10
15.535157
 20
-42.394456
 30
0.0
  0
SPLINE
  5
116
100
AcDbEntity
  8
0
 62
7
100
AcDbSpline
 70
8
 71
3
 72
8
 73
4
 74
0
 40
0
 40
0
 40
0
 40
0
 40
1
 40
1
 40
1
 40
1
 10
15.535157
 20
-42.394456
 30
0.0
 10
15.635734
 20
-42.228646
 30
0.0
 10
15.754822
 20
-42.075146
 30
0.0
 10
15.892445
 20
-41.933969
 30
0.0
  0
SPLINE
  5
117
100
AcDbEntity
  8
0
 62
7
100
AcDbSpline
 70
8
 71
3
 72
8
 73
4
 74
0
 40
0
 40
0
 40
0
 40
0
 40
1
 40
1
 40
1
 40
1
 10
15.892445
 20
-41.933969
 30
0.0
 10
16.030056
 20
-41.792883
 30
0.0
 10
16.182635
 20
-41.671148
 30
0.0
 10
16.350275
 20
-41.568754
 30
0.0
  0
SPLINE
  5
118
100
AcDbEntity
  8
0
 62
7
100
AcDbSpline
 70
8
 71
3
 72
8
 73
4
 74
0
 40
0
 40
0
 40
0
 40
0
 40
1
 40
1
 40
1
 40
1
 10
16.350275
 20
-41.568754
 30
0.0
 10
16.517834
 20
-41.466463
 30
0.0
 10
16.695149
 20
-41.386147
 30
0.0
 10
16.882220
 20
-41.327931
 30
0.0
  0
SPLINE
  5
119
100
AcDbEntity
  8
0
 62
7
100
AcDbSpline
 70
8
 71
3
 72
8
 73
4
 74
0
 40
0
 40
0
 40
0
 40
0
 40
1
 40
1
 40
1
 40
1
 10
16.882220
 20
-41.327931
 30
0.0
 10
17.069211
 20
-41.269704
 30
0.0
 10
17.261494
 20
-41.240597
 30
0.0
 10
17.459150
 20
-41.240597
 30
0.0
  0
SPLINE
  5
11a
100
AcDbEntity
  8
0
 62
7
100
AcDbSpline
 70
8
 71
3
 72
8
 73
4
 74
0
 40
0
 40
0
 40
0
 40
0
 40
1
 40
1
 40
1
 40
1
 10
17.459150
 20
-41.240597
 30
0.0
 10
17.684924
 20
-41.240597
 30
0.0
 10
17.886054
 20
-41.284764
 30
0.0
 10
18.062552
 20
-41.372927
 30
0.0
  0
SPLINE
  5
11b
100
AcDbEntity
  8
0
 62
7
100
AcDbSpline
 70
8
 71
3
 72
8
 73
4
 74
0
 40
0
 40
0
 40
0
 40
0
 40
1
 40
1
 40
1
 40
1
 10
18.062552
 20
-41.372927
 30
0.0
 10
18.238947
 20
-41.461171
 30
0.0
 10
18.386246
 20
-41.577613
 30
0.0
 10
18.504505
 20
-41.722254
 30
0.0
  0
SPLINE
  5
11c
100
AcDbEntity
  8
0
 62
7
100
AcDbSpline
 70
8
 71
3
 72
8
 73
4
 74
0
 40
0
 40
0
 40
0
 40
0
 40
1
 40
1
 40
1
 40
1
 10
18.504505
 20
-41.722254
 30
0.0
 10
18.622696
 20
-41.866987
 30
0.0
 10
18.712665
 20
-42.034545
 30
0.0
 10
18.774447
 20
-42.225080
 30
0.0
  0
SPLINE
  5
11d
100
AcDbEntity
  8
0
 62
7
100
AcDbSpline
 70
8
 71
3
 72
8
 73
4
 74
0
 40
0
 40
0
 40
0
 40
0
 40
1
 40
1
 40
1
 40
1
 10
18.774447
 20
-42.225080
 30
0.0
 10
18.836149
 20
-42.415637
 30
0.0
 10
18.867074
 20
-42.611464
 30
0.0
 10
18.867074
 20
-42.812594
 30
0.0
  0
SPLINE
  5
11e
100
AcDbEntity
  8
0
 62
7
100
AcDbSpline
 70
8
 71
3
 72
8
 73
4
 74
0
 40
0
 40
0
 40
0
 40
0
 40
1
 40
1
 40
1
 40
1
 10
18.867074
 20
-42.812594
 30
0.0
 10
18.867074
 20
-43.094938
 30
0.0
 10
18.806201
 20
-43.370172
 30
0.0
 10
18.684467
 20
-43.638296
 30
0.0
  0
SPLINE
  5
11f
100
AcDbEntity
  8
0
 62
7
100
AcDbSpline
 70
8
 71
3
 72
8
 73
4
 74
0
 40
0
 40
0
 40
0
 40
0
 40
1
 40
1
 40
1
 40
1
 10
18.684467
 20
-43.638296
 30
0.0
 10
18.562732
 20
-43.906512
 30
0.0
 10
18.398648
 20
-44.145598
 30
0.0
 10
18.192225
 20
-44.355495
 30
0.0
  0
SPLINE
  5
120
100
AcDbEntity
  8
0
 62
7
100
AcDbSpline
 70
8
 71
3
 72
8
 73
4
 74
0
 40
0
 40
0
 40
0
 40
0
 40
1
 40
1
 40
1
 40
1
 10
18.192225
 20
-44.355495
 30
0.0
 10
17.985802
 20
-44.565484
 30
0.0
 10
17.748443
 20
-44.733940
 30
0.0
 10
17.480319
 20
-44.860967
 30
0.0
  0
SPLINE
  5
121
100
AcDbEntity
  8
0
 62
7
100
AcDbSpline
 70
8
 71
3
 72
8
 73
4
 74
0
 40
0
 40
0
 40
0
 40
0
 40
1
 40
1
 40
1
 40
1
 10
17.480319
 20
-44.860967
 30
0.0
 10
17.212114
 20
-44.987994
 30
0.0
 10
16.929862
 20
-45.051525
 30
0.0
 10
16.633447
 20
-45.051525
 30
0.0
  0
SPLINE
  5
122
100
AcDbEntity
  8
0
 62
7
100
AcDbSpline
 70
8
 71
3
 72
8
 73
4
 74
0
 40
0
 40
0
 40
0
 40
0
 40
1
 40
1
 40
1
 40
1
 10
21.238231
 20
-43.050770
 30
0.0
 10
21.291166
 20
-43.050770
 30
0.0
 10
21.344089
 20
-43.034065
 30
0.0
 10
21.397023
 20
-43.000482
 30
0.0
  0
SPLINE
  5
123
100
AcDbEntity
  8
0
 62
7
100
AcDbSpline
 70
8
 71
3
 72
8
 73
4
 74
0
 40
0
 40
0
 40
0
 40
0
 40
1
 40
1
 40
1
 40
1
 10
21.397023
 20
-43.000482
 30
0.0
 10
21.449946
 20
-42.966991
 30
0.0
 10
21.497589
 20
-42.921098
 30
0.0
 10
21.539927
 20
-42.862871
 30
0.0
  0
SPLINE
  5
124
100
AcDbEntity
  8
0
 62
7
100
AcDbSpline
 70
8
 71
3
 72
8
 73
4
 74
0
 40
0
 40
0
 40
0
 40
0
 40
1
 40
1
 40
1
 40
1
 10
21.539927
 20
-42.862871
 30
0.0
 10
21.582277
 20
-42.804644
 30
0.0
 10
21.616677
 20
-42.736742
 30
0.0
 10
21.643138
 20
-42.659083
 30
0.0
  0
SPLINE
  5
125
100
AcDbEntity
  8
0
 62
7
100
AcDbSpline
 70
8
 71
3
 72
8
 73
4
 74
0
 40
0
 40
0
 40
0
 40
0
 40
1
 40
1
 40
1
 40
1
 10
21.643138
 20
-42.659083
 30
0.0
 10
21.669611
 20
-42.581516
 30
0.0
 10
21.682842
 20
-42.498565
 30
0.0
 10
21.682842
 20
-42.410322
 30
0.0
  0
SPLINE
  5
126
100
AcDbEntity
  8
0
 62
7
100
AcDbSpline
 70
8
 71
3
 72
8
 73
4
 74
0
 40
0
 40
0
 40
0
 40
0
 40
1
 40
1
 40
1
 40
1
 10
21.682842
 20
-42.410322
 30
0.0
 10
21.682842
 20
-42.293880
 30
0.0
 10
21.658118
 20
-42.200424
 30
0.0
 10
21.608738
 20
-42.129795
 30
0.0
  0
SPLINE
  5
127
100
AcDbEntity
  8
0
 62
7
100
AcDbSpline
 70
8
 71
3
 72
8
 73
4
 74
0
 40
0
 40
0
 40
0
 40
0
 40
1
 40
1
 40
1
 40
1
 10
21.608738
 20
-42.129795
 30
0.0
 10
21.559278
 20
-42.059247
 30
0.0
 10
21.499326
 20
-42.023938
 30
0.0
 10
21.428777
 20
-42.023938
 30
0.0
  0
LWPOLYLINE
  5
128
100
AcDbEntity
  8
0
 62
7
100
AcDbPolyline
 90
11
 70
1
 10
12.743101
 20
-41.261743
 30
0.0
 10
15.167273
 20
-41.261743
 30
0.0
 10
15.008481
 20
-42.023938
 30
0.0
 10
13.447068
 20
-42.023938
 30
0.0
 10
13.277692
 20
-42.833763
 30
0.0
 10
14.558578
 20
-42.833763
 30
0.0
 10
14.410382
 20
-43.537720
 30
0.0
 10
13.124192
 20
-43.537720
 30
0.0
 10
12.811912
 20
-45.019748
 30
0.0
 10
11.943871
 20
-45.019748
 30
0.0
 10
12.743101
 20
-41.261743
 30
0.0
  0
LWPOLYLINE
  5
129
100
AcDbEntity
  8
0
 62
7
100
AcDbPolyline
 90
5
 70
0
 10
21.428777
 20
-42.023938
 30
0.0
 10
20.735394
 20
-42.023938
 30
0.0
 10
20.518387
 20
-43.050770
 30
0.0
 10
21.238231
 20
-43.050770
 30
0.0
 10
21.238231
 20
-43.050770
 30
0.0
  0
SPLINE
  5
12a
100
AcDbEntity
  8
0
 62
7
100
AcDbSpline
 70
8
 71
3
 72
8
 73
4
 74
0
 40
0
 40
0
 40
0
 40
0
 40
1
 40
1
 40
1
 40
1
 10
21.645785
 20
-41.261743
 30
0.0
 10
21.793992
 20
-41.261743
 30
0.0
 10
21.925402
 20
-41.291771
 30
0.0
 10
22.040118
 20
-41.351724
 30
0.0
  0
SPLINE
  5
12b
100
AcDbEntity
  8
0
 62
7
100
AcDbSpline
 70
8
 71
3
 72
8
 73
4
 74
0
 40
0
 40
0
 40
0
 40
0
 40
1
 40
1
 40
1
 40
1
 10
22.040118
 20
-41.351724
 30
0.0
 10
22.154743
 20
-41.411768
 30
0.0
 10
22.251833
 20
-41.491164
 30
0.0
 10
22.331218
 20
-41.589912
 30
0.0
  0
SPLINE
  5
12c
100
AcDbEntity
  8
0
 62
7
100
AcDbSpline
 70
8
 71
3
 72
8
 73
4
 74
0
 40
0
 40
0
 40
0
 40
0
 40
1
 40
1
 40
1
 40
1
 10
22.331218
 20
-41.589912
 30
0.0
 10
22.410614
 20
-41.688740
 30
0.0
 10
22.471487
 20
-41.801627
 30
0.0
 10
22.513837
 20
-41.928665
 30
0.0
  0
SPLINE
  5
12d
100
AcDbEntity
  8
0
 62
7
100
AcDbSpline
 70
8
 71
3
 72
8
 73
4
 74
0
 40
0
 40
0
 40
0
 40
0
 40
1
 40
1
 40
1
 40
1
 10
22.513837
 20
-41.928665
 30
0.0
 10
22.556175
 20
-42.055692
 30
0.0
 10
22.577344
 20
-42.186273
 30
0.0
 10
22.577344
 20
-42.320341
 30
0.0
  0
SPLINE
  5
12e
100
AcDbEntity
  8
0
 62
7
100
AcDbSpline
 70
8
 71
3
 72
8
 73
4
 74
0
 40
0
 40
0
 40
0
 40
0
 40
1
 40
1
 40
1
 40
1
 10
22.577344
 20
-42.320341
 30
0.0
 10
22.577344
 20
-42.450923
 30
0.0
 10
22.557004
 20
-42.579698
 30
0.0
 10
22.516483
 20
-42.706725
 30
0.0
  0
SPLINE
  5
12f
100
AcDbEntity
  8
0
 62
7
100
AcDbSpline
 70
8
 71
3
 72
8
 73
4
 74
0
 40
0
 40
0
 40
0
 40
0
 40
1
 40
1
 40
1
 40
1
 10
22.516483
 20
-42.706725
 30
0.0
 10
22.475870
 20
-42.833763
 30
0.0
 10
22.419392
 20
-42.954658
 30
0.0
 10
22.347106
 20
-43.069282
 30
0.0
  0
SPLINE
  5
130
100
AcDbEntity
  8
0
 62
7
100
AcDbSpline
 70
8
 71
3
 72
8
 73
4
 74
0
 40
0
 40
0
 40
0
 40
0
 40
1
 40
1
 40
1
 40
1
 10
22.347106
 20
-43.069282
 30
0.0
 10
22.274740
 20
-43.183998
 30
0.0
 10
22.188314
 20
-43.288947
 30
0.0
 10
22.087749
 20
-43.384220
 30
0.0
  0
SPLINE
  5
131
100
AcDbEntity
  8
0
 62
7
100
AcDbSpline
 70
8
 71
3
 72
8
 73
4
 74
0
 40
0
 40
0
 40
0
 40
0
 40
1
 40
1
 40
1
 40
1
 10
22.087749
 20
-43.384220
 30
0.0
 10
21.987184
 20
-43.479504
 30
0.0
 10
21.876863
 20
-43.558889
 30
0.0
 10
21.756934
 20
-43.622408
 30
0.0
  0
LWPOLYLINE
  5
132
100
AcDbEntity
  8
0
 62
7
100
AcDbPolyline
 90
3
 70
0
 10
19.232208
 20
-45.019748
 30
0.0
 10
20.031437
 20
-41.261743
 30
0.0
 10
21.645785
 20
-41.261743
 30
0.0
  0
LWPOLYLINE
  5
133
100
AcDbEntity
  8
0
 62
7
100
AcDbPolyline
 90
8
 70
0
 10
21.756934
 20
-43.622408
 30
0.0
 10
22.238603
 20
-45.019748
 30
0.0
 10
21.259401
 20
-45.019748
 30
0.0
 10
20.846555
 20
-43.807661
 30
0.0
 10
20.354302
 20
-43.807661
 30
0.0
 10
20.100249
 20
-45.019748
 30
0.0
 10
19.232208
 20
-45.019748
 30
0.0
 10
19.232208
 20
-45.019748
 30
0.0
  0
SPLINE
  5
134
100
AcDbEntity
  8
0
 62
7
100
AcDbSpline
 70
8
 71
3
 72
8
 73
4
 74
0
 40
0
 40
0
 40
0
 40
0
 40
1
 40
1
 40
1
 40
1
 10
29.135263
 20
-45.051513
 30
0.0
 10
28.905854
 20
-45.051513
 30
0.0
 10
28.711833
 20
-45.018919
 30
0.0
 10
28.553041
 20
-44.953582
 30
0.0
  0
SPLINE
  5
135
100
AcDbEntity
  8
0
 62
7
100
AcDbSpline
 70
8
 71
3
 72
8
 73
4
 74
0
 40
0
 40
0
 40
0
 40
0
 40
1
 40
1
 40
1
 40
1
 10
28.553041
 20
-44.953582
 30
0.0
 10
28.394249
 20
-44.888338
 30
0.0
 10
28.264577
 20
-44.798357
 30
0.0
 10
28.164011
 20
-44.683641
 30
0.0
  0
SPLINE
  5
136
100
AcDbEntity
  8
0
 62
7
100
AcDbSpline
 70
8
 71
3
 72
8
 73
4
 74
0
 40
0
 40
0
 40
0
 40
0
 40
1
 40
1
 40
1
 40
1
 10
28.164011
 20
-44.683641
 30
0.0
 10
28.063446
 20
-44.569016
 30
0.0
 10
27.990171
 20
-44.433142
 30
0.0
 10
27.944346
 20
-44.276099
 30
0.0
  0
SPLINE
  5
137
100
AcDbEntity
  8
0
 62
7
100
AcDbSpline
 70
8
 71
3
 72
8
 73
4
 74
0
 40
0
 40
0
 40
0
 40
0
 40
1
 40
1
 40
1
 40
1
 10
27.944346
 20
-44.276099
 30
0.0
 10
27.898453
 20
-44.119125
 30
0.0
 10
27.875546
 20
-43.950577
 30
0.0
 10
27.875546
 20
-43.770615
 30
0.0
  0
SPLINE
  5
138
100
AcDbEntity
  8
0
 62
7
100
AcDbSpline
 70
8
 71
3
 72
8
 73
4
 74
0
 40
0
 40
0
 40
0
 40
0
 40
1
 40
1
 40
1
 40
1
 10
27.875546
 20
-43.770615
 30
0.0
 10
27.875546
 20
-43.580070
 30
0.0
 10
27.896716
 20
-43.384231
 30
0.0
 10
27.939054
 20
-43.183101
 30
0.0
  0
LWPOLYLINE
  5
139
100
AcDbEntity
  8
0
 62
7
100
AcDbPolyline
 90
14
 70
1
 10
23.747012
 20
-41.261743
 30
0.0
 10
24.689156
 20
-41.261743
 30
0.0
 10
25.154936
 20
-43.225439
 30
0.0
 10
26.457003
 20
-41.261743
 30
0.0
 10
27.399147
 20
-41.261743
 30
0.0
 10
26.599918
 20
-45.019748
 30
0.0
 10
25.726585
 20
-45.019748
 30
0.0
 10
26.208230
 20
-42.770233
 30
0.0
 10
25.133767
 20
-44.405760
 30
0.0
 10
24.667987
 20
-44.405760
 30
0.0
 10
24.297480
 20
-42.770233
 30
0.0
 10
23.815823
 20
-45.019748
 30
0.0
 10
22.947782
 20
-45.019748
 30
0.0
 10
23.747012
 20
-41.261743
 30
0.0
  0
SPLINE
  5
13a
100
AcDbEntity
  8
0
 62
7
100
AcDbSpline
 70
8
 71
3
 72
8
 73
4
 74
0
 40
0
 40
0
 40
0
 40
0
 40
1
 40
1
 40
1
 40
1
 10
28.807106
 20
-43.183101
 30
0.0
 10
28.775341
 20
-43.338418
 30
0.0
 10
28.759464
 20
-43.481322
 30
0.0
 10
28.759464
 20
-43.611823
 30
0.0
  0
SPLINE
  5
13b
100
AcDbEntity
  8
0
 62
7
100
AcDbSpline
 70
8
 71
3
 72
8
 73
4
 74
0
 40
0
 40
0
 40
0
 40
0
 40
1
 40
1
 40
1
 40
1
 10
28.759464
 20
-43.611823
 30
0.0
 10
28.759464
 20
-43.707108
 30
0.0
 10
28.769140
 20
-43.795340
 30
0.0
 10
28.788583
 20
-43.876473
 30
0.0
  0
SPLINE
  5
13c
100
AcDbEntity
  8
0
 62
7
100
AcDbSpline
 70
8
 71
3
 72
8
 73
4
 74
0
 40
0
 40
0
 40
0
 40
0
 40
1
 40
1
 40
1
 40
1
 10
28.788583
 20
-43.876473
 30
0.0
 10
28.807923
 20
-43.957687
 30
0.0
 10
28.838860
 20
-44.028235
 30
0.0
 10
28.881199
 20
-44.088199
 30
0.0
  0
SPLINE
  5
13d
100
AcDbEntity
  8
0
 62
7
100
AcDbSpline
 70
8
 71
3
 72
8
 73
4
 74
0
 40
0
 40
0
 40
0
 40
0
 40
1
 40
1
 40
1
 40
1
 10
28.881199
 20
-44.088199
 30
0.0
 10
28.923548
 20
-44.148232
 30
0.0
 10
28.979129
 20
-44.194966
 30
0.0
 10
29.047929
 20
-44.228457
 30
0.0
  0
SPLINE
  5
13e
100
AcDbEntity
  8
0
 62
7
100
AcDbSpline
 70
8
 71
3
 72
8
 73
4
 74
0
 40
0
 40
0
 40
0
 40
0
 40
1
 40
1
 40
1
 40
1
 10
29.047929
 20
-44.228457
 30
0.0
 10
29.116740
 20
-44.262028
 30
0.0
 10
29.200520
 20
-44.278734
 30
0.0
 10
29.299348
 20
-44.278734
 30
0.0
  0
SPLINE
  5
13f
100
AcDbEntity
  8
0
 62
7
100
AcDbSpline
 70
8
 71
3
 72
8
 73
4
 74
0
 40
0
 40
0
 40
0
 40
0
 40
1
 40
1
 40
1
 40
1
 10
29.299348
 20
-44.278734
 30
0.0
 10
29.433404
 20
-44.278734
 30
0.0
 10
29.553413
 20
-44.247889
 30
0.0
 10
29.659270
 20
-44.186107
 30
0.0
  0
SPLINE
  5
140
100
AcDbEntity
  8
0
 62
7
100
AcDbSpline
 70
8
 71
3
 72
8
 73
4
 74
0
 40
0
 40
0
 40
0
 40
0
 40
1
 40
1
 40
1
 40
1
 10
29.659270
 20
-44.186107
 30
0.0
 10
29.765128
 20
-44.124417
 30
0.0
 10
29.856846
 20
-44.042375
 30
0.0
 10
29.934504
 20
-43.939992
 30
0.0
  0
SPLINE
  5
141
100
AcDbEntity
  8
0
 62
7
100
AcDbSpline
 70
8
 71
3
 72
8
 73
4
 74
0
 40
0
 40
0
 40
0
 40
0
 40
1
 40
1
 40
1
 40
1
 10
29.934504
 20
-43.939992
 30
0.0
 10
30.012071
 20
-43.837689
 30
0.0
 10
30.077408
 20
-43.720327
 30
0.0
 10
30.130342
 20
-43.588008
 30
0.0
  0
SPLINE
  5
142
100
AcDbEntity
  8
0
 62
7
100
AcDbSpline
 70
8
 71
3
 72
8
 73
4
 74
0
 40
0
 40
0
 40
0
 40
0
 40
1
 40
1
 40
1
 40
1
 10
30.130342
 20
-43.588008
 30
0.0
 10
30.183265
 20
-43.455689
 30
0.0
 10
30.225615
 20
-43.320724
 30
0.0
 10
30.257369
 20
-43.183101
 30
0.0
  0
LWPOLYLINE
  5
143
100
AcDbEntity
  8
0
 62
7
100
AcDbPolyline
 90
4
 70
0
 10
27.939054
 20
-43.183101
 30
0.0
 10
28.351911
 20
-41.261754
 30
0.0
 10
29.219952
 20
-41.261754
 30
0.0
 10
28.807106
 20
-43.183101
 30
0.0
  0
SPLINE
  5
144
100
AcDbEntity
  8
0
 62
7
100
AcDbSpline
 70
8
 71
3
 72
8
 73
4
 74
0
 40
0
 40
0
 40
0
 40
0
 40
1
 40
1
 40
1
 40
1
 10
31.125410
 20
-43.183101
 30
0.0
 10
31.068932
 20
-43.444276
 30
0.0
 10
30.985152
 20
-43.687745
 30
0.0
 10
30.874003
 20
-43.913530
 30
0.0
  0
SPLINE
  5
145
100
AcDbEntity
  8
0
 62
7
100
AcDbSpline
 70
8
 71
3
 72
8
 73
4
 74
0
 40
0
 40
0
 40
0
 40
0
 40
1
 40
1
 40
1
 40
1
 10
30.874003
 20
-43.913530
 30
0.0
 10
30.762853
 20
-44.139385
 30
0.0
 10
30.624321
 20
-44.336960
 30
0.0
 10
30.458500
 20
-44.506337
 30
0.0
  0
SPLINE
  5
146
100
AcDbEntity
  8
0
 62
7
100
AcDbSpline
 70
8
 71
3
 72
8
 73
4
 74
0
 40
0
 40
0
 40
0
 40
0
 40
1
 40
1
 40
1
 40
1
 10
30.458500
 20
-44.506337
 30
0.0
 10
30.292597
 20
-44.675714
 30
0.0
 10
30.099405
 20
-44.808942
 30
0.0
 10
29.878924
 20
-44.905952
 30
0.0
  0
SPLINE
  5
147
100
AcDbEntity
  8
0
 62
7
100
AcDbSpline
 70
8
 71
3
 72
8
 73
4
 74
0
 40
0
 40
0
 40
0
 40
0
 40
1
 40
1
 40
1
 40
1
 10
29.878924
 20
-44.905952
 30
0.0
 10
29.658361
 20
-45.003042
 30
0.0
 10
29.410498
 20
-45.051513
 30
0.0
 10
29.135263
 20
-45.051513
 30
0.0
  0
LWPOLYLINE
  5
148
100
AcDbEntity
  8
0
 62
7
100
AcDbPolyline
 90
4
 70
0
 10
30.257369
 20
-43.183101
 30
0.0
 10
30.664934
 20
-41.261754
 30
0.0
 10
31.532974
 20
-41.261754
 30
0.0
 10
31.125410
 20
-43.183101
 30
0.0
  0
LWPOLYLINE
  5
149
100
AcDbEntity
  8
0
 62
7
100
AcDbPolyline
 90
7
 70
1
 10
32.490927
 20
-41.261743
 30
0.0
 10
33.358968
 20
-41.261743
 30
0.0
 10
32.718530
 20
-44.257564
 30
0.0
 10
34.417566
 20
-44.257564
 30
0.0
 10
34.258774
 20
-45.019748
 30
0.0
 10
31.691697
 20
-45.019748
 30
0.0
 10
32.490927
 20
-41.261743
 30
0.0
  0
LWPOLYLINE
  5
14a
100
AcDbEntity
  8
0
 62
7
100
AcDbPolyline
 90
4
 70
1
 10
37.016304
 20
-43.580116
 30
0.0
 10
36.910446
 20
-42.251587
 30
0.0
 10
36.222355
 20
-43.580116
 30
0.0
 10
37.016304
 20
-43.580116
 30
0.0
  0
SPLINE
  5
14b
100
AcDbEntity
  8
0
 62
7
100
AcDbSpline
 70
8
 71
3
 72
8
 73
4
 74
0
 40
0
 40
0
 40
0
 40
0
 40
1
 40
1
 40
1
 40
1
 10
41.250719
 20
-45.062098
 30
0.0
 10
40.986069
 20
-45.062098
 30
0.0
 10
40.726712
 20
-45.021496
 30
0.0
 10
40.472659
 20
-44.940363
 30
0.0
  0
SPLINE
  5
14c
100
AcDbEntity
  8
0
 62
7
100
AcDbSpline
 70
8
 71
3
 72
8
 73
4
 74
0
 40
0
 40
0
 40
0
 40
0
 40
1
 40
1
 40
1
 40
1
 10
40.472659
 20
-44.940363
 30
0.0
 10
40.218594
 20
-44.859218
 30
0.0
 10
39.999769
 20
-44.744514
 30
0.0
 10
39.816333
 20
-44.596318
 30
0.0
  0
LWPOLYLINE
  5
14d
100
AcDbEntity
  8
0
 62
7
100
AcDbPolyline
 90
9
 70
1
 10
36.725192
 20
-41.261801
 30
0.0
 10
37.513837
 20
-41.261801
 30
0.0
 10
38.000786
 20
-45.019805
 30
0.0
 10
37.111576
 20
-45.019805
 30
0.0
 10
37.032180
 20
-44.178214
 30
0.0
 10
35.963009
 20
-44.178214
 30
0.0
 10
35.534275
 20
-45.019805
 30
0.0
 10
34.639773
 20
-45.019805
 30
0.0
 10
36.725192
 20
-41.261801
 30
0.0
  0
SPLINE
  5
14e
100
AcDbEntity
  8
0
 62
7
100
AcDbSpline
 70
8
 71
3
 72
8
 73
4
 74
0
 40
0
 40
0
 40
0
 40
0
 40
1
 40
1
 40
1
 40
1
 10
40.356205
 20
-43.839427
 30
0.0
 10
40.363235
 20
-43.857121
 30
0.0
 10
40.397646
 20
-43.890624
 30
0.0
 10
40.459428
 20
-43.939992
 30
0.0
  0
SPLINE
  5
14f
100
AcDbEntity
  8
0
 62
7
100
AcDbSpline
 70
8
 71
3
 72
8
 73
4
 74
0
 40
0
 40
0
 40
0
 40
0
 40
1
 40
1
 40
1
 40
1
 10
40.459428
 20
-43.939992
 30
0.0
 10
40.521118
 20
-43.989452
 30
0.0
 10
40.600514
 20
-44.038820
 30
0.0
 10
40.697604
 20
-44.088199
 30
0.0
  0
SPLINE
  5
150
100
AcDbEntity
  8
0
 62
7
100
AcDbSpline
 70
8
 71
3
 72
8
 73
4
 74
0
 40
0
 40
0
 40
0
 40
0
 40
1
 40
1
 40
1
 40
1
 10
40.697604
 20
-44.088199
 30
0.0
 10
40.794615
 20
-44.137648
 30
0.0
 10
40.906673
 20
-44.181723
 30
0.0
 10
41.033711
 20
-44.220518
 30
0.0
  0
SPLINE
  5
151
100
AcDbEntity
  8
0
 62
7
100
AcDbSpline
 70
8
 71
3
 72
8
 73
4
 74
0
 40
0
 40
0
 40
0
 40
0
 40
1
 40
1
 40
1
 40
1
 10
41.033711
 20
-44.220518
 30
0.0
 10
41.160738
 20
-44.259382
 30
0.0
 10
41.293057
 20
-44.278734
 30
0.0
 10
41.430680
 20
-44.278734
 30
0.0
  0
SPLINE
  5
152
100
AcDbEntity
  8
0
 62
7
100
AcDbSpline
 70
8
 71
3
 72
8
 73
4
 74
0
 40
0
 40
0
 40
0
 40
0
 40
1
 40
1
 40
1
 40
1
 10
41.430680
 20
-44.278734
 30
0.0
 10
41.600057
 20
-44.278734
 30
0.0
 10
41.719973
 20
-44.247889
 30
0.0
 10
41.790602
 20
-44.186107
 30
0.0
  0
SPLINE
  5
153
100
AcDbEntity
  8
0
 62
7
100
AcDbSpline
 70
8
 71
3
 72
8
 73
4
 74
0
 40
0
 40
0
 40
0
 40
0
 40
1
 40
1
 40
1
 40
1
 10
41.790602
 20
-44.186107
 30
0.0
 10
41.861140
 20
-44.124417
 30
0.0
 10
41.896460
 20
-44.044112
 30
0.0
 10
41.896460
 20
-43.945284
 30
0.0
  0
SPLINE
  5
154
100
AcDbEntity
  8
0
 62
7
100
AcDbSpline
 70
8
 71
3
 72
8
 73
4
 74
0
 40
0
 40
0
 40
0
 40
0
 40
1
 40
1
 40
1
 40
1
 10
41.896460
 20
-43.945284
 30
0.0
 10
41.896460
 20
-43.885320
 30
0.0
 10
41.877028
 20
-43.835043
 30
0.0
 10
41.838233
 20
-43.794431
 30
0.0
  0
SPLINE
  5
155
100
AcDbEntity
  8
0
 62
7
100
AcDbSpline
 70
8
 71
3
 72
8
 73
4
 74
0
 40
0
 40
0
 40
0
 40
0
 40
1
 40
1
 40
1
 40
1
 10
41.838233
 20
-43.794431
 30
0.0
 10
41.799369
 20
-43.753910
 30
0.0
 10
41.745606
 20
-43.716852
 30
0.0
 10
41.676806
 20
-43.683281
 30
0.0
  0
SPLINE
  5
156
100
AcDbEntity
  8
0
 62
7
100
AcDbSpline
 70
8
 71
3
 72
8
 73
4
 74
0
 40
0
 40
0
 40
0
 40
0
 40
1
 40
1
 40
1
 40
1
 10
41.676806
 20
-43.683281
 30
0.0
 10
41.607995
 20
-43.649790
 30
0.0
 10
41.528599
 20
-43.618025
 30
0.0
 10
41.438618
 20
-43.588008
 30
0.0
  0
SPLINE
  5
157
100
AcDbEntity
  8
0
 62
7
100
AcDbSpline
 70
8
 71
3
 72
8
 73
4
 74
0
 40
0
 40
0
 40
0
 40
0
 40
1
 40
1
 40
1
 40
1
 10
41.438618
 20
-43.588008
 30
0.0
 10
41.348638
 20
-43.558060
 30
0.0
 10
41.252456
 20
-43.525409
 30
0.0
 10
41.150154
 20
-43.490089
 30
0.0
  0
SPLINE
  5
158
100
AcDbEntity
  8
0
 62
7
100
AcDbSpline
 70
8
 71
3
 72
8
 73
4
 74
0
 40
0
 40
0
 40
0
 40
0
 40
1
 40
1
 40
1
 40
1
 10
41.150154
 20
-43.490089
 30
0.0
 10
40.896089
 20
-43.398371
 30
0.0
 10
40.706371
 20
-43.290776
 30
0.0
 10
40.581162
 20
-43.167224
 30
0.0
  0
SPLINE
  5
159
100
AcDbEntity
  8
0
 62
7
100
AcDbSpline
 70
8
 71
3
 72
8
 73
4
 74
0
 40
0
 40
0
 40
0
 40
0
 40
1
 40
1
 40
1
 40
1
 10
40.581162
 20
-43.167224
 30
0.0
 10
40.455861
 20
-43.043741
 30
0.0
 10
40.393263
 20
-42.877919
 30
0.0
 10
40.393263
 20
-42.669690
 30
0.0
  0
SPLINE
  5
15a
100
AcDbEntity
  8
0
 62
7
100
AcDbSpline
 70
8
 71
3
 72
8
 73
4
 74
0
 40
0
 40
0
 40
0
 40
0
 40
1
 40
1
 40
1
 40
1
 10
40.393263
 20
-42.669690
 30
0.0
 10
40.393263
 20
-42.443905
 30
0.0
 10
40.439076
 20
-42.240957
 30
0.0
 10
40.530874
 20
-42.060984
 30
0.0
  0
SPLINE
  5
15b
100
AcDbEntity
  8
0
 62
7
100
AcDbSpline
 70
8
 71
3
 72
8
 73
4
 74
0
 40
0
 40
0
 40
0
 40
0
 40
1
 40
1
 40
1
 40
1
 10
40.530874
 20
-42.060984
 30
0.0
 10
40.622592
 20
-41.881034
 30
0.0
 10
40.743417
 20
-41.730192
 30
0.0
 10
40.893442
 20
-41.608446
 30
0.0
  0
SPLINE
  5
15c
100
AcDbEntity
  8
0
 62
7
100
AcDbSpline
 70
8
 71
3
 72
8
 73
4
 74
0
 40
0
 40
0
 40
0
 40
0
 40
1
 40
1
 40
1
 40
1
 10
40.893442
 20
-41.608446
 30
0.0
 10
41.043387
 20
-41.486700
 30
0.0
 10
41.215410
 20
-41.393245
 30
0.0
 10
41.409511
 20
-41.327920
 30
0.0
  0
SPLINE
  5
15d
100
AcDbEntity
  8
0
 62
7
100
AcDbSpline
 70
8
 71
3
 72
8
 73
4
 74
0
 40
0
 40
0
 40
0
 40
0
 40
1
 40
1
 40
1
 40
1
 10
41.409511
 20
-41.327920
 30
0.0
 10
41.603531
 20
-41.262663
 30
0.0
 10
41.802924
 20
-41.230001
 30
0.0
 10
42.007610
 20
-41.230001
 30
0.0
  0
SPLINE
  5
15e
100
AcDbEntity
  8
0
 62
7
100
AcDbSpline
 70
8
 71
3
 72
8
 73
4
 74
0
 40
0
 40
0
 40
0
 40
0
 40
1
 40
1
 40
1
 40
1
 10
42.007610
 20
-41.230001
 30
0.0
 10
42.134636
 20
-41.230001
 30
0.0
 10
42.256382
 20
-41.242403
 30
0.0
 10
42.372824
 20
-41.267058
 30
0.0
  0
SPLINE
  5
15f
100
AcDbEntity
  8
0
 62
7
100
AcDbSpline
 70
8
 71
3
 72
8
 73
4
 74
0
 40
0
 40
0
 40
0
 40
0
 40
1
 40
1
 40
1
 40
1
 10
42.372824
 20
-41.267058
 30
0.0
 10
42.489267
 20
-41.291783
 30
0.0
 10
42.598599
 20
-41.323536
 30
0.0
 10
42.700982
 20
-41.362320
 30
0.0
  0
SPLINE
  5
160
100
AcDbEntity
  8
0
 62
7
100
AcDbSpline
 70
8
 71
3
 72
8
 73
4
 74
0
 40
0
 40
0
 40
0
 40
0
 40
1
 40
1
 40
1
 40
1
 10
42.700982
 20
-41.362320
 30
0.0
 10
42.803284
 20
-41.401195
 30
0.0
 10
42.897648
 20
-41.445271
 30
0.0
 10
42.984154
 20
-41.494650
 30
0.0
  0
SPLINE
  5
161
100
AcDbEntity
  8
0
 62
7
100
AcDbSpline
 70
8
 71
3
 72
8
 73
4
 74
0
 40
0
 40
0
 40
0
 40
0
 40
1
 40
1
 40
1
 40
1
 10
42.984154
 20
-41.494650
 30
0.0
 10
43.070580
 20
-41.544110
 30
0.0
 10
43.149067
 20
-41.593478
 30
0.0
 10
43.219696
 20
-41.642858
 30
0.0
  0
LWPOLYLINE
  5
162
100
AcDbEntity
  8
0
 62
7
100
AcDbPolyline
 90
2
 70
0
 10
39.816333
 20
-44.596318
 30
0.0
 10
40.356205
 20
-43.839427
 30
0.0
  0
SPLINE
  5
163
100
AcDbEntity
  8
0
 62
7
100
AcDbSpline
 70
8
 71
3
 72
8
 73
4
 74
0
 40
0
 40
0
 40
0
 40
0
 40
1
 40
1
 40
1
 40
1
 10
42.690397
 20
-42.362691
 30
0.0
 10
42.683287
 20
-42.348632
 30
0.0
 10
42.654179
 20
-42.322170
 30
0.0
 10
42.603062
 20
-42.283295
 30
0.0
  0
SPLINE
  5
164
100
AcDbEntity
  8
0
 62
7
100
AcDbSpline
 70
8
 71
3
 72
8
 73
4
 74
0
 40
0
 40
0
 40
0
 40
0
 40
1
 40
1
 40
1
 40
1
 10
42.603062
 20
-42.283295
 30
0.0
 10
42.551877
 20
-42.244512
 30
0.0
 10
42.485711
 20
-42.203899
 30
0.0
 10
42.404578
 20
-42.161561
 30
0.0
  0
SPLINE
  5
165
100
AcDbEntity
  8
0
 62
7
100
AcDbSpline
 70
8
 71
3
 72
8
 73
4
 74
0
 40
0
 40
0
 40
0
 40
0
 40
1
 40
1
 40
1
 40
1
 10
42.404578
 20
-42.161561
 30
0.0
 10
42.323364
 20
-42.119211
 30
0.0
 10
42.231647
 20
-42.082165
 30
0.0
 10
42.129344
 20
-42.050411
 30
0.0
  0
SPLINE
  5
166
100
AcDbEntity
  8
0
 62
7
100
AcDbSpline
 70
8
 71
3
 72
8
 73
4
 74
0
 40
0
 40
0
 40
0
 40
0
 40
1
 40
1
 40
1
 40
1
 10
42.129344
 20
-42.050411
 30
0.0
 10
42.026961
 20
-42.018657
 30
0.0
 10
41.922921
 20
-42.002769
 30
0.0
 10
41.817064
 20
-42.002769
 30
0.0
  0
SPLINE
  5
167
100
AcDbEntity
  8
0
 62
7
100
AcDbSpline
 70
8
 71
3
 72
8
 73
4
 74
0
 40
0
 40
0
 40
0
 40
0
 40
1
 40
1
 40
1
 40
1
 10
41.817064
 20
-42.002769
 30
0.0
 10
41.668856
 20
-42.002769
 30
0.0
 10
41.553243
 20
-42.035443
 30
0.0
 10
41.470372
 20
-42.100699
 30
0.0
  0
SPLINE
  5
168
100
AcDbEntity
  8
0
 62
7
100
AcDbSpline
 70
8
 71
3
 72
8
 73
4
 74
0
 40
0
 40
0
 40
0
 40
0
 40
1
 40
1
 40
1
 40
1
 10
41.470372
 20
-42.100699
 30
0.0
 10
41.387421
 20
-42.166024
 30
0.0
 10
41.345992
 20
-42.256833
 30
0.0
 10
41.345992
 20
-42.373276
 30
0.0
  0
SPLINE
  5
169
100
AcDbEntity
  8
0
 62
7
100
AcDbSpline
 70
8
 71
3
 72
8
 73
4
 74
0
 40
0
 40
0
 40
0
 40
0
 40
1
 40
1
 40
1
 40
1
 10
41.345992
 20
-42.373276
 30
0.0
 10
41.345992
 20
-42.475659
 30
0.0
 10
41.400652
 20
-42.552408
 30
0.0
 10
41.510064
 20
-42.603525
 30
0.0
  0
SPLINE
  5
16a
100
AcDbEntity
  8
0
 62
7
100
AcDbSpline
 70
8
 71
3
 72
8
 73
4
 74
0
 40
0
 40
0
 40
0
 40
0
 40
1
 40
1
 40
1
 40
1
 10
41.510064
 20
-42.603525
 30
0.0
 10
41.619408
 20
-42.654711
 30
0.0
 10
41.774714
 20
-42.712017
 30
0.0
 10
41.975856
 20
-42.775536
 30
0.0
  0
SPLINE
  5
16b
100
AcDbEntity
  8
0
 62
7
100
AcDbSpline
 70
8
 71
3
 72
8
 73
4
 74
0
 40
0
 40
0
 40
0
 40
0
 40
1
 40
1
 40
1
 40
1
 10
41.975856
 20
-42.775536
 30
0.0
 10
42.109912
 20
-42.817886
 30
0.0
 10
42.232555
 20
-42.864700
 30
0.0
 10
42.343705
 20
-42.915805
 30
0.0
  0
SPLINE
  5
16c
100
AcDbEntity
  8
0
 62
7
100
AcDbSpline
 70
8
 71
3
 72
8
 73
4
 74
0
 40
0
 40
0
 40
0
 40
0
 40
1
 40
1
 40
1
 40
1
 10
42.343705
 20
-42.915805
 30
0.0
 10
42.454867
 20
-42.966991
 30
0.0
 10
42.550139
 20
-43.027876
 30
0.0
 10
42.629535
 20
-43.098401
 30
0.0
  0
SPLINE
  5
16d
100
AcDbEntity
  8
0
 62
7
100
AcDbSpline
 70
8
 71
3
 72
8
 73
4
 74
0
 40
0
 40
0
 40
0
 40
0
 40
1
 40
1
 40
1
 40
1
 10
42.629535
 20
-43.098401
 30
0.0
 10
42.708931
 20
-43.169042
 30
0.0
 10
42.769793
 20
-43.251901
 30
0.0
 10
42.812143
 20
-43.347174
 30
0.0
  0
SPLINE
  5
16e
100
AcDbEntity
  8
0
 62
7
100
AcDbSpline
 70
8
 71
3
 72
8
 73
4
 74
0
 40
0
 40
0
 40
0
 40
0
 40
1
 40
1
 40
1
 40
1
 10
42.812143
 20
-43.347174
 30
0.0
 10
42.854481
 20
-43.442458
 30
0.0
 10
42.875650
 20
-43.555426
 30
0.0
 10
42.875650
 20
-43.685927
 30
0.0
  0
SPLINE
  5
16f
100
AcDbEntity
  8
0
 62
7
100
AcDbSpline
 70
8
 71
3
 72
8
 73
4
 74
0
 40
0
 40
0
 40
0
 40
0
 40
1
 40
1
 40
1
 40
1
 10
42.875650
 20
-43.685927
 30
0.0
 10
42.875650
 20
-43.936517
 30
0.0
 10
42.828020
 20
-44.149061
 30
0.0
 10
42.732747
 20
-44.323730
 30
0.0
  0
SPLINE
  5
170
100
AcDbEntity
  8
0
 62
7
100
AcDbSpline
 70
8
 71
3
 72
8
 73
4
 74
0
 40
0
 40
0
 40
0
 40
0
 40
1
 40
1
 40
1
 40
1
 10
42.732747
 20
-44.323730
 30
0.0
 10
42.637474
 20
-44.498399
 30
0.0
 10
42.512184
 20
-44.640485
 30
0.0
 10
42.356948
 20
-44.749806
 30
0.0
  0
SPLINE
  5
171
100
AcDbEntity
  8
0
 62
7
100
AcDbSpline
 70
8
 71
3
 72
8
 73
4
 74
0
 40
0
 40
0
 40
0
 40
0
 40
1
 40
1
 40
1
 40
1
 10
42.356948
 20
-44.749806
 30
0.0
 10
42.201630
 20
-44.859218
 30
0.0
 10
42.026961
 20
-44.938626
 30
0.0
 10
41.832941
 20
-44.987994
 30
0.0
  0
SPLINE
  5
172
100
AcDbEntity
  8
0
 62
7
100
AcDbSpline
 70
8
 71
3
 72
8
 73
4
 74
0
 40
0
 40
0
 40
0
 40
0
 40
1
 40
1
 40
1
 40
1
 10
41.832941
 20
-44.987994
 30
0.0
 10
41.638840
 20
-45.037373
 30
0.0
 10
41.444739
 20
-45.062098
 30
0.0
 10
41.250719
 20
-45.062098
 30
0.0
  0
LWPOLYLINE
  5
173
100
AcDbEntity
  8
0
 62
7
100
AcDbPolyline
 90
2
 70
0
 10
43.219696
 20
-41.642858
 30
0.0
 10
42.690397
 20
-42.362691
 30
0.0
  0
SPLINE
  5
174
100
AcDbEntity
  8
0
 62
7
100
AcDbSpline
 70
8
 71
3
 72
8
 73
4
 74
0
 40
0
 40
0
 40
0
 40
0
 40
1
 40
1
 40
1
 40
1
 10
48.311452
 20
-45.051513
 30
0.0
 10
48.082043
 20
-45.051513
 30
0.0
 10
47.888022
 20
-45.018919
 30
0.0
 10
47.729230
 20
-44.953582
 30
0.0
  0
SPLINE
  5
175
100
AcDbEntity
  8
0
 62
7
100
AcDbSpline
 70
8
 71
3
 72
8
 73
4
 74
0
 40
0
 40
0
 40
0
 40
0
 40
1
 40
1
 40
1
 40
1
 10
47.729230
 20
-44.953582
 30
0.0
 10
47.570438
 20
-44.888338
 30
0.0
 10
47.440765
 20
-44.798357
 30
0.0
 10
47.340200
 20
-44.683641
 30
0.0
  0
SPLINE
  5
176
100
AcDbEntity
  8
0
 62
7
100
AcDbSpline
 70
8
 71
3
 72
8
 73
4
 74
0
 40
0
 40
0
 40
0
 40
0
 40
1
 40
1
 40
1
 40
1
 10
47.340200
 20
-44.683641
 30
0.0
 10
47.239635
 20
-44.569016
 30
0.0
 10
47.166360
 20
-44.433142
 30
0.0
 10
47.120535
 20
-44.276099
 30
0.0
  0
SPLINE
  5
177
100
AcDbEntity
  8
0
 62
7
100
AcDbSpline
 70
8
 71
3
 72
8
 73
4
 74
0
 40
0
 40
0
 40
0
 40
0
 40
1
 40
1
 40
1
 40
1
 10
47.120535
 20
-44.276099
 30
0.0
 10
47.074642
 20
-44.119125
 30
0.0
 10
47.051735
 20
-43.950577
 30
0.0
 10
47.051735
 20
-43.770615
 30
0.0
  0
SPLINE
  5
178
100
AcDbEntity
  8
0
 62
7
100
AcDbSpline
 70
8
 71
3
 72
8
 73
4
 74
0
 40
0
 40
0
 40
0
 40
0
 40
1
 40
1
 40
1
 40
1
 10
47.051735
 20
-43.770615
 30
0.0
 10
47.051735
 20
-43.580070
 30
0.0
 10
47.072905
 20
-43.384231
 30
0.0
 10
47.115243
 20
-43.183101
 30
0.0
  0
LWPOLYLINE
  5
179
100
AcDbEntity
  8
0
 62
7
100
AcDbPolyline
 90
9
 70
1
 10
44.759859
 20
-42.023926
 30
0.0
 10
43.685395
 20
-42.023926
 30
0.0
 10
43.844187
 20
-41.261731
 30
0.0
 10
46.855874
 20
-41.261731
 30
0.0
 10
46.697082
 20
-42.023926
 30
0.0
 10
45.627911
 20
-42.023926
 30
0.0
 10
44.987462
 20
-45.019736
 30
0.0
 10
44.119410
 20
-45.019736
 30
0.0
 10
44.759859
 20
-42.023926
 30
0.0
  0
SPLINE
  5
17a
100
AcDbEntity
  8
0
 62
7
100
AcDbSpline
 70
8
 71
3
 72
8
 73
4
 74
0
 40
0
 40
0
 40
0
 40
0
 40
1
 40
1
 40
1
 40
1
 10
47.983295
 20
-43.183101
 30
0.0
 10
47.951530
 20
-43.338418
 30
0.0
 10
47.935653
 20
-43.481322
 30
0.0
 10
47.935653
 20
-43.611823
 30
0.0
  0
SPLINE
  5
17b
100
AcDbEntity
  8
0
 62
7
100
AcDbSpline
 70
8
 71
3
 72
8
 73
4
 74
0
 40
0
 40
0
 40
0
 40
0
 40
1
 40
1
 40
1
 40
1
 10
47.935653
 20
-43.611823
 30
0.0
 10
47.935653
 20
-43.707108
 30
0.0
 10
47.945329
 20
-43.795340
 30
0.0
 10
47.964772
 20
-43.876473
 30
0.0
  0
SPLINE
  5
17c
100
AcDbEntity
  8
0
 62
7
100
AcDbSpline
 70
8
 71
3
 72
8
 73
4
 74
0
 40
0
 40
0
 40
0
 40
0
 40
1
 40
1
 40
1
 40
1
 10
47.964772
 20
-43.876473
 30
0.0
 10
47.984112
 20
-43.957687
 30
0.0
 10
48.015049
 20
-44.028235
 30
0.0
 10
48.057387
 20
-44.088199
 30
0.0
  0
SPLINE
  5
17d
100
AcDbEntity
  8
0
 62
7
100
AcDbSpline
 70
8
 71
3
 72
8
 73
4
 74
0
 40
0
 40
0
 40
0
 40
0
 40
1
 40
1
 40
1
 40
1
 10
48.057387
 20
-44.088199
 30
0.0
 10
48.099737
 20
-44.148232
 30
0.0
 10
48.155318
 20
-44.194966
 30
0.0
 10
48.224118
 20
-44.228457
 30
0.0
  0
SPLINE
  5
17e
100
AcDbEntity
  8
0
 62
7
100
AcDbSpline
 70
8
 71
3
 72
8
 73
4
 74
0
 40
0
 40
0
 40
0
 40
0
 40
1
 40
1
 40
1
 40
1
 10
48.224118
 20
-44.228457
 30
0.0
 10
48.292929
 20
-44.262028
 30
0.0
 10
48.376709
 20
-44.278734
 30
0.0
 10
48.475537
 20
-44.278734
 30
0.0
  0
SPLINE
  5
17f
100
AcDbEntity
  8
0
 62
7
100
AcDbSpline
 70
8
 71
3
 72
8
 73
4
 74
0
 40
0
 40
0
 40
0
 40
0
 40
1
 40
1
 40
1
 40
1
 10
48.475537
 20
-44.278734
 30
0.0
 10
48.609604
 20
-44.278734
 30
0.0
 10
48.729602
 20
-44.247889
 30
0.0
 10
48.835459
 20
-44.186107
 30
0.0
  0
SPLINE
  5
180
100
AcDbEntity
  8
0
 62
7
100
AcDbSpline
 70
8
 71
3
 72
8
 73
4
 74
0
 40
0
 40
0
 40
0
 40
0
 40
1
 40
1
 40
1
 40
1
 10
48.835459
 20
-44.186107
 30
0.0
 10
48.941328
 20
-44.124417
 30
0.0
 10
49.033034
 20
-44.042375
 30
0.0
 10
49.110693
 20
-43.939992
 30
0.0
  0
SPLINE
  5
181
100
AcDbEntity
  8
0
 62
7
100
AcDbSpline
 70
8
 71
3
 72
8
 73
4
 74
0
 40
0
 40
0
 40
0
 40
0
 40
1
 40
1
 40
1
 40
1
 10
49.110693
 20
-43.939992
 30
0.0
 10
49.188260
 20
-43.837689
 30
0.0
 10
49.253597
 20
-43.720327
 30
0.0
 10
49.306531
 20
-43.588008
 30
0.0
  0
SPLINE
  5
182
100
AcDbEntity
  8
0
 62
7
100
AcDbSpline
 70
8
 71
3
 72
8
 73
4
 74
0
 40
0
 40
0
 40
0
 40
0
 40
1
 40
1
 40
1
 40
1
 10
49.306531
 20
-43.588008
 30
0.0
 10
49.359454
 20
-43.455689
 30
0.0
 10
49.401804
 20
-43.320724
 30
0.0
 10
49.433569
 20
-43.183101
 30
0.0
  0
LWPOLYLINE
  5
183
100
AcDbEntity
  8
0
 62
7
100
AcDbPolyline
 90
4
 70
0
 10
47.115243
 20
-43.183101
 30
0.0
 10
47.528100
 20
-41.261754
 30
0.0
 10
48.396141
 20
-41.261754
 30
0.0
 10
47.983295
 20
-43.183101
 30
0.0
  0
SPLINE
  5
184
100
AcDbEntity
  8
0
 62
7
100
AcDbSpline
 70
8
 71
3
 72
8
 73
4
 74
0
 40
0
 40
0
 40
0
 40
0
 40
1
 40
1
 40
1
 40
1
 10
50.301610
 20
-43.183101
 30
0.0
 10
50.245121
 20
-43.444276
 30
0.0
 10
50.161353
 20
-43.687745
 30
0.0
 10
50.050191
 20
-43.913530
 30
0.0
  0
SPLINE
  5
185
100
AcDbEntity
  8
0
 62
7
100
AcDbSpline
 70
8
 71
3
 72
8
 73
4
 74
0
 40
0
 40
0
 40
0
 40
0
 40
1
 40
1
 40
1
 40
1
 10
50.050191
 20
-43.913530
 30
0.0
 10
49.939042
 20
-44.139385
 30
0.0
 10
49.800510
 20
-44.336960
 30
0.0
 10
49.634688
 20
-44.506337
 30
0.0
  0
SPLINE
  5
186
100
AcDbEntity
  8
0
 62
7
100
AcDbSpline
 70
8
 71
3
 72
8
 73
4
 74
0
 40
0
 40
0
 40
0
 40
0
 40
1
 40
1
 40
1
 40
1
 10
49.634688
 20
-44.506337
 30
0.0
 10
49.468786
 20
-44.675714
 30
0.0
 10
49.275594
 20
-44.808942
 30
0.0
 10
49.055113
 20
-44.905952
 30
0.0
  0
SPLINE
  5
187
100
AcDbEntity
  8
0
 62
7
100
AcDbSpline
 70
8
 71
3
 72
8
 73
4
 74
0
 40
0
 40
0
 40
0
 40
0
 40
1
 40
1
 40
1
 40
1
 10
49.055113
 20
-44.905952
 30
0.0
 10
48.834550
 20
-45.003042
 30
0.0
 10
48.586686
 20
-45.051513
 30
0.0
 10
48.311452
 20
-45.051513
 30
0.0
  0
SPLINE
  5
188
100
AcDbEntity
  8
0
 62
7
100
AcDbSpline
 70
8
 71
3
 72
8
 73
4
 74
0
 40
0
 40
0
 40
0
 40
0
 40
1
 40
1
 40
1
 40
1
 10
52.371107
 20
-44.257599
 30
0.0
 10
52.547513
 20
-44.257599
 30
0.0
 10
52.708042
 20
-44.219725
 30
0.0
 10
52.852763
 20
-44.143792
 30
0.0
  0
SPLINE
  5
189
100
AcDbEntity
  8
0
 62
7
100
AcDbSpline
 70
8
 71
3
 72
8
 73
4
 74
0
 40
0
 40
0
 40
0
 40
0
 40
1
 40
1
 40
1
 40
1
 10
52.852763
 20
-44.143792
 30
0.0
 10
52.997416
 20
-44.067962
 30
0.0
 10
53.121796
 20
-43.964751
 30
0.0
 10
53.225917
 20
-43.834157
 30
0.0
  0
SPLINE
  5
18a
100
AcDbEntity
  8
0
 62
7
100
AcDbSpline
 70
8
 71
3
 72
8
 73
4
 74
0
 40
0
 40
0
 40
0
 40
0
 40
1
 40
1
 40
1
 40
1
 10
53.225917
 20
-43.834157
 30
0.0
 10
53.329968
 20
-43.703668
 30
0.0
 10
53.410261
 20
-43.553631
 30
0.0
 10
53.466739
 20
-43.384266
 30
0.0
  0
SPLINE
  5
18b
100
AcDbEntity
  8
0
 62
7
100
AcDbSpline
 70
8
 71
3
 72
8
 73
4
 74
0
 40
0
 40
0
 40
0
 40
0
 40
1
 40
1
 40
1
 40
1
 10
53.466739
 20
-43.384266
 30
0.0
 10
53.523160
 20
-43.214889
 30
0.0
 10
53.551439
 20
-43.036746
 30
0.0
 10
53.551439
 20
-42.849675
 30
0.0
  0
SPLINE
  5
18c
100
AcDbEntity
  8
0
 62
7
100
AcDbSpline
 70
8
 71
3
 72
8
 73
4
 74
0
 40
0
 40
0
 40
0
 40
0
 40
1
 40
1
 40
1
 40
1
 10
53.551439
 20
-42.849675
 30
0.0
 10
53.551439
 20
-42.602720
 30
0.0
 10
53.492303
 20
-42.403327
 30
0.0
 10
53.374124
 20
-42.251576
 30
0.0
  0
SPLINE
  5
18d
100
AcDbEntity
  8
0
 62
7
100
AcDbSpline
 70
8
 71
3
 72
8
 73
4
 74
0
 40
0
 40
0
 40
0
 40
0
 40
1
 40
1
 40
1
 40
1
 10
53.374124
 20
-42.251576
 30
0.0
 10
53.255853
 20
-42.099894
 30
0.0
 10
53.080355
 20
-42.023972
 30
0.0
 10
52.847471
 20
-42.023972
 30
0.0
  0
LWPOLYLINE
  5
18e
100
AcDbEntity
  8
0
 62
7
100
AcDbPolyline
 90
4
 70
0
 10
49.433569
 20
-43.183101
 30
0.0
 10
49.841123
 20
-41.261754
 30
0.0
 10
50.709163
 20
-41.261754
 30
0.0
 10
50.301610
 20
-43.183101
 30
0.0
  0
LWPOLYLINE
  5
18f
100
AcDbEntity
  8
0
 62
7
100
AcDbPolyline
 90
5
 70
0
 10
52.847471
 20
-42.023972
 30
0.0
 10
52.371107
 20
-42.023972
 30
0.0
 10
51.894742
 20
-44.257599
 30
0.0
 10
52.371107
 20
-44.257599
 30
0.0
 10
52.371107
 20
-44.257599
 30
0.0
  0
SPLINE
  5
190
100
AcDbEntity
  8
0
 62
7
100
AcDbSpline
 70
8
 71
3
 72
8
 73
4
 74
0
 40
0
 40
0
 40
0
 40
0
 40
1
 40
1
 40
1
 40
1
 10
53.011555
 20
-41.261778
 30
0.0
 10
53.255036
 20
-41.261778
 30
0.0
 10
53.467579
 20
-41.299744
 30
0.0
 10
53.649358
 20
-41.375585
 30
0.0
  0
SPLINE
  5
191
100
AcDbEntity
  8
0
 62
7
100
AcDbSpline
 70
8
 71
3
 72
8
 73
4
 74
0
 40
0
 40
0
 40
0
 40
0
 40
1
 40
1
 40
1
 40
1
 10
53.649358
 20
-41.375585
 30
0.0
 10
53.831045
 20
-41.451506
 30
0.0
 10
53.981001
 20
-41.554718
 30
0.0
 10
54.099261
 20
-41.685219
 30
0.0
  0
SPLINE
  5
192
100
AcDbEntity
  8
0
 62
7
100
AcDbSpline
 70
8
 71
3
 72
8
 73
4
 74
0
 40
0
 40
0
 40
0
 40
0
 40
1
 40
1
 40
1
 40
1
 10
54.099261
 20
-41.685219
 30
0.0
 10
54.217429
 20
-41.815812
 30
0.0
 10
54.305672
 20
-41.970221
 30
0.0
 10
54.363911
 20
-42.148353
 30
0.0
  0
SPLINE
  5
193
100
AcDbEntity
  8
0
 62
7
100
AcDbSpline
 70
8
 71
3
 72
8
 73
4
 74
0
 40
0
 40
0
 40
0
 40
0
 40
1
 40
1
 40
1
 40
1
 10
54.363911
 20
-42.148353
 30
0.0
 10
54.422126
 20
-42.326577
 30
0.0
 10
54.451245
 20
-42.518043
 30
0.0
 10
54.451245
 20
-42.722648
 30
0.0
  0
SPLINE
  5
194
100
AcDbEntity
  8
0
 62
7
100
AcDbSpline
 70
8
 71
3
 72
8
 73
4
 74
0
 40
0
 40
0
 40
0
 40
0
 40
1
 40
1
 40
1
 40
1
 10
54.451245
 20
-42.722648
 30
0.0
 10
54.451245
 20
-43.054360
 30
0.0
 10
54.394756
 20
-43.360451
 30
0.0
 10
54.281869
 20
-43.640965
 30
0.0
  0
SPLINE
  5
195
100
AcDbEntity
  8
0
 62
7
100
AcDbSpline
 70
8
 71
3
 72
8
 73
4
 74
0
 40
0
 40
0
 40
0
 40
0
 40
1
 40
1
 40
1
 40
1
 10
54.281869
 20
-43.640965
 30
0.0
 10
54.168901
 20
-43.921492
 30
0.0
 10
54.011927
 20
-44.164144
 30
0.0
 10
53.810796
 20
-44.368749
 30
0.0
  0
SPLINE
  5
196
100
AcDbEntity
  8
0
 62
7
100
AcDbSpline
 70
8
 71
3
 72
8
 73
4
 74
0
 40
0
 40
0
 40
0
 40
0
 40
1
 40
1
 40
1
 40
1
 10
53.810796
 20
-44.368749
 30
0.0
 10
53.609654
 20
-44.573434
 30
0.0
 10
53.372295
 20
-44.733135
 30
0.0
 10
53.098890
 20
-44.847759
 30
0.0
  0
SPLINE
  5
197
100
AcDbEntity
  8
0
 62
7
100
AcDbSpline
 70
8
 71
3
 72
8
 73
4
 74
0
 40
0
 40
0
 40
0
 40
0
 40
1
 40
1
 40
1
 40
1
 10
53.098890
 20
-44.847759
 30
0.0
 10
52.825393
 20
-44.962476
 30
0.0
 10
52.529899
 20
-45.019782
 30
0.0
 10
52.212315
 20
-45.019782
 30
0.0
  0
LWPOLYLINE
  5
198
100
AcDbEntity
  8
0
 62
7
100
AcDbPolyline
 90
2
 70
0
 10
51.667139
 20
-41.261778
 30
0.0
 10
53.011555
 20
-41.261778
 30
0.0
  0
LWPOLYLINE
  5
199
100
AcDbEntity
  8
0
 62
7
100
AcDbPolyline
 90
4
 70
0
 10
52.212315
 20
-45.019782
 30
0.0
 10
50.867921
 20
-45.019782
 30
0.0
 10
51.667139
 20
-41.261778
 30
0.0
 10
51.667139
 20
-41.261778
 30
0.0
  0
LWPOLYLINE
  5
19a
100
AcDbEntity
  8
0
 62
7
100
AcDbPolyline
 90
13
 70
1
 10
55.626216
 20
-41.261743
 30
0.0
 10
58.098031
 20
-41.261743
 30
0.0
 10
57.933947
 20
-42.023938
 30
0.0
 10
56.330184
 20
-42.023938
 30
0.0
 10
56.176684
 20
-42.754356
 30
0.0
 10
57.552855
 20
-42.754356
 30
0.0
 10
57.404648
 20
-43.458324
 30
0.0
 10
56.028489
 20
-43.458324
 30
0.0
 10
55.853808
 20
-44.257564
 30
0.0
 10
57.505213
 20
-44.257564
 30
0.0
 10
57.346432
 20
-45.019748
 30
0.0
 10
54.826975
 20
-45.019748
 30
0.0
 10
55.626216
 20
-41.261743
 30
0.0
  0
LWPOLYLINE
  5
19b
100
AcDbEntity
  8
0
 62
7
100
AcDbPolyline
 90
11
 70
1
 10
58.966003
 20
-41.261743
 30
0.0
 10
59.643509
 20
-41.261743
 30
0.0
 10
60.770907
 20
-43.468908
 30
0.0
 10
61.236676
 20
-41.261743
 30
0.0
 10
62.104716
 20
-41.261743
 30
0.0
 10
61.305487
 20
-45.019748
 30
0.0
 10
60.617407
 20
-45.019748
 30
0.0
 10
59.490009
 20
-42.870798
 30
0.0
 10
59.034803
 20
-45.019748
 30
0.0
 10
58.166762
 20
-45.019748
 30
0.0
 10
58.966003
 20
-41.261743
 30
0.0
  0
SPLINE
  5
19c
100
AcDbEntity
  8
0
 62
7
100
AcDbSpline
 70
8
 71
3
 72
8
 73
4
 74
0
 40
0
 40
0
 40
0
 40
0
 40
1
 40
1
 40
1
 40
1
 10
30.675553
 20
-50.524557
 30
0.0
 10
30.410903
 20
-50.524557
 30
0.0
 10
30.151546
 20
-50.483955
 30
0.0
 10
29.897493
 20
-50.402822
 30
0.0
  0
SPLINE
  5
19d
100
AcDbEntity
  8
0
 62
7
100
AcDbSpline
 70
8
 71
3
 72
8
 73
4
 74
0
 40
0
 40
0
 40
0
 40
0
 40
1
 40
1
 40
1
 40
1
 10
29.897493
 20
-50.402822
 30
0.0
 10
29.643428
 20
-50.321677
 30
0.0
 10
29.424603
 20
-50.206973
 30
0.0
 10
29.241167
 20
-50.058777
 30
0.0
  0
LWPOLYLINE
  5
19e
100
AcDbEntity
  8
0
 62
7
100
AcDbPolyline
 90
9
 70
1
 10
63.740118
 20
-42.023926
 30
0.0
 10
62.665643
 20
-42.023926
 30
0.0
 10
62.824435
 20
-41.261731
 30
0.0
 10
65.836121
 20
-41.261731
 30
0.0
 10
65.677341
 20
-42.023926
 30
0.0
 10
64.608158
 20
-42.023926
 30
0.0
 10
63.967709
 20
-45.019736
 30
0.0
 10
63.099669
 20
-45.019736
 30
0.0
 10
63.740118
 20
-42.023926
 30
0.0
  0
SPLINE
  5
19f
100
AcDbEntity
  8
0
 62
7
100
AcDbSpline
 70
8
 71
3
 72
8
 73
4
 74
0
 40
0
 40
0
 40
0
 40
0
 40
1
 40
1
 40
1
 40
1
 10
29.781039
 20
-49.301886
 30
0.0
 10
29.788069
 20
-49.319580
 30
0.0
 10
29.822480
 20
-49.353083
 30
0.0
 10
29.884262
 20
-49.402451
 30
0.0
  0
SPLINE
  5
1a0
100
AcDbEntity
  8
0
 62
7
100
AcDbSpline
 70
8
 71
3
 72
8
 73
4
 74
0
 40
0
 40
0
 40
0
 40
0
 40
1
 40
1
 40
1
 40
1
 10
29.884262
 20
-49.402451
 30
0.0
 10
29.945952
 20
-49.451911
 30
0.0
 10
30.025348
 20
-49.501279
 30
0.0
 10
30.122438
 20
-49.550658
 30
0.0
  0
SPLINE
  5
1a1
100
AcDbEntity
  8
0
 62
7
100
AcDbSpline
 70
8
 71
3
 72
8
 73
4
 74
0
 40
0
 40
0
 40
0
 40
0
 40
1
 40
1
 40
1
 40
1
 10
30.122438
 20
-49.550658
 30
0.0
 10
30.219449
 20
-49.600107
 30
0.0
 10
30.331507
 20
-49.644194
 30
0.0
 10
30.458546
 20
-49.682977
 30
0.0
  0
SPLINE
  5
1a2
100
AcDbEntity
  8
0
 62
7
100
AcDbSpline
 70
8
 71
3
 72
8
 73
4
 74
0
 40
0
 40
0
 40
0
 40
0
 40
1
 40
1
 40
1
 40
1
 10
30.458546
 20
-49.682977
 30
0.0
 10
30.585572
 20
-49.721853
 30
0.0
 10
30.717891
 20
-49.741193
 30
0.0
 10
30.855514
 20
-49.741193
 30
0.0
  0
SPLINE
  5
1a3
100
AcDbEntity
  8
0
 62
7
100
AcDbSpline
 70
8
 71
3
 72
8
 73
4
 74
0
 40
0
 40
0
 40
0
 40
0
 40
1
 40
1
 40
1
 40
1
 10
30.855514
 20
-49.741193
 30
0.0
 10
31.024891
 20
-49.741193
 30
0.0
 10
31.144807
 20
-49.710348
 30
0.0
 10
31.215436
 20
-49.648566
 30
0.0
  0
SPLINE
  5
1a4
100
AcDbEntity
  8
0
 62
7
100
AcDbSpline
 70
8
 71
3
 72
8
 73
4
 74
0
 40
0
 40
0
 40
0
 40
0
 40
1
 40
1
 40
1
 40
1
 10
31.215436
 20
-49.648566
 30
0.0
 10
31.285974
 20
-49.586876
 30
0.0
 10
31.321294
 20
-49.506571
 30
0.0
 10
31.321294
 20
-49.407743
 30
0.0
  0
SPLINE
  5
1a5
100
AcDbEntity
  8
0
 62
7
100
AcDbSpline
 70
8
 71
3
 72
8
 73
4
 74
0
 40
0
 40
0
 40
0
 40
0
 40
1
 40
1
 40
1
 40
1
 10
31.321294
 20
-49.407743
 30
0.0
 10
31.321294
 20
-49.347779
 30
0.0
 10
31.301862
 20
-49.297502
 30
0.0
 10
31.263067
 20
-49.256890
 30
0.0
  0
SPLINE
  5
1a6
100
AcDbEntity
  8
0
 62
7
100
AcDbSpline
 70
8
 71
3
 72
8
 73
4
 74
0
 40
0
 40
0
 40
0
 40
0
 40
1
 40
1
 40
1
 40
1
 10
31.263067
 20
-49.256890
 30
0.0
 10
31.224203
 20
-49.216369
 30
0.0
 10
31.170440
 20
-49.179311
 30
0.0
 10
31.101641
 20
-49.145740
 30
0.0
  0
SPLINE
  5
1a7
100
AcDbEntity
  8
0
 62
7
100
AcDbSpline
 70
8
 71
3
 72
8
 73
4
 74
0
 40
0
 40
0
 40
0
 40
0
 40
1
 40
1
 40
1
 40
1
 10
31.101641
 20
-49.145740
 30
0.0
 10
31.032829
 20
-49.112249
 30
0.0
 10
30.953433
 20
-49.080483
 30
0.0
 10
30.863453
 20
-49.050467
 30
0.0
  0
SPLINE
  5
1a8
100
AcDbEntity
  8
0
 62
7
100
AcDbSpline
 70
8
 71
3
 72
8
 73
4
 74
0
 40
0
 40
0
 40
0
 40
0
 40
1
 40
1
 40
1
 40
1
 10
30.863453
 20
-49.050467
 30
0.0
 10
30.773472
 20
-49.020519
 30
0.0
 10
30.677290
 20
-48.987868
 30
0.0
 10
30.574988
 20
-48.952548
 30
0.0
  0
SPLINE
  5
1a9
100
AcDbEntity
  8
0
 62
7
100
AcDbSpline
 70
8
 71
3
 72
8
 73
4
 74
0
 40
0
 40
0
 40
0
 40
0
 40
1
 40
1
 40
1
 40
1
 10
30.574988
 20
-48.952548
 30
0.0
 10
30.320923
 20
-48.860830
 30
0.0
 10
30.131205
 20
-48.753235
 30
0.0
 10
30.005996
 20
-48.629683
 30
0.0
  0
SPLINE
  5
1aa
100
AcDbEntity
  8
0
 62
7
100
AcDbSpline
 70
8
 71
3
 72
8
 73
4
 74
0
 40
0
 40
0
 40
0
 40
0
 40
1
 40
1
 40
1
 40
1
 10
30.005996
 20
-48.629683
 30
0.0
 10
29.880695
 20
-48.506200
 30
0.0
 10
29.818097
 20
-48.340378
 30
0.0
 10
29.818097
 20
-48.132149
 30
0.0
  0
SPLINE
  5
1ab
100
AcDbEntity
  8
0
 62
7
100
AcDbSpline
 70
8
 71
3
 72
8
 73
4
 74
0
 40
0
 40
0
 40
0
 40
0
 40
1
 40
1
 40
1
 40
1
 10
29.818097
 20
-48.132149
 30
0.0
 10
29.818097
 20
-47.906364
 30
0.0
 10
29.863910
 20
-47.703415
 30
0.0
 10
29.955708
 20
-47.523443
 30
0.0
  0
SPLINE
  5
1ac
100
AcDbEntity
  8
0
 62
7
100
AcDbSpline
 70
8
 71
3
 72
8
 73
4
 74
0
 40
0
 40
0
 40
0
 40
0
 40
1
 40
1
 40
1
 40
1
 10
29.955708
 20
-47.523443
 30
0.0
 10
30.047426
 20
-47.343493
 30
0.0
 10
30.168251
 20
-47.192651
 30
0.0
 10
30.318277
 20
-47.070905
 30
0.0
  0
SPLINE
  5
1ad
100
AcDbEntity
  8
0
 62
7
100
AcDbSpline
 70
8
 71
3
 72
8
 73
4
 74
0
 40
0
 40
0
 40
0
 40
0
 40
1
 40
1
 40
1
 40
1
 10
30.318277
 20
-47.070905
 30
0.0
 10
30.468221
 20
-46.949159
 30
0.0
 10
30.640244
 20
-46.855704
 30
0.0
 10
30.834345
 20
-46.790379
 30
0.0
  0
SPLINE
  5
1ae
100
AcDbEntity
  8
0
 62
7
100
AcDbSpline
 70
8
 71
3
 72
8
 73
4
 74
0
 40
0
 40
0
 40
0
 40
0
 40
1
 40
1
 40
1
 40
1
 10
30.834345
 20
-46.790379
 30
0.0
 10
31.028365
 20
-46.725122
 30
0.0
 10
31.227758
 20
-46.692460
 30
0.0
 10
31.432444
 20
-46.692460
 30
0.0
  0
SPLINE
  5
1af
100
AcDbEntity
  8
0
 62
7
100
AcDbSpline
 70
8
 71
3
 72
8
 73
4
 74
0
 40
0
 40
0
 40
0
 40
0
 40
1
 40
1
 40
1
 40
1
 10
31.432444
 20
-46.692460
 30
0.0
 10
31.559471
 20
-46.692460
 30
0.0
 10
31.681216
 20
-46.704862
 30
0.0
 10
31.797659
 20
-46.729517
 30
0.0
  0
SPLINE
  5
1b0
100
AcDbEntity
  8
0
 62
7
100
AcDbSpline
 70
8
 71
3
 72
8
 73
4
 74
0
 40
0
 40
0
 40
0
 40
0
 40
1
 40
1
 40
1
 40
1
 10
31.797659
 20
-46.729517
 30
0.0
 10
31.914101
 20
-46.754241
 30
0.0
 10
32.023433
 20
-46.785995
 30
0.0
 10
32.125816
 20
-46.824779
 30
0.0
  0
SPLINE
  5
1b1
100
AcDbEntity
  8
0
 62
7
100
AcDbSpline
 70
8
 71
3
 72
8
 73
4
 74
0
 40
0
 40
0
 40
0
 40
0
 40
1
 40
1
 40
1
 40
1
 10
32.125816
 20
-46.824779
 30
0.0
 10
32.228118
 20
-46.863654
 30
0.0
 10
32.322482
 20
-46.907730
 30
0.0
 10
32.408988
 20
-46.957109
 30
0.0
  0
SPLINE
  5
1b2
100
AcDbEntity
  8
0
 62
7
100
AcDbSpline
 70
8
 71
3
 72
8
 73
4
 74
0
 40
0
 40
0
 40
0
 40
0
 40
1
 40
1
 40
1
 40
1
 10
32.408988
 20
-46.957109
 30
0.0
 10
32.495414
 20
-47.006569
 30
0.0
 10
32.573901
 20
-47.055937
 30
0.0
 10
32.644530
 20
-47.105317
 30
0.0
  0
LWPOLYLINE
  5
1b3
100
AcDbEntity
  8
0
 62
7
100
AcDbPolyline
 90
2
 70
0
 10
29.241167
 20
-50.058777
 30
0.0
 10
29.781039
 20
-49.301886
 30
0.0
  0
SPLINE
  5
1b4
100
AcDbEntity
  8
0
 62
7
100
AcDbSpline
 70
8
 71
3
 72
8
 73
4
 74
0
 40
0
 40
0
 40
0
 40
0
 40
1
 40
1
 40
1
 40
1
 10
32.115231
 20
-47.825150
 30
0.0
 10
32.108121
 20
-47.811091
 30
0.0
 10
32.079013
 20
-47.784629
 30
0.0
 10
32.027897
 20
-47.745754
 30
0.0
  0
SPLINE
  5
1b5
100
AcDbEntity
  8
0
 62
7
100
AcDbSpline
 70
8
 71
3
 72
8
 73
4
 74
0
 40
0
 40
0
 40
0
 40
0
 40
1
 40
1
 40
1
 40
1
 10
32.027897
 20
-47.745754
 30
0.0
 10
31.976711
 20
-47.706971
 30
0.0
 10
31.910546
 20
-47.666358
 30
0.0
 10
31.829412
 20
-47.624019
 30
0.0
  0
SPLINE
  5
1b6
100
AcDbEntity
  8
0
 62
7
100
AcDbSpline
 70
8
 71
3
 72
8
 73
4
 74
0
 40
0
 40
0
 40
0
 40
0
 40
1
 40
1
 40
1
 40
1
 10
31.829412
 20
-47.624019
 30
0.0
 10
31.748199
 20
-47.581670
 30
0.0
 10
31.656481
 20
-47.544623
 30
0.0
 10
31.554178
 20
-47.512870
 30
0.0
  0
SPLINE
  5
1b7
100
AcDbEntity
  8
0
 62
7
100
AcDbSpline
 70
8
 71
3
 72
8
 73
4
 74
0
 40
0
 40
0
 40
0
 40
0
 40
1
 40
1
 40
1
 40
1
 10
31.554178
 20
-47.512870
 30
0.0
 10
31.451795
 20
-47.481116
 30
0.0
 10
31.347755
 20
-47.465227
 30
0.0
 10
31.241898
 20
-47.465227
 30
0.0
  0
SPLINE
  5
1b8
100
AcDbEntity
  8
0
 62
7
100
AcDbSpline
 70
8
 71
3
 72
8
 73
4
 74
0
 40
0
 40
0
 40
0
 40
0
 40
1
 40
1
 40
1
 40
1
 10
31.241898
 20
-47.465227
 30
0.0
 10
31.093691
 20
-47.465227
 30
0.0
 10
30.978077
 20
-47.497902
 30
0.0
 10
30.895206
 20
-47.563158
 30
0.0
  0
SPLINE
  5
1b9
100
AcDbEntity
  8
0
 62
7
100
AcDbSpline
 70
8
 71
3
 72
8
 73
4
 74
0
 40
0
 40
0
 40
0
 40
0
 40
1
 40
1
 40
1
 40
1
 10
30.895206
 20
-47.563158
 30
0.0
 10
30.812255
 20
-47.628483
 30
0.0
 10
30.770826
 20
-47.719292
 30
0.0
 10
30.770826
 20
-47.835735
 30
0.0
  0
SPLINE
  5
1ba
100
AcDbEntity
  8
0
 62
7
100
AcDbSpline
 70
8
 71
3
 72
8
 73
4
 74
0
 40
0
 40
0
 40
0
 40
0
 40
1
 40
1
 40
1
 40
1
 10
30.770826
 20
-47.835735
 30
0.0
 10
30.770826
 20
-47.938117
 30
0.0
 10
30.825486
 20
-48.014867
 30
0.0
 10
30.934899
 20
-48.065984
 30
0.0
  0
SPLINE
  5
1bb
100
AcDbEntity
  8
0
 62
7
100
AcDbSpline
 70
8
 71
3
 72
8
 73
4
 74
0
 40
0
 40
0
 40
0
 40
0
 40
1
 40
1
 40
1
 40
1
 10
30.934899
 20
-48.065984
 30
0.0
 10
31.044242
 20
-48.117170
 30
0.0
 10
31.199548
 20
-48.174476
 30
0.0
 10
31.400690
 20
-48.237995
 30
0.0
  0
SPLINE
  5
1bc
100
AcDbEntity
  8
0
 62
7
100
AcDbSpline
 70
8
 71
3
 72
8
 73
4
 74
0
 40
0
 40
0
 40
0
 40
0
 40
1
 40
1
 40
1
 40
1
 10
31.400690
 20
-48.237995
 30
0.0
 10
31.534746
 20
-48.280345
 30
0.0
 10
31.657390
 20
-48.327159
 30
0.0
 10
31.768539
 20
-48.378264
 30
0.0
  0
SPLINE
  5
1bd
100
AcDbEntity
  8
0
 62
7
100
AcDbSpline
 70
8
 71
3
 72
8
 73
4
 74
0
 40
0
 40
0
 40
0
 40
0
 40
1
 40
1
 40
1
 40
1
 10
31.768539
 20
-48.378264
 30
0.0
 10
31.879701
 20
-48.429450
 30
0.0
 10
31.974974
 20
-48.490334
 30
0.0
 10
32.054370
 20
-48.560860
 30
0.0
  0
SPLINE
  5
1be
100
AcDbEntity
  8
0
 62
7
100
AcDbSpline
 70
8
 71
3
 72
8
 73
4
 74
0
 40
0
 40
0
 40
0
 40
0
 40
1
 40
1
 40
1
 40
1
 10
32.054370
 20
-48.560860
 30
0.0
 10
32.133766
 20
-48.631501
 30
0.0
 10
32.194627
 20
-48.714360
 30
0.0
 10
32.236977
 20
-48.809633
 30
0.0
  0
SPLINE
  5
1bf
100
AcDbEntity
  8
0
 62
7
100
AcDbSpline
 70
8
 71
3
 72
8
 73
4
 74
0
 40
0
 40
0
 40
0
 40
0
 40
1
 40
1
 40
1
 40
1
 10
32.236977
 20
-48.809633
 30
0.0
 10
32.279315
 20
-48.904917
 30
0.0
 10
32.300485
 20
-49.017885
 30
0.0
 10
32.300485
 20
-49.148386
 30
0.0
  0
SPLINE
  5
1c0
100
AcDbEntity
  8
0
 62
7
100
AcDbSpline
 70
8
 71
3
 72
8
 73
4
 74
0
 40
0
 40
0
 40
0
 40
0
 40
1
 40
1
 40
1
 40
1
 10
32.300485
 20
-49.148386
 30
0.0
 10
32.300485
 20
-49.398976
 30
0.0
 10
32.252854
 20
-49.611520
 30
0.0
 10
32.157581
 20
-49.786189
 30
0.0
  0
SPLINE
  5
1c1
100
AcDbEntity
  8
0
 62
7
100
AcDbSpline
 70
8
 71
3
 72
8
 73
4
 74
0
 40
0
 40
0
 40
0
 40
0
 40
1
 40
1
 40
1
 40
1
 10
32.157581
 20
-49.786189
 30
0.0
 10
32.062308
 20
-49.960858
 30
0.0
 10
31.937019
 20
-50.102944
 30
0.0
 10
31.781782
 20
-50.212265
 30
0.0
  0
SPLINE
  5
1c2
100
AcDbEntity
  8
0
 62
7
100
AcDbSpline
 70
8
 71
3
 72
8
 73
4
 74
0
 40
0
 40
0
 40
0
 40
0
 40
1
 40
1
 40
1
 40
1
 10
31.781782
 20
-50.212265
 30
0.0
 10
31.626464
 20
-50.321677
 30
0.0
 10
31.451795
 20
-50.401085
 30
0.0
 10
31.257775
 20
-50.450453
 30
0.0
  0
SPLINE
  5
1c3
100
AcDbEntity
  8
0
 62
7
100
AcDbSpline
 70
8
 71
3
 72
8
 73
4
 74
0
 40
0
 40
0
 40
0
 40
0
 40
1
 40
1
 40
1
 40
1
 10
31.257775
 20
-50.450453
 30
0.0
 10
31.063674
 20
-50.499832
 30
0.0
 10
30.869573
 20
-50.524557
 30
0.0
 10
30.675553
 20
-50.524557
 30
0.0
  0
LWPOLYLINE
  5
1c4
100
AcDbEntity
  8
0
 62
7
100
AcDbPolyline
 90
2
 70
0
 10
32.644530
 20
-47.105317
 30
0.0
 10
32.115231
 20
-47.825150
 30
0.0
  0
LWPOLYLINE
  5
1c5
100
AcDbEntity
  8
0
 62
7
100
AcDbPolyline
 90
19
 70
1
 10
33.136702
 20
-46.724202
 30
0.0
 10
34.078847
 20
-46.724202
 30
0.0
 10
34.354081
 20
-49.487128
 30
0.0
 10
34.893965
 20
-48.476172
 30
0.0
 10
34.682238
 20
-46.729506
 30
0.0
 10
35.476187
 20
-46.729506
 30
0.0
 10
35.571460
 20
-47.931007
 30
0.0
 10
36.174851
 20
-46.729506
 30
0.0
 10
36.974092
 20
-46.729506
 30
0.0
 10
36.005486
 20
-48.476172
 30
0.0
 10
36.127220
 20
-49.487128
 30
0.0
 10
37.572191
 20
-46.724202
 30
0.0
 10
38.524920
 20
-46.724202
 30
0.0
 10
36.301889
 20
-50.482207
 30
0.0
 10
35.582044
 20
-50.482207
 30
0.0
 10
35.338564
 20
-49.010763
 30
0.0
 10
34.481108
 20
-50.482207
 30
0.0
 10
33.755982
 20
-50.482207
 30
0.0
 10
33.136702
 20
-46.724202
 30
0.0
  0
LWPOLYLINE
  5
1c6
100
AcDbEntity
  8
0
 62
7
100
AcDbPolyline
 90
5
 70
1
 10
39.149561
 20
-46.724202
 30
0.0
 10
40.017601
 20
-46.724202
 30
0.0
 10
39.218372
 20
-50.482207
 30
0.0
 10
38.350331
 20
-50.482207
 30
0.0
 10
39.149561
 20
-46.724202
 30
0.0
  0
LWPOLYLINE
  5
1c7
100
AcDbEntity
  8
0
 62
7
100
AcDbPolyline
 90
9
 70
1
 10
41.653049
 20
-47.486385
 30
0.0
 10
40.578585
 20
-47.486385
 30
0.0
 10
40.737377
 20
-46.724190
 30
0.0
 10
43.749064
 20
-46.724190
 30
0.0
 10
43.590272
 20
-47.486385
 30
0.0
 10
42.521101
 20
-47.486385
 30
0.0
 10
41.880652
 20
-50.482195
 30
0.0
 10
41.012600
 20
-50.482195
 30
0.0
 10
41.653049
 20
-47.486385
 30
0.0
  0
LWPOLYLINE
  5
1c8
100
AcDbEntity
  8
0
 62
7
100
AcDbPolyline
 90
11
 70
1
 10
43.600845
 20
-49.831104
 30
0.0
 10
45.903283
 20
-47.486328
 30
0.0
 10
44.172494
 20
-47.486328
 30
0.0
 10
44.331275
 20
-46.724133
 30
0.0
 10
47.073008
 20
-46.724133
 30
0.0
 10
46.930116
 20
-47.375178
 30
0.0
 10
44.712378
 20
-49.719954
 30
0.0
 10
46.453740
 20
-49.719954
 30
0.0
 10
46.294959
 20
-50.482138
 30
0.0
 10
43.463234
 20
-50.482138
 30
0.0
 10
43.600845
 20
-49.831104
 30
0.0
  0
SPLINE
  5
1c9
100
AcDbEntity
  8
0
 62
7
100
AcDbSpline
 70
8
 71
3
 72
8
 73
4
 74
0
 40
0
 40
0
 40
0
 40
0
 40
1
 40
1
 40
1
 40
1
 10
52.461076
 20
-48.513229
 30
0.0
 10
52.514010
 20
-48.513229
 30
0.0
 10
52.566933
 20
-48.496524
 30
0.0
 10
52.619868
 20
-48.462941
 30
0.0
  0
SPLINE
  5
1ca
100
AcDbEntity
  8
0
 62
7
100
AcDbSpline
 70
8
 71
3
 72
8
 73
4
 74
0
 40
0
 40
0
 40
0
 40
0
 40
1
 40
1
 40
1
 40
1
 10
52.619868
 20
-48.462941
 30
0.0
 10
52.672791
 20
-48.429450
 30
0.0
 10
52.720433
 20
-48.383557
 30
0.0
 10
52.762783
 20
-48.325330
 30
0.0
  0
SPLINE
  5
1cb
100
AcDbEntity
  8
0
 62
7
100
AcDbSpline
 70
8
 71
3
 72
8
 73
4
 74
0
 40
0
 40
0
 40
0
 40
0
 40
1
 40
1
 40
1
 40
1
 10
52.762783
 20
-48.325330
 30
0.0
 10
52.805121
 20
-48.267103
 30
0.0
 10
52.839533
 20
-48.199200
 30
0.0
 10
52.865983
 20
-48.121542
 30
0.0
  0
SPLINE
  5
1cc
100
AcDbEntity
  8
0
 62
7
100
AcDbSpline
 70
8
 71
3
 72
8
 73
4
 74
0
 40
0
 40
0
 40
0
 40
0
 40
1
 40
1
 40
1
 40
1
 10
52.865983
 20
-48.121542
 30
0.0
 10
52.892456
 20
-48.043975
 30
0.0
 10
52.905698
 20
-47.961024
 30
0.0
 10
52.905698
 20
-47.872781
 30
0.0
  0
SPLINE
  5
1cd
100
AcDbEntity
  8
0
 62
7
100
AcDbSpline
 70
8
 71
3
 72
8
 73
4
 74
0
 40
0
 40
0
 40
0
 40
0
 40
1
 40
1
 40
1
 40
1
 10
52.905698
 20
-47.872781
 30
0.0
 10
52.905698
 20
-47.756338
 30
0.0
 10
52.880962
 20
-47.662883
 30
0.0
 10
52.831583
 20
-47.592254
 30
0.0
  0
SPLINE
  5
1ce
100
AcDbEntity
  8
0
 62
7
100
AcDbSpline
 70
8
 71
3
 72
8
 73
4
 74
0
 40
0
 40
0
 40
0
 40
0
 40
1
 40
1
 40
1
 40
1
 10
52.831583
 20
-47.592254
 30
0.0
 10
52.782134
 20
-47.521706
 30
0.0
 10
52.722170
 20
-47.486397
 30
0.0
 10
52.651622
 20
-47.486397
 30
0.0
  0
LWPOLYLINE
  5
1cf
100
AcDbEntity
  8
0
 62
7
100
AcDbPolyline
 90
13
 70
1
 10
47.914530
 20
-46.724202
 30
0.0
 10
50.386345
 20
-46.724202
 30
0.0
 10
50.222260
 20
-47.486397
 30
0.0
 10
48.618498
 20
-47.486397
 30
0.0
 10
48.464998
 20
-48.216815
 30
0.0
 10
49.841169
 20
-48.216815
 30
0.0
 10
49.692961
 20
-48.920783
 30
0.0
 10
48.316802
 20
-48.920783
 30
0.0
 10
48.142122
 20
-49.720023
 30
0.0
 10
49.793526
 20
-49.720023
 30
0.0
 10
49.634746
 20
-50.482207
 30
0.0
 10
47.115289
 20
-50.482207
 30
0.0
 10
47.914530
 20
-46.724202
 30
0.0
  0
LWPOLYLINE
  5
1d0
100
AcDbEntity
  8
0
 62
7
100
AcDbPolyline
 90
5
 70
0
 10
52.651622
 20
-47.486397
 30
0.0
 10
51.958250
 20
-47.486397
 30
0.0
 10
51.741242
 20
-48.513229
 30
0.0
 10
52.461076
 20
-48.513229
 30
0.0
 10
52.461076
 20
-48.513229
 30
0.0
  0
SPLINE
  5
1d1
100
AcDbEntity
  8
0
 62
7
100
AcDbSpline
 70
8
 71
3
 72
8
 73
4
 74
0
 40
0
 40
0
 40
0
 40
0
 40
1
 40
1
 40
1
 40
1
 10
52.868640
 20
-46.724202
 30
0.0
 10
53.016848
 20
-46.724202
 30
0.0
 10
53.148258
 20
-46.754230
 30
0.0
 10
53.262963
 20
-46.814183
 30
0.0
  0
SPLINE
  5
1d2
100
AcDbEntity
  8
0
 62
7
100
AcDbSpline
 70
8
 71
3
 72
8
 73
4
 74
0
 40
0
 40
0
 40
0
 40
0
 40
1
 40
1
 40
1
 40
1
 10
53.262963
 20
-46.814183
 30
0.0
 10
53.377587
 20
-46.874227
 30
0.0
 10
53.474689
 20
-46.953623
 30
0.0
 10
53.554074
 20
-47.052371
 30
0.0
  0
SPLINE
  5
1d3
100
AcDbEntity
  8
0
 62
7
100
AcDbSpline
 70
8
 71
3
 72
8
 73
4
 74
0
 40
0
 40
0
 40
0
 40
0
 40
1
 40
1
 40
1
 40
1
 10
53.554074
 20
-47.052371
 30
0.0
 10
53.633470
 20
-47.151199
 30
0.0
 10
53.694331
 20
-47.264086
 30
0.0
 10
53.736681
 20
-47.391124
 30
0.0
  0
SPLINE
  5
1d4
100
AcDbEntity
  8
0
 62
7
100
AcDbSpline
 70
8
 71
3
 72
8
 73
4
 74
0
 40
0
 40
0
 40
0
 40
0
 40
1
 40
1
 40
1
 40
1
 10
53.736681
 20
-47.391124
 30
0.0
 10
53.779031
 20
-47.518150
 30
0.0
 10
53.800200
 20
-47.648732
 30
0.0
 10
53.800200
 20
-47.782800
 30
0.0
  0
SPLINE
  5
1d5
100
AcDbEntity
  8
0
 62
7
100
AcDbSpline
 70
8
 71
3
 72
8
 73
4
 74
0
 40
0
 40
0
 40
0
 40
0
 40
1
 40
1
 40
1
 40
1
 10
53.800200
 20
-47.782800
 30
0.0
 10
53.800200
 20
-47.913382
 30
0.0
 10
53.779848
 20
-48.042157
 30
0.0
 10
53.739327
 20
-48.169184
 30
0.0
  0
SPLINE
  5
1d6
100
AcDbEntity
  8
0
 62
7
100
AcDbSpline
 70
8
 71
3
 72
8
 73
4
 74
0
 40
0
 40
0
 40
0
 40
0
 40
1
 40
1
 40
1
 40
1
 10
53.739327
 20
-48.169184
 30
0.0
 10
53.698715
 20
-48.296222
 30
0.0
 10
53.642237
 20
-48.417117
 30
0.0
 10
53.569962
 20
-48.531741
 30
0.0
  0
SPLINE
  5
1d7
100
AcDbEntity
  8
0
 62
7
100
AcDbSpline
 70
8
 71
3
 72
8
 73
4
 74
0
 40
0
 40
0
 40
0
 40
0
 40
1
 40
1
 40
1
 40
1
 10
53.569962
 20
-48.531741
 30
0.0
 10
53.497596
 20
-48.646457
 30
0.0
 10
53.411170
 20
-48.751406
 30
0.0
 10
53.310605
 20
-48.846679
 30
0.0
  0
SPLINE
  5
1d8
100
AcDbEntity
  8
0
 62
7
100
AcDbSpline
 70
8
 71
3
 72
8
 73
4
 74
0
 40
0
 40
0
 40
0
 40
0
 40
1
 40
1
 40
1
 40
1
 10
53.310605
 20
-48.846679
 30
0.0
 10
53.210040
 20
-48.941963
 30
0.0
 10
53.099707
 20
-49.021348
 30
0.0
 10
52.979790
 20
-49.084867
 30
0.0
  0
LWPOLYLINE
  5
1d9
100
AcDbEntity
  8
0
 62
7
100
AcDbPolyline
 90
3
 70
0
 10
50.455052
 20
-50.482207
 30
0.0
 10
51.254282
 20
-46.724202
 30
0.0
 10
52.868640
 20
-46.724202
 30
0.0
  0
LWPOLYLINE
  5
1da
100
AcDbEntity
  8
0
 62
7
100
AcDbPolyline
 90
8
 70
0
 10
52.979790
 20
-49.084867
 30
0.0
 10
53.461447
 20
-50.482207
 30
0.0
 10
52.482256
 20
-50.482207
 30
0.0
 10
52.069399
 20
-49.270120
 30
0.0
 10
51.577158
 20
-49.270120
 30
0.0
 10
51.323093
 20
-50.482207
 30
0.0
 10
50.455052
 20
-50.482207
 30
0.0
 10
50.455052
 20
-50.482207
 30
0.0
  0
LWPOLYLINE
  5
1db
100
AcDbEntity
  8
0
 62
7
100
AcDbPolyline
 90
7
 70
1
 10
54.969856
 20
-46.724202
 30
0.0
 10
55.837897
 20
-46.724202
 30
0.0
 10
55.197448
 20
-49.720023
 30
0.0
 10
56.896495
 20
-49.720023
 30
0.0
 10
56.737703
 20
-50.482207
 30
0.0
 10
54.170615
 20
-50.482207
 30
0.0
 10
54.969856
 20
-46.724202
 30
0.0
  0
LWPOLYLINE
  5
1dc
100
AcDbEntity
  8
0
 62
7
100
AcDbPolyline
 90
4
 70
1
 10
59.495233
 20
-49.042459
 30
0.0
 10
59.389375
 20
-47.713931
 30
0.0
 10
58.701296
 20
-49.042459
 30
0.0
 10
59.495233
 20
-49.042459
 30
0.0
  0
LWPOLYLINE
  5
1dd
100
AcDbEntity
  8
0
 62
7
100
AcDbPolyline
 90
9
 70
1
 10
59.204122
 20
-46.724144
 30
0.0
 10
59.992778
 20
-46.724144
 30
0.0
 10
60.479727
 20
-50.482149
 30
0.0
 10
59.590506
 20
-50.482149
 30
0.0
 10
59.511121
 20
-49.640558
 30
0.0
 10
58.441938
 20
-49.640558
 30
0.0
 10
58.013216
 20
-50.482149
 30
0.0
 10
57.118702
 20
-50.482149
 30
0.0
 10
59.204122
 20
-46.724144
 30
0.0
  0
SPLINE
  5
1de
100
AcDbEntity
  8
0
 62
7
100
AcDbSpline
 70
8
 71
3
 72
8
 73
4
 74
0
 40
0
 40
0
 40
0
 40
0
 40
1
 40
1
 40
1
 40
1
 10
66.778243
 20
-49.719943
 30
0.0
 10
66.954649
 20
-49.719943
 30
0.0
 10
67.115178
 20
-49.682068
 30
0.0
 10
67.259900
 20
-49.606135
 30
0.0
  0
SPLINE
  5
1df
100
AcDbEntity
  8
0
 62
7
100
AcDbSpline
 70
8
 71
3
 72
8
 73
4
 74
0
 40
0
 40
0
 40
0
 40
0
 40
1
 40
1
 40
1
 40
1
 10
67.259900
 20
-49.606135
 30
0.0
 10
67.404552
 20
-49.530306
 30
0.0
 10
67.528933
 20
-49.427095
 30
0.0
 10
67.633053
 20
-49.296501
 30
0.0
  0
SPLINE
  5
1e0
100
AcDbEntity
  8
0
 62
7
100
AcDbSpline
 70
8
 71
3
 72
8
 73
4
 74
0
 40
0
 40
0
 40
0
 40
0
 40
1
 40
1
 40
1
 40
1
 10
67.633053
 20
-49.296501
 30
0.0
 10
67.737104
 20
-49.166012
 30
0.0
 10
67.817397
 20
-49.015975
 30
0.0
 10
67.873876
 20
-48.846610
 30
0.0
  0
SPLINE
  5
1e1
100
AcDbEntity
  8
0
 62
7
100
AcDbSpline
 70
8
 71
3
 72
8
 73
4
 74
0
 40
0
 40
0
 40
0
 40
0
 40
1
 40
1
 40
1
 40
1
 10
67.873876
 20
-48.846610
 30
0.0
 10
67.930296
 20
-48.677233
 30
0.0
 10
67.958575
 20
-48.499090
 30
0.0
 10
67.958575
 20
-48.312018
 30
0.0
  0
SPLINE
  5
1e2
100
AcDbEntity
  8
0
 62
7
100
AcDbSpline
 70
8
 71
3
 72
8
 73
4
 74
0
 40
0
 40
0
 40
0
 40
0
 40
1
 40
1
 40
1
 40
1
 10
67.958575
 20
-48.312018
 30
0.0
 10
67.958575
 20
-48.065064
 30
0.0
 10
67.899440
 20
-47.865671
 30
0.0
 10
67.781260
 20
-47.713920
 30
0.0
  0
SPLINE
  5
1e3
100
AcDbEntity
  8
0
 62
7
100
AcDbSpline
 70
8
 71
3
 72
8
 73
4
 74
0
 40
0
 40
0
 40
0
 40
0
 40
1
 40
1
 40
1
 40
1
 10
67.781260
 20
-47.713920
 30
0.0
 10
67.662989
 20
-47.562238
 30
0.0
 10
67.487492
 20
-47.486316
 30
0.0
 10
67.254607
 20
-47.486316
 30
0.0
  0
LWPOLYLINE
  5
1e4
100
AcDbEntity
  8
0
 62
7
100
AcDbPolyline
 90
11
 70
1
 10
61.924629
 20
-46.724202
 30
0.0
 10
62.602135
 20
-46.724202
 30
0.0
 10
63.729533
 20
-48.931367
 30
0.0
 10
64.195301
 20
-46.724202
 30
0.0
 10
65.063342
 20
-46.724202
 30
0.0
 10
64.264113
 20
-50.482207
 30
0.0
 10
63.576033
 20
-50.482207
 30
0.0
 10
62.448635
 20
-48.333257
 30
0.0
 10
61.993428
 20
-50.482207
 30
0.0
 10
61.125388
 20
-50.482207
 30
0.0
 10
61.924629
 20
-46.724202
 30
0.0
  0
LWPOLYLINE
  5
1e5
100
AcDbEntity
  8
0
 62
7
100
AcDbPolyline
 90
5
 70
0
 10
67.254607
 20
-47.486316
 30
0.0
 10
66.778243
 20
-47.486316
 30
0.0
 10
66.301878
 20
-49.719943
 30
0.0
 10
66.778243
 20
-49.719943
 30
0.0
 10
66.778243
 20
-49.719943
 30
0.0
  0
SPLINE
  5
1e6
100
AcDbEntity
  8
0
 62
7
100
AcDbSpline
 70
8
 71
3
 72
8
 73
4
 74
0
 40
0
 40
0
 40
0
 40
0
 40
1
 40
1
 40
1
 40
1
 10
67.418692
 20
-46.724121
 30
0.0
 10
67.662172
 20
-46.724121
 30
0.0
 10
67.874715
 20
-46.762088
 30
0.0
 10
68.056494
 20
-46.837929
 30
0.0
  0
SPLINE
  5
1e7
100
AcDbEntity
  8
0
 62
7
100
AcDbSpline
 70
8
 71
3
 72
8
 73
4
 74
0
 40
0
 40
0
 40
0
 40
0
 40
1
 40
1
 40
1
 40
1
 10
68.056494
 20
-46.837929
 30
0.0
 10
68.238181
 20
-46.913850
 30
0.0
 10
68.388138
 20
-47.017062
 30
0.0
 10
68.506397
 20
-47.147563
 30
0.0
  0
SPLINE
  5
1e8
100
AcDbEntity
  8
0
 62
7
100
AcDbSpline
 70
8
 71
3
 72
8
 73
4
 74
0
 40
0
 40
0
 40
0
 40
0
 40
1
 40
1
 40
1
 40
1
 10
68.506397
 20
-47.147563
 30
0.0
 10
68.624565
 20
-47.278156
 30
0.0
 10
68.712809
 20
-47.432565
 30
0.0
 10
68.771047
 20
-47.610697
 30
0.0
  0
SPLINE
  5
1e9
100
AcDbEntity
  8
0
 62
7
100
AcDbSpline
 70
8
 71
3
 72
8
 73
4
 74
0
 40
0
 40
0
 40
0
 40
0
 40
1
 40
1
 40
1
 40
1
 10
68.771047
 20
-47.610697
 30
0.0
 10
68.829262
 20
-47.788921
 30
0.0
 10
68.858381
 20
-47.980387
 30
0.0
 10
68.858381
 20
-48.184992
 30
0.0
  0
SPLINE
  5
1ea
100
AcDbEntity
  8
0
 62
7
100
AcDbSpline
 70
8
 71
3
 72
8
 73
4
 74
0
 40
0
 40
0
 40
0
 40
0
 40
1
 40
1
 40
1
 40
1
 10
68.858381
 20
-48.184992
 30
0.0
 10
68.858381
 20
-48.516704
 30
0.0
 10
68.801892
 20
-48.822794
 30
0.0
 10
68.689005
 20
-49.103309
 30
0.0
  0
SPLINE
  5
1eb
100
AcDbEntity
  8
0
 62
7
100
AcDbSpline
 70
8
 71
3
 72
8
 73
4
 74
0
 40
0
 40
0
 40
0
 40
0
 40
1
 40
1
 40
1
 40
1
 10
68.689005
 20
-49.103309
 30
0.0
 10
68.576037
 20
-49.383836
 30
0.0
 10
68.419063
 20
-49.626488
 30
0.0
 10
68.217933
 20
-49.831093
 30
0.0
  0
SPLINE
  5
1ec
100
AcDbEntity
  8
0
 62
7
100
AcDbSpline
 70
8
 71
3
 72
8
 73
4
 74
0
 40
0
 40
0
 40
0
 40
0
 40
1
 40
1
 40
1
 40
1
 10
68.217933
 20
-49.831093
 30
0.0
 10
68.016791
 20
-50.035778
 30
0.0
 10
67.779431
 20
-50.195479
 30
0.0
 10
67.506026
 20
-50.310103
 30
0.0
  0
SPLINE
  5
1ed
100
AcDbEntity
  8
0
 62
7
100
AcDbSpline
 70
8
 71
3
 72
8
 73
4
 74
0
 40
0
 40
0
 40
0
 40
0
 40
1
 40
1
 40
1
 40
1
 10
67.506026
 20
-50.310103
 30
0.0
 10
67.232529
 20
-50.424820
 30
0.0
 10
66.937035
 20
-50.482126
 30
0.0
 10
66.619451
 20
-50.482126
 30
0.0
  0
LWPOLYLINE
  5
1ee
100
AcDbEntity
  8
0
 62
7
100
AcDbPolyline
 90
2
 70
0
 10
66.074275
 20
-46.724121
 30
0.0
 10
67.418692
 20
-46.724121
 30
0.0
  0
SPLINE
  5
1ef
100
AcDbEntity
  8
0
 62
7
100
AcDbSpline
 70
8
 71
3
 72
8
 73
4
 74
0
 40
0
 40
0
 40
0
 40
0
 40
1
 40
1
 40
1
 40
1
 10
34.803087
 20
-26.073946
 30
0.0
 10
34.698046
 20
-25.622778
 30
0.0
 10
34.600806
 20
-25.169711
 30
0.0
 10
34.475597
 20
-24.723524
 30
0.0
  0
SPLINE
  5
1f0
100
AcDbEntity
  8
0
 62
7
100
AcDbSpline
 70
8
 71
3
 72
8
 73
4
 74
0
 40
0
 40
0
 40
0
 40
0
 40
1
 40
1
 40
1
 40
1
 10
34.475597
 20
-24.723524
 30
0.0
 10
34.414563
 20
-24.506022
 30
0.0
 10
34.347811
 20
-24.290062
 30
0.0
 10
34.272948
 20
-24.076886
 30
0.0
  0
SPLINE
  5
1f1
100
AcDbEntity
  8
0
 62
7
100
AcDbSpline
 70
8
 71
3
 72
8
 73
4
 74
0
 40
0
 40
0
 40
0
 40
0
 40
1
 40
1
 40
1
 40
1
 10
34.272948
 20
-24.076886
 30
0.0
 10
34.236339
 20
-23.972616
 30
0.0
 10
34.197774
 20
-23.869036
 30
0.0
 10
34.157046
 20
-23.766308
 30
0.0
  0
SPLINE
  5
1f2
100
AcDbEntity
  8
0
 62
7
100
AcDbSpline
 70
8
 71
3
 72
8
 73
4
 74
0
 40
0
 40
0
 40
0
 40
0
 40
1
 40
1
 40
1
 40
1
 10
34.157046
 20
-23.766308
 30
0.0
 10
34.136648
 20
-23.714881
 30
0.0
 10
34.115697
 20
-23.663672
 30
0.0
 10
34.094183
 20
-23.612705
 30
0.0
  0
SPLINE
  5
1f3
100
AcDbEntity
  8
0
 62
7
100
AcDbSpline
 70
8
 71
3
 72
8
 73
4
 74
0
 40
0
 40
0
 40
0
 40
0
 40
1
 40
1
 40
1
 40
1
 10
34.094183
 20
-23.612705
 30
0.0
 10
34.079445
 20
-23.577822
 30
0.0
 10
34.065582
 20
-23.516339
 30
0.0
 10
34.026603
 20
-23.499749
 30
0.0
  0
SPLINE
  5
1f4
100
AcDbEntity
  8
0
 62
7
100
AcDbSpline
 70
8
 71
3
 72
8
 73
4
 74
0
 40
0
 40
0
 40
0
 40
0
 40
1
 40
1
 40
1
 40
1
 10
34.026603
 20
-23.499749
 30
0.0
 10
34.009437
 20
-23.492455
 30
0.0
 10
33.988544
 20
-23.494848
 30
0.0
 10
33.970516
 20
-23.494042
 30
0.0
  0
SPLINE
  5
1f5
100
AcDbEntity
  8
0
 62
7
100
AcDbSpline
 70
8
 71
3
 72
8
 73
4
 74
0
 40
0
 40
0
 40
0
 40
0
 40
1
 40
1
 40
1
 40
1
 10
33.970516
 20
-23.494042
 30
0.0
 10
33.943410
 20
-23.492834
 30
0.0
 10
33.916362
 20
-23.490602
 30
0.0
 10
33.889279
 20
-23.489049
 30
0.0
  0
SPLINE
  5
1f6
100
AcDbEntity
  8
0
 62
7
100
AcDbSpline
 70
8
 71
3
 72
8
 73
4
 74
0
 40
0
 40
0
 40
0
 40
0
 40
1
 40
1
 40
1
 40
1
 10
33.889279
 20
-23.489049
 30
0.0
 10
33.831087
 20
-23.485713
 30
0.0
 10
33.774862
 20
-23.489751
 30
0.0
 10
33.717015
 20
-23.495457
 30
0.0
  0
SPLINE
  5
1f7
100
AcDbEntity
  8
0
 62
7
100
AcDbSpline
 70
8
 71
3
 72
8
 73
4
 74
0
 40
0
 40
0
 40
0
 40
0
 40
1
 40
1
 40
1
 40
1
 10
33.717015
 20
-23.495457
 30
0.0
 10
33.600262
 20
-23.506951
 30
0.0
 10
33.483521
 20
-23.518490
 30
0.0
 10
33.366779
 20
-23.530053
 30
0.0
  0
SPLINE
  5
1f8
100
AcDbEntity
  8
0
 62
7
100
AcDbSpline
 70
8
 71
3
 72
8
 73
4
 74
0
 40
0
 40
0
 40
0
 40
0
 40
1
 40
1
 40
1
 40
1
 10
33.366779
 20
-23.530053
 30
0.0
 10
33.135886
 20
-23.552913
 30
0.0
 10
32.905003
 20
-23.575900
 30
0.0
 10
32.674132
 20
-23.598968
 30
0.0
  0
SPLINE
  5
1f9
100
AcDbEntity
  8
0
 62
7
100
AcDbSpline
 70
8
 71
3
 72
8
 73
4
 74
0
 40
0
 40
0
 40
0
 40
0
 40
1
 40
1
 40
1
 40
1
 10
32.674132
 20
-23.598968
 30
0.0
 10
32.207191
 20
-23.645621
 30
0.0
 10
31.740295
 20
-23.692642
 30
0.0
 10
31.273410
 20
-23.739789
 30
0.0
  0
SPLINE
  5
1fa
100
AcDbEntity
  8
0
 62
7
100
AcDbSpline
 70
8
 71
3
 72
8
 73
4
 74
0
 40
0
 40
0
 40
0
 40
0
 40
1
 40
1
 40
1
 40
1
 10
31.273410
 20
-23.739789
 30
0.0
 10
31.073936
 20
-23.759934
 30
0.0
 10
30.867859
 20
-23.766239
 30
0.0
 10
30.677060
 20
-23.833279
 30
0.0
  0
SPLINE
  5
1fb
100
AcDbEntity
  8
0
 62
7
100
AcDbSpline
 70
8
 71
3
 72
8
 73
4
 74
0
 40
0
 40
0
 40
0
 40
0
 40
1
 40
1
 40
1
 40
1
 10
30.677060
 20
-23.833279
 30
0.0
 10
30.519557
 20
-23.888618
 30
0.0
 10
30.377481
 20
-23.981118
 30
0.0
 10
30.263800
 20
-24.103439
 30
0.0
  0
SPLINE
  5
1fc
100
AcDbEntity
  8
0
 62
7
100
AcDbSpline
 70
8
 71
3
 72
8
 73
4
 74
0
 40
0
 40
0
 40
0
 40
0
 40
1
 40
1
 40
1
 40
1
 10
30.263800
 20
-24.103439
 30
0.0
 10
30.004489
 20
-24.382458
 30
0.0
 10
29.895077
 20
-24.774882
 30
0.0
 10
30.006468
 20
-25.142571
 30
0.0
  0
SPLINE
  5
1fd
100
AcDbEntity
  8
0
 62
7
100
AcDbSpline
 70
8
 71
3
 72
8
 73
4
 74
0
 40
0
 40
0
 40
0
 40
0
 40
1
 40
1
 40
1
 40
1
 10
30.006468
 20
-25.142571
 30
0.0
 10
30.097875
 20
-25.444278
 30
0.0
 10
30.298730
 20
-25.702680
 30
0.0
 10
30.589530
 20
-25.832652
 30
0.0
  0
SPLINE
  5
1fe
100
AcDbEntity
  8
0
 62
7
100
AcDbSpline
 70
8
 71
3
 72
8
 73
4
 74
0
 40
0
 40
0
 40
0
 40
0
 40
1
 40
1
 40
1
 40
1
 10
30.589530
 20
-25.832652
 30
0.0
 10
30.749703
 20
-25.904248
 30
0.0
 10
30.918561
 20
-25.927614
 30
0.0
 10
31.091148
 20
-25.948623
 30
0.0
  0
SPLINE
  5
1ff
100
AcDbEntity
  8
0
 62
7
100
AcDbSpline
 70
8
 71
3
 72
8
 73
4
 74
0
 40
0
 40
0
 40
0
 40
0
 40
1
 40
1
 40
1
 40
1
 10
31.091148
 20
-25.948623
 30
0.0
 10
31.322882
 20
-25.976833
 30
0.0
 10
31.554627
 20
-26.004870
 30
0.0
 10
31.786372
 20
-26.032920
 30
0.0
  0
SPLINE
  5
200
100
AcDbEntity
  8
0
 62
7
100
AcDbSpline
 70
8
 71
3
 72
8
 73
4
 74
0
 40
0
 40
0
 40
0
 40
0
 40
1
 40
1
 40
1
 40
1
 10
31.786372
 20
-26.032920
 30
0.0
 10
32.709338
 20
-26.144645
 30
0.0
 10
33.632234
 20
-26.257003
 30
0.0
 10
34.555165
 20
-26.369073
 30
0.0
  0
SPLINE
  5
201
100
AcDbEntity
  8
0
 62
7
100
AcDbSpline
 70
8
 71
3
 72
8
 73
4
 74
0
 40
0
 40
0
 40
0
 40
0
 40
1
 40
1
 40
1
 40
1
 10
34.555165
 20
-26.369073
 30
0.0
 10
34.658503
 20
-26.381613
 30
0.0
 10
34.763993
 20
-26.401701
 30
0.0
 10
34.868067
 20
-26.402759
 30
0.0
  0
SPLINE
  5
202
100
AcDbEntity
  8
0
 62
7
100
AcDbSpline
 70
8
 71
3
 72
8
 73
4
 74
0
 40
0
 40
0
 40
0
 40
0
 40
1
 40
1
 40
1
 40
1
 10
34.868067
 20
-26.402759
 30
0.0
 10
34.846599
 20
-26.293128
 30
0.0
 10
34.828432
 20
-26.182795
 30
0.0
 10
34.803087
 20
-26.073946
 30
0.0
  0
SPLINE
  5
203
100
AcDbEntity
  8
0
 62
7
100
AcDbSpline
 70
8
 71
3
 72
8
 73
4
 74
0
 40
0
 40
0
 40
0
 40
0
 40
1
 40
1
 40
1
 40
1
 10
34.803087
 20
-26.073946
 30
0.0
 10
34.710575
 20
-25.676587
 30
0.0
 10
34.828087
 20
-26.181300
 30
0.0
 10
34.803087
 20
-26.073946
 30
0.0
  0
SPLINE
  5
204
100
AcDbEntity
  8
0
 62
7
100
AcDbSpline
 70
8
 71
3
 72
8
 73
4
 74
0
 40
0
 40
0
 40
0
 40
0
 40
1
 40
1
 40
1
 40
1
 10
33.708420
 20
-23.071337
 30
0.0
 10
33.569302
 20
-22.833770
 30
0.0
 10
33.427112
 20
-22.596974
 30
0.0
 10
33.241847
 20
-22.391840
 30
0.0
  0
SPLINE
  5
205
100
AcDbEntity
  8
0
 62
7
100
AcDbSpline
 70
8
 71
3
 72
8
 73
4
 74
0
 40
0
 40
0
 40
0
 40
0
 40
1
 40
1
 40
1
 40
1
 10
33.241847
 20
-22.391840
 30
0.0
 10
33.078832
 20
-22.211327
 30
0.0
 10
32.893682
 20
-22.051350
 30
0.0
 10
32.692000
 20
-21.915441
 30
0.0
  0
SPLINE
  5
206
100
AcDbEntity
  8
0
 62
7
100
AcDbSpline
 70
8
 71
3
 72
8
 73
4
 74
0
 40
0
 40
0
 40
0
 40
0
 40
1
 40
1
 40
1
 40
1
 10
32.692000
 20
-21.915441
 30
0.0
 10
32.258514
 20
-21.623341
 30
0.0
 10
31.755838
 20
-21.444553
 30
0.0
 10
31.244406
 20
-21.347854
 30
0.0
  0
SPLINE
  5
207
100
AcDbEntity
  8
0
 62
7
100
AcDbSpline
 70
8
 71
3
 72
8
 73
4
 74
0
 40
0
 40
0
 40
0
 40
0
 40
1
 40
1
 40
1
 40
1
 10
31.244406
 20
-21.347854
 30
0.0
 10
30.679131
 20
-21.240984
 30
0.0
 10
30.095413
 20
-21.222242
 30
0.0
 10
29.524328
 20
-21.290628
 30
0.0
  0
SPLINE
  5
208
100
AcDbEntity
  8
0
 62
7
100
AcDbSpline
 70
8
 71
3
 72
8
 73
4
 74
0
 40
0
 40
0
 40
0
 40
0
 40
1
 40
1
 40
1
 40
1
 10
29.524328
 20
-21.290628
 30
0.0
 10
28.960111
 20
-21.358185
 30
0.0
 10
28.405697
 20
-21.508049
 30
0.0
 10
27.881368
 20
-21.726426
 30
0.0
  0
SPLINE
  5
209
100
AcDbEntity
  8
0
 62
7
100
AcDbSpline
 70
8
 71
3
 72
8
 73
4
 74
0
 40
0
 40
0
 40
0
 40
0
 40
1
 40
1
 40
1
 40
1
 10
27.881368
 20
-21.726426
 30
0.0
 10
27.384893
 20
-21.933205
 30
0.0
 10
26.889326
 20
-22.184739
 30
0.0
 10
26.517048
 20
-22.581477
 30
0.0
  0
SPLINE
  5
20a
100
AcDbEntity
  8
0
 62
7
100
AcDbSpline
 70
8
 71
3
 72
8
 73
4
 74
0
 40
0
 40
0
 40
0
 40
0
 40
1
 40
1
 40
1
 40
1
 10
26.517048
 20
-22.581477
 30
0.0
 10
26.167629
 20
-22.953848
 30
0.0
 10
25.933848
 20
-23.431052
 30
0.0
 10
25.852542
 20
-23.935086
 30
0.0
  0
SPLINE
  5
20b
100
AcDbEntity
  8
0
 62
7
100
AcDbSpline
 70
8
 71
3
 72
8
 73
4
 74
0
 40
0
 40
0
 40
0
 40
0
 40
1
 40
1
 40
1
 40
1
 10
25.852542
 20
-23.935086
 30
0.0
 10
25.760214
 20
-24.507414
 30
0.0
 10
25.864588
 20
-25.089003
 30
0.0
 10
26.003096
 20
-25.644948
 30
0.0
  0
SPLINE
  5
20c
100
AcDbEntity
  8
0
 62
7
100
AcDbSpline
 70
8
 71
3
 72
8
 73
4
 74
0
 40
0
 40
0
 40
0
 40
0
 40
1
 40
1
 40
1
 40
1
 10
26.003096
 20
-25.644948
 30
0.0
 10
26.141329
 20
-26.199777
 30
0.0
 10
26.332151
 20
-26.740305
 30
0.0
 10
26.553645
 20
-27.267072
 30
0.0
  0
SPLINE
  5
20d
100
AcDbEntity
  8
0
 62
7
100
AcDbSpline
 70
8
 71
3
 72
8
 73
4
 74
0
 40
0
 40
0
 40
0
 40
0
 40
1
 40
1
 40
1
 40
1
 10
26.553645
 20
-27.267072
 30
0.0
 10
26.665094
 20
-27.532125
 30
0.0
 10
26.784665
 20
-27.791447
 30
0.0
 10
26.921034
 20
-28.044649
 30
0.0
  0
SPLINE
  5
20e
100
AcDbEntity
  8
0
 62
7
100
AcDbSpline
 70
8
 71
3
 72
8
 73
4
 74
0
 40
0
 40
0
 40
0
 40
0
 40
1
 40
1
 40
1
 40
1
 10
26.921034
 20
-28.044649
 30
0.0
 10
26.955526
 20
-28.108675
 30
0.0
 10
26.990202
 20
-28.172585
 30
0.0
 10
27.024165
 20
-28.236886
 30
0.0
  0
SPLINE
  5
20f
100
AcDbEntity
  8
0
 62
7
100
AcDbSpline
 70
8
 71
3
 72
8
 73
4
 74
0
 40
0
 40
0
 40
0
 40
0
 40
1
 40
1
 40
1
 40
1
 10
27.024165
 20
-28.236886
 30
0.0
 10
27.050903
 20
-28.287474
 30
0.0
 10
27.083278
 20
-28.327454
 30
0.0
 10
27.138134
 20
-28.348554
 30
0.0
  0
SPLINE
  5
210
100
AcDbEntity
  8
0
 62
7
100
AcDbSpline
 70
8
 71
3
 72
8
 73
4
 74
0
 40
0
 40
0
 40
0
 40
0
 40
1
 40
1
 40
1
 40
1
 10
27.138134
 20
-28.348554
 30
0.0
 10
27.194209
 20
-28.370137
 30
0.0
 10
27.257268
 20
-28.366985
 30
0.0
 10
27.316300
 20
-28.369815
 30
0.0
  0
SPLINE
  5
211
100
AcDbEntity
  8
0
 62
7
100
AcDbSpline
 70
8
 71
3
 72
8
 73
4
 74
0
 40
0
 40
0
 40
0
 40
0
 40
1
 40
1
 40
1
 40
1
 10
27.316300
 20
-28.369815
 30
0.0
 10
27.391520
 20
-28.373428
 30
0.0
 10
27.466739
 20
-28.377006
 30
0.0
 10
27.541959
 20
-28.380549
 30
0.0
  0
SPLINE
  5
212
100
AcDbEntity
  8
0
 62
7
100
AcDbSpline
 70
8
 71
3
 72
8
 73
4
 74
0
 40
0
 40
0
 40
0
 40
0
 40
1
 40
1
 40
1
 40
1
 10
27.541959
 20
-28.380549
 30
0.0
 10
28.140576
 20
-28.408714
 30
0.0
 10
28.739353
 20
-28.432356
 30
0.0
 10
29.338419
 20
-28.448555
 30
0.0
  0
SPLINE
  5
213
100
AcDbEntity
  8
0
 62
7
100
AcDbSpline
 70
8
 71
3
 72
8
 73
4
 74
0
 40
0
 40
0
 40
0
 40
0
 40
1
 40
1
 40
1
 40
1
 10
29.338419
 20
-28.448555
 30
0.0
 10
29.937312
 20
-28.464754
 30
0.0
 10
30.536285
 20
-28.470611
 30
0.0
 10
31.135304
 20
-28.478986
 30
0.0
  0
SPLINE
  5
214
100
AcDbEntity
  8
0
 62
7
100
AcDbSpline
 70
8
 71
3
 72
8
 73
4
 74
0
 40
0
 40
0
 40
0
 40
0
 40
1
 40
1
 40
1
 40
1
 10
31.135304
 20
-28.478986
 30
0.0
 10
31.735934
 20
-28.487385
 30
0.0
 10
32.336380
 20
-28.496290
 30
0.0
 10
32.937068
 20
-28.487270
 30
0.0
  0
SPLINE
  5
215
100
AcDbEntity
  8
0
 62
7
100
AcDbSpline
 70
8
 71
3
 72
8
 73
4
 74
0
 40
0
 40
0
 40
0
 40
0
 40
1
 40
1
 40
1
 40
1
 10
32.937068
 20
-28.487270
 30
0.0
 10
33.235668
 20
-28.482794
 30
0.0
 10
33.534085
 20
-28.472060
 30
0.0
 10
33.832513
 20
-28.461671
 30
0.0
  0
SPLINE
  5
216
100
AcDbEntity
  8
0
 62
7
100
AcDbSpline
 70
8
 71
3
 72
8
 73
4
 74
0
 40
0
 40
0
 40
0
 40
0
 40
1
 40
1
 40
1
 40
1
 10
33.832513
 20
-28.461671
 30
0.0
 10
33.949335
 20
-28.457598
 30
0.0
 10
34.107402
 20
-28.477088
 30
0.0
 10
34.205770
 20
-28.400050
 30
0.0
  0
SPLINE
  5
217
100
AcDbEntity
  8
0
 62
7
100
AcDbSpline
 70
8
 71
3
 72
8
 73
4
 74
0
 40
0
 40
0
 40
0
 40
0
 40
1
 40
1
 40
1
 40
1
 10
34.205770
 20
-28.400050
 30
0.0
 10
34.253504
 20
-28.362659
 30
0.0
 10
34.277895
 20
-28.306377
 30
0.0
 10
34.305254
 20
-28.253960
 30
0.0
  0
SPLINE
  5
218
100
AcDbEntity
  8
0
 62
7
100
AcDbSpline
 70
8
 71
3
 72
8
 73
4
 74
0
 40
0
 40
0
 40
0
 40
0
 40
1
 40
1
 40
1
 40
1
 10
34.305254
 20
-28.253960
 30
0.0
 10
34.338480
 20
-28.190280
 30
0.0
 10
34.371120
 20
-28.126312
 30
0.0
 10
34.403150
 20
-28.062022
 30
0.0
  0
SPLINE
  5
219
100
AcDbEntity
  8
0
 62
7
100
AcDbSpline
 70
8
 71
3
 72
8
 73
4
 74
0
 40
0
 40
0
 40
0
 40
0
 40
1
 40
1
 40
1
 40
1
 10
34.403150
 20
-28.062022
 30
0.0
 10
34.530038
 20
-27.807301
 30
0.0
 10
34.647217
 20
-27.547702
 30
0.0
 10
34.752603
 20
-27.283341
 30
0.0
  0
SPLINE
  5
21a
100
AcDbEntity
  8
0
 62
7
100
AcDbSpline
 70
8
 71
3
 72
8
 73
4
 74
0
 40
0
 40
0
 40
0
 40
0
 40
1
 40
1
 40
1
 40
1
 10
34.752603
 20
-27.283341
 30
0.0
 10
34.800015
 20
-27.164402
 30
0.0
 10
34.858035
 20
-27.042656
 30
0.0
 10
34.871070
 20
-26.913869
 30
0.0
  0
SPLINE
  5
21b
100
AcDbEntity
  8
0
 62
7
100
AcDbSpline
 70
8
 71
3
 72
8
 73
4
 74
0
 40
0
 40
0
 40
0
 40
0
 40
1
 40
1
 40
1
 40
1
 10
34.871070
 20
-26.913869
 30
0.0
 10
34.878099
 20
-26.844505
 30
0.0
 10
34.865559
 20
-26.785324
 30
0.0
 10
34.842514
 20
-26.720205
 30
0.0
  0
SPLINE
  5
21c
100
AcDbEntity
  8
0
 62
7
100
AcDbSpline
 70
8
 71
3
 72
8
 73
4
 74
0
 40
0
 40
0
 40
0
 40
0
 40
1
 40
1
 40
1
 40
1
 10
34.842514
 20
-26.720205
 30
0.0
 10
34.830940
 20
-26.687474
 30
0.0
 10
34.819056
 20
-26.654983
 30
0.0
 10
34.806538
 20
-26.622597
 30
0.0
  0
SPLINE
  5
21d
100
AcDbEntity
  8
0
 62
7
100
AcDbSpline
 70
8
 71
3
 72
8
 73
4
 74
0
 40
0
 40
0
 40
0
 40
0
 40
1
 40
1
 40
1
 40
1
 10
34.806538
 20
-26.622597
 30
0.0
 10
34.795355
 20
-26.593662
 30
0.0
 10
34.790477
 20
-26.556512
 30
0.0
 10
34.774508
 20
-26.530223
 30
0.0
  0
SPLINE
  5
21e
100
AcDbEntity
  8
0
 62
7
100
AcDbSpline
 70
8
 71
3
 72
8
 73
4
 74
0
 40
0
 40
0
 40
0
 40
0
 40
1
 40
1
 40
1
 40
1
 10
34.774508
 20
-26.530223
 30
0.0
 10
34.762106
 20
-26.509825
 30
0.0
 10
34.742731
 20
-26.506995
 30
0.0
 10
34.720619
 20
-26.503934
 30
0.0
  0
SPLINE
  5
21f
100
AcDbEntity
  8
0
 62
7
100
AcDbSpline
 70
8
 71
3
 72
8
 73
4
 74
0
 40
0
 40
0
 40
0
 40
0
 40
1
 40
1
 40
1
 40
1
 10
34.720619
 20
-26.503934
 30
0.0
 10
34.681916
 20
-26.498573
 30
0.0
 10
34.642926
 20
-26.494834
 30
0.0
 10
34.604131
 20
-26.490243
 30
0.0
  0
SPLINE
  5
220
100
AcDbEntity
  8
0
 62
7
100
AcDbSpline
 70
8
 71
3
 72
8
 73
4
 74
0
 40
0
 40
0
 40
0
 40
0
 40
1
 40
1
 40
1
 40
1
 10
34.604131
 20
-26.490243
 30
0.0
 10
34.529061
 20
-26.481373
 30
0.0
 10
34.454013
 20
-26.472388
 30
0.0
 10
34.378966
 20
-26.463345
 30
0.0
  0
SPLINE
  5
221
100
AcDbEntity
  8
0
 62
7
100
AcDbSpline
 70
8
 71
3
 72
8
 73
4
 74
0
 40
0
 40
0
 40
0
 40
0
 40
1
 40
1
 40
1
 40
1
 10
34.378966
 20
-26.463345
 30
0.0
 10
34.228884
 20
-26.445259
 30
0.0
 10
34.078835
 20
-26.426885
 30
0.0
 10
33.928787
 20
-26.408500
 30
0.0
  0
SPLINE
  5
222
100
AcDbEntity
  8
0
 62
7
100
AcDbSpline
 70
8
 71
3
 72
8
 73
4
 74
0
 40
0
 40
0
 40
0
 40
0
 40
1
 40
1
 40
1
 40
1
 10
33.928787
 20
-26.408500
 30
0.0
 10
33.632660
 20
-26.372214
 30
0.0
 10
33.336544
 20
-26.335881
 30
0.0
 10
33.040429
 20
-26.299502
 30
0.0
  0
SPLINE
  5
223
100
AcDbEntity
  8
0
 62
7
100
AcDbSpline
 70
8
 71
3
 72
8
 73
4
 74
0
 40
0
 40
0
 40
0
 40
0
 40
1
 40
1
 40
1
 40
1
 10
33.040429
 20
-26.299502
 30
0.0
 10
32.444251
 20
-26.226261
 30
0.0
 10
31.847751
 20
-26.155620
 30
0.0
 10
31.251585
 20
-26.082311
 30
0.0
  0
SPLINE
  5
224
100
AcDbEntity
  8
0
 62
7
100
AcDbSpline
 70
8
 71
3
 72
8
 73
4
 74
0
 40
0
 40
0
 40
0
 40
0
 40
1
 40
1
 40
1
 40
1
 10
31.251585
 20
-26.082311
 30
0.0
 10
31.003791
 20
-26.051834
 30
0.0
 10
30.748472
 20
-26.040064
 30
0.0
 10
30.520511
 20
-25.928891
 30
0.0
  0
SPLINE
  5
225
100
AcDbEntity
  8
0
 62
7
100
AcDbSpline
 70
8
 71
3
 72
8
 73
4
 74
0
 40
0
 40
0
 40
0
 40
0
 40
1
 40
1
 40
1
 40
1
 10
30.520511
 20
-25.928891
 30
0.0
 10
30.327389
 20
-25.834711
 30
0.0
 10
30.160324
 20
-25.687574
 30
0.0
 10
30.043065
 20
-25.507463
 30
0.0
  0
SPLINE
  5
226
100
AcDbEntity
  8
0
 62
7
100
AcDbSpline
 70
8
 71
3
 72
8
 73
4
 74
0
 40
0
 40
0
 40
0
 40
0
 40
1
 40
1
 40
1
 40
1
 10
30.043065
 20
-25.507463
 30
0.0
 10
29.815405
 20
-25.157780
 30
0.0
 10
29.781971
 20
-24.672292
 30
0.0
 10
29.980076
 20
-24.302441
 30
0.0
  0
SPLINE
  5
227
100
AcDbEntity
  8
0
 62
7
100
AcDbSpline
 70
8
 71
3
 72
8
 73
4
 74
0
 40
0
 40
0
 40
0
 40
0
 40
1
 40
1
 40
1
 40
1
 10
29.980076
 20
-24.302441
 30
0.0
 10
30.083321
 20
-24.109686
 30
0.0
 10
30.245174
 20
-23.936674
 30
0.0
 10
30.430577
 20
-23.820761
 30
0.0
  0
SPLINE
  5
228
100
AcDbEntity
  8
0
 62
7
100
AcDbSpline
 70
8
 71
3
 72
8
 73
4
 74
0
 40
0
 40
0
 40
0
 40
0
 40
1
 40
1
 40
1
 40
1
 10
30.430577
 20
-23.820761
 30
0.0
 10
30.538528
 20
-23.753273
 30
0.0
 10
30.658629
 20
-23.706125
 30
0.0
 10
30.783619
 20
-23.681930
 30
0.0
  0
SPLINE
  5
229
100
AcDbEntity
  8
0
 62
7
100
AcDbSpline
 70
8
 71
3
 72
8
 73
4
 74
0
 40
0
 40
0
 40
0
 40
0
 40
1
 40
1
 40
1
 40
1
 10
30.783619
 20
-23.681930
 30
0.0
 10
30.923877
 20
-23.654790
 30
0.0
 10
31.069645
 20
-23.648025
 30
0.0
 10
31.211651
 20
-23.633471
 30
0.0
  0
SPLINE
  5
22a
100
AcDbEntity
  8
0
 62
7
100
AcDbSpline
 70
8
 71
3
 72
8
 73
4
 74
0
 40
0
 40
0
 40
0
 40
0
 40
1
 40
1
 40
1
 40
1
 10
31.211651
 20
-23.633471
 30
0.0
 10
31.811292
 20
-23.572035
 30
0.0
 10
32.411163
 20
-23.512910
 30
0.0
 10
33.010918
 20
-23.452751
 30
0.0
  0
SPLINE
  5
22b
100
AcDbEntity
  8
0
 62
7
100
AcDbSpline
 70
8
 71
3
 72
8
 73
4
 74
0
 40
0
 40
0
 40
0
 40
0
 40
1
 40
1
 40
1
 40
1
 10
33.010918
 20
-23.452751
 30
0.0
 10
33.155605
 20
-23.438243
 30
0.0
 10
33.300292
 20
-23.423735
 30
0.0
 10
33.444979
 20
-23.409216
 30
0.0
  0
SPLINE
  5
22c
100
AcDbEntity
  8
0
 62
7
100
AcDbSpline
 70
8
 71
3
 72
8
 73
4
 74
0
 40
0
 40
0
 40
0
 40
0
 40
1
 40
1
 40
1
 40
1
 10
33.444979
 20
-23.409216
 30
0.0
 10
33.514734
 20
-23.402221
 30
0.0
 10
33.584489
 20
-23.395226
 30
0.0
 10
33.654243
 20
-23.388219
 30
0.0
  0
SPLINE
  5
22d
100
AcDbEntity
  8
0
 62
7
100
AcDbSpline
 70
8
 71
3
 72
8
 73
4
 74
0
 40
0
 40
0
 40
0
 40
0
 40
1
 40
1
 40
1
 40
1
 10
33.654243
 20
-23.388219
 30
0.0
 10
33.722353
 20
-23.381374
 30
0.0
 10
33.793753
 20
-23.380074
 30
0.0
 10
33.860183
 20
-23.363530
 30
0.0
  0
SPLINE
  5
22e
100
AcDbEntity
  8
0
 62
7
100
AcDbSpline
 70
8
 71
3
 72
8
 73
4
 74
0
 40
0
 40
0
 40
0
 40
0
 40
1
 40
1
 40
1
 40
1
 10
33.860183
 20
-23.363530
 30
0.0
 10
33.809883
 20
-23.266002
 30
0.0
 10
33.763909
 20
-23.166115
 30
0.0
 10
33.708420
 20
-23.071337
 30
0.0
  0
SPLINE
  5
22f
100
AcDbEntity
  8
0
 62
7
100
AcDbSpline
 70
8
 71
3
 72
8
 73
4
 74
0
 40
0
 40
0
 40
0
 40
0
 40
1
 40
1
 40
1
 40
1
 10
25.624145
 20
-23.922316
 30
0.0
 10
25.686122
 20
-23.528339
 30
0.0
 10
25.828404
 20
-23.149962
 30
0.0
 10
26.046723
 20
-22.815869
 30
0.0
  0
SPLINE
  5
230
100
AcDbEntity
  8
0
 62
7
100
AcDbSpline
 70
8
 71
3
 72
8
 73
4
 74
0
 40
0
 40
0
 40
0
 40
0
 40
1
 40
1
 40
1
 40
1
 10
26.046723
 20
-22.815869
 30
0.0
 10
26.277663
 20
-22.462446
 30
0.0
 10
26.580383
 20
-22.170404
 30
0.0
 10
26.937693
 20
-21.946367
 30
0.0
  0
SPLINE
  5
231
100
AcDbEntity
  8
0
 62
7
100
AcDbSpline
 70
8
 71
3
 72
8
 73
4
 74
0
 40
0
 40
0
 40
0
 40
0
 40
1
 40
1
 40
1
 40
1
 10
26.937693
 20
-21.946367
 30
0.0
 10
27.331671
 20
-21.699343
 30
0.0
 10
27.765616
 20
-21.501549
 30
0.0
 10
28.207098
 20
-21.356597
 30
0.0
  0
SPLINE
  5
232
100
AcDbEntity
  8
0
 62
7
100
AcDbSpline
 70
8
 71
3
 72
8
 73
4
 74
0
 40
0
 40
0
 40
0
 40
0
 40
1
 40
1
 40
1
 40
1
 10
28.207098
 20
-21.356597
 30
0.0
 10
28.440580
 20
-21.279940
 30
0.0
 10
28.679792
 20
-21.220286
 30
0.0
 10
28.919798
 20
-21.167904
 30
0.0
  0
SPLINE
  5
233
100
AcDbEntity
  8
0
 62
7
100
AcDbSpline
 70
8
 71
3
 72
8
 73
4
 74
0
 40
0
 40
0
 40
0
 40
0
 40
1
 40
1
 40
1
 40
1
 10
28.919798
 20
-21.167904
 30
0.0
 10
29.160252
 20
-21.115430
 30
0.0
 10
29.401857
 20
-21.070134
 30
0.0
 10
29.647213
 20
-21.048367
 30
0.0
  0
SPLINE
  5
234
100
AcDbEntity
  8
0
 62
7
100
AcDbSpline
 70
8
 71
3
 72
8
 73
4
 74
0
 40
0
 40
0
 40
0
 40
0
 40
1
 40
1
 40
1
 40
1
 10
29.647213
 20
-21.048367
 30
0.0
 10
30.551172
 20
-20.968154
 30
0.0
 10
31.505903
 20
-21.065199
 30
0.0
 10
32.335851
 20
-21.452215
 30
0.0
  0
SPLINE
  5
235
100
AcDbEntity
  8
0
 62
7
100
AcDbSpline
 70
8
 71
3
 72
8
 73
4
 74
0
 40
0
 40
0
 40
0
 40
0
 40
1
 40
1
 40
1
 40
1
 10
32.335851
 20
-21.452215
 30
0.0
 10
32.738215
 20
-21.639850
 30
0.0
 10
33.102705
 20
-21.898747
 30
0.0
 10
33.402675
 20
-22.226847
 30
0.0
  0
SPLINE
  5
236
100
AcDbEntity
  8
0
 62
7
100
AcDbSpline
 70
8
 71
3
 72
8
 73
4
 74
0
 40
0
 40
0
 40
0
 40
0
 40
1
 40
1
 40
1
 40
1
 10
33.402675
 20
-22.226847
 30
0.0
 10
33.556635
 20
-22.395234
 30
0.0
 10
33.686239
 20
-22.583905
 30
0.0
 10
33.803348
 20
-22.779283
 30
0.0
  0
SPLINE
  5
237
100
AcDbEntity
  8
0
 62
7
100
AcDbSpline
 70
8
 71
3
 72
8
 73
4
 74
0
 40
0
 40
0
 40
0
 40
0
 40
1
 40
1
 40
1
 40
1
 10
33.803348
 20
-22.779283
 30
0.0
 10
33.923426
 20
-22.979619
 30
0.0
 10
34.033184
 20
-23.185927
 30
0.0
 10
34.129262
 20
-23.398850
 30
0.0
  0
SPLINE
  5
238
100
AcDbEntity
  8
0
 62
7
100
AcDbSpline
 70
8
 71
3
 72
8
 73
4
 74
0
 40
0
 40
0
 40
0
 40
0
 40
1
 40
1
 40
1
 40
1
 10
34.129262
 20
-23.398850
 30
0.0
 10
34.532155
 20
-24.291695
 30
0.0
 10
34.737968
 20
-25.262016
 30
0.0
 10
34.945737
 20
-26.214215
 30
0.0
  0
SPLINE
  5
239
100
AcDbEntity
  8
0
 62
7
100
AcDbSpline
 70
8
 71
3
 72
8
 73
4
 74
0
 40
0
 40
0
 40
0
 40
0
 40
1
 40
1
 40
1
 40
1
 10
34.945737
 20
-26.214215
 30
0.0
 10
34.969714
 20
-26.324111
 30
0.0
 10
34.983658
 20
-26.440128
 30
0.0
 10
35.019300
 20
-26.546906
 30
0.0
  0
SPLINE
  5
23a
100
AcDbEntity
  8
0
 62
7
100
AcDbSpline
 70
8
 71
3
 72
8
 73
4
 74
0
 40
0
 40
0
 40
0
 40
0
 40
1
 40
1
 40
1
 40
1
 10
35.019300
 20
-26.546906
 30
0.0
 10
35.035821
 20
-26.596377
 30
0.0
 10
35.067943
 20
-26.638750
 30
0.0
 10
35.083383
 20
-26.687911
 30
0.0
  0
SPLINE
  5
23b
100
AcDbEntity
  8
0
 62
7
100
AcDbSpline
 70
8
 71
3
 72
8
 73
4
 74
0
 40
0
 40
0
 40
0
 40
0
 40
1
 40
1
 40
1
 40
1
 10
35.083383
 20
-26.687911
 30
0.0
 10
35.099386
 20
-26.738878
 30
0.0
 10
35.107785
 20
-26.797082
 30
0.0
 10
35.107014
 20
-26.850430
 30
0.0
  0
SPLINE
  5
23c
100
AcDbEntity
  8
0
 62
7
100
AcDbSpline
 70
8
 71
3
 72
8
 73
4
 74
0
 40
0
 40
0
 40
0
 40
0
 40
1
 40
1
 40
1
 40
1
 10
35.107014
 20
-26.850430
 30
0.0
 10
35.105507
 20
-26.956115
 30
0.0
 10
35.065090
 20
-27.055404
 30
0.0
 10
35.028780
 20
-27.152977
 30
0.0
  0
SPLINE
  5
23d
100
AcDbEntity
  8
0
 62
7
100
AcDbSpline
 70
8
 71
3
 72
8
 73
4
 74
0
 40
0
 40
0
 40
0
 40
0
 40
1
 40
1
 40
1
 40
1
 10
35.028780
 20
-27.152977
 30
0.0
 10
34.987489
 20
-27.263966
 30
0.0
 10
34.945576
 20
-27.374598
 30
0.0
 10
34.900465
 20
-27.484103
 30
0.0
  0
SPLINE
  5
23e
100
AcDbEntity
  8
0
 62
7
100
AcDbSpline
 70
8
 71
3
 72
8
 73
4
 74
0
 40
0
 40
0
 40
0
 40
0
 40
1
 40
1
 40
1
 40
1
 10
34.900465
 20
-27.484103
 30
0.0
 10
34.809437
 20
-27.705125
 30
0.0
 10
34.709643
 20
-27.922443
 30
0.0
 10
34.606259
 20
-28.137920
 30
0.0
  0
SPLINE
  5
23f
100
AcDbEntity
  8
0
 62
7
100
AcDbSpline
 70
8
 71
3
 72
8
 73
4
 74
0
 40
0
 40
0
 40
0
 40
0
 40
1
 40
1
 40
1
 40
1
 10
34.606259
 20
-28.137920
 30
0.0
 10
34.555534
 20
-28.243628
 30
0.0
 10
34.507776
 20
-28.352477
 30
0.0
 10
34.450919
 20
-28.455021
 30
0.0
  0
SPLINE
  5
240
100
AcDbEntity
  8
0
 62
7
100
AcDbSpline
 70
8
 71
3
 72
8
 73
4
 74
0
 40
0
 40
0
 40
0
 40
0
 40
1
 40
1
 40
1
 40
1
 10
34.450919
 20
-28.455021
 30
0.0
 10
34.405911
 20
-28.536212
 30
0.0
 10
34.337399
 20
-28.602032
 30
0.0
 10
34.251951
 20
-28.639216
 30
0.0
  0
SPLINE
  5
241
100
AcDbEntity
  8
0
 62
7
100
AcDbSpline
 70
8
 71
3
 72
8
 73
4
 74
0
 40
0
 40
0
 40
0
 40
0
 40
1
 40
1
 40
1
 40
1
 10
34.251951
 20
-28.639216
 30
0.0
 10
34.156851
 20
-28.680600
 30
0.0
 10
34.050315
 20
-28.680335
 30
0.0
 10
33.948530
 20
-28.686766
 30
0.0
  0
SPLINE
  5
242
100
AcDbEntity
  8
0
 62
7
100
AcDbSpline
 70
8
 71
3
 72
8
 73
4
 74
0
 40
0
 40
0
 40
0
 40
0
 40
1
 40
1
 40
1
 40
1
 10
33.948530
 20
-28.686766
 30
0.0
 10
33.825449
 20
-28.694544
 30
0.0
 10
33.702231
 20
-28.699848
 30
0.0
 10
33.578978
 20
-28.703978
 30
0.0
  0
SPLINE
  5
243
100
AcDbEntity
  8
0
 62
7
100
AcDbSpline
 70
8
 71
3
 72
8
 73
4
 74
0
 40
0
 40
0
 40
0
 40
0
 40
1
 40
1
 40
1
 40
1
 10
33.578978
 20
-28.703978
 30
0.0
 10
33.331528
 20
-28.712273
 30
0.0
 10
33.084090
 20
-28.716795
 30
0.0
 10
32.836514
 20
-28.716910
 30
0.0
  0
SPLINE
  5
244
100
AcDbEntity
  8
0
 62
7
100
AcDbSpline
 70
8
 71
3
 72
8
 73
4
 74
0
 40
0
 40
0
 40
0
 40
0
 40
1
 40
1
 40
1
 40
1
 10
32.836514
 20
-28.716910
 30
0.0
 10
32.341949
 20
-28.717128
 30
0.0
 10
31.847475
 20
-28.718992
 30
0.0
 10
31.352933
 20
-28.712963
 30
0.0
  0
SPLINE
  5
245
100
AcDbEntity
  8
0
 62
7
100
AcDbSpline
 70
8
 71
3
 72
8
 73
4
 74
0
 40
0
 40
0
 40
0
 40
0
 40
1
 40
1
 40
1
 40
1
 10
31.352933
 20
-28.712963
 30
0.0
 10
30.353183
 20
-28.700780
 30
0.0
 10
29.353881
 20
-28.678701
 30
0.0
 10
28.354511
 20
-28.648409
 30
0.0
  0
SPLINE
  5
246
100
AcDbEntity
  8
0
 62
7
100
AcDbSpline
 70
8
 71
3
 72
8
 73
4
 74
0
 40
0
 40
0
 40
0
 40
0
 40
1
 40
1
 40
1
 40
1
 10
28.354511
 20
-28.648409
 30
0.0
 10
28.104600
 20
-28.640827
 30
0.0
 10
27.854745
 20
-28.631301
 30
0.0
 10
27.605029
 20
-28.618910
 30
0.0
  0
SPLINE
  5
247
100
AcDbEntity
  8
0
 62
7
100
AcDbSpline
 70
8
 71
3
 72
8
 73
4
 74
0
 40
0
 40
0
 40
0
 40
0
 40
1
 40
1
 40
1
 40
1
 10
27.605029
 20
-28.618910
 30
0.0
 10
27.480051
 20
-28.612720
 30
0.0
 10
27.354934
 20
-28.606830
 30
0.0
 10
27.230116
 20
-28.597948
 30
0.0
  0
SPLINE
  5
248
100
AcDbEntity
  8
0
 62
7
100
AcDbSpline
 70
8
 71
3
 72
8
 73
4
 74
0
 40
0
 40
0
 40
0
 40
0
 40
1
 40
1
 40
1
 40
1
 10
27.230116
 20
-28.597948
 30
0.0
 10
27.144542
 20
-28.591862
 30
0.0
 10
27.059370
 20
-28.572648
 30
0.0
 10
26.984967
 20
-28.528481
 30
0.0
  0
SPLINE
  5
249
100
AcDbEntity
  8
0
 62
7
100
AcDbSpline
 70
8
 71
3
 72
8
 73
4
 74
0
 40
0
 40
0
 40
0
 40
0
 40
1
 40
1
 40
1
 40
1
 10
26.984967
 20
-28.528481
 30
0.0
 10
26.905008
 20
-28.481000
 30
0.0
 10
26.853442
 20
-28.411084
 30
0.0
 10
26.811518
 20
-28.329858
 30
0.0
  0
SPLINE
  5
24a
100
AcDbEntity
  8
0
 62
7
100
AcDbSpline
 70
8
 71
3
 72
8
 73
4
 74
0
 40
0
 40
0
 40
0
 40
0
 40
1
 40
1
 40
1
 40
1
 10
26.811518
 20
-28.329858
 30
0.0
 10
26.755914
 20
-28.222149
 30
0.0
 10
26.699977
 20
-28.114623
 30
0.0
 10
26.645075
 20
-28.006556
 30
0.0
  0
SPLINE
  5
24b
100
AcDbEntity
  8
0
 62
7
100
AcDbSpline
 70
8
 71
3
 72
8
 73
4
 74
0
 40
0
 40
0
 40
0
 40
0
 40
1
 40
1
 40
1
 40
1
 10
26.645075
 20
-28.006556
 30
0.0
 10
26.533097
 20
-27.786178
 30
0.0
 10
26.428148
 20
-27.562947
 30
0.0
 10
26.332392
 20
-27.335021
 30
0.0
  0
SPLINE
  5
24c
100
AcDbEntity
  8
0
 62
7
100
AcDbSpline
 70
8
 71
3
 72
8
 73
4
 74
0
 40
0
 40
0
 40
0
 40
0
 40
1
 40
1
 40
1
 40
1
 10
26.332392
 20
-27.335021
 30
0.0
 10
26.145747
 20
-26.890755
 30
0.0
 10
25.986253
 20
-26.435123
 30
0.0
 10
25.855326
 20
-25.971356
 30
0.0
  0
SPLINE
  5
24d
100
AcDbEntity
  8
0
 62
7
100
AcDbSpline
 70
8
 71
3
 72
8
 73
4
 74
0
 40
0
 40
0
 40
0
 40
0
 40
1
 40
1
 40
1
 40
1
 10
25.855326
 20
-25.971356
 30
0.0
 10
25.729082
 20
-25.524134
 30
0.0
 10
25.630645
 20
-25.072563
 30
0.0
 10
25.599432
 20
-24.608002
 30
0.0
  0
SPLINE
  5
24e
100
AcDbEntity
  8
0
 62
7
100
AcDbSpline
 70
8
 71
3
 72
8
 73
4
 74
0
 40
0
 40
0
 40
0
 40
0
 40
1
 40
1
 40
1
 40
1
 10
25.599432
 20
-24.608002
 30
0.0
 10
25.584073
 20
-24.379525
 30
0.0
 10
25.588525
 20
-24.148792
 30
0.0
 10
25.624145
 20
-23.922316
 30
0.0
  0
SPLINE
  5
24f
100
AcDbEntity
  8
0
 62
7
100
AcDbSpline
 70
8
 71
3
 72
8
 73
4
 74
0
 40
0
 40
0
 40
0
 40
0
 40
1
 40
1
 40
1
 40
1
 10
25.624145
 20
-23.922316
 30
0.0
 10
25.717266
 20
-23.330292
 30
0.0
 10
25.581565
 20
-24.193075
 30
0.0
 10
25.624145
 20
-23.922316
 30
0.0
  0
SPLINE
  5
250
100
AcDbEntity
  8
0
 62
7
100
AcDbSpline
 70
8
 71
3
 72
8
 73
4
 74
0
 40
0
 40
0
 40
0
 40
0
 40
1
 40
1
 40
1
 40
1
 10
33.090452
 20
-23.716929
 30
0.0
 10
32.485335
 20
-23.777721
 30
0.0
 10
31.879171
 20
-23.829183
 30
0.0
 10
31.273617
 20
-23.885580
 30
0.0
  0
SPLINE
  5
251
100
AcDbEntity
  8
0
 62
7
100
AcDbSpline
 70
8
 71
3
 72
8
 73
4
 74
0
 40
0
 40
0
 40
0
 40
0
 40
1
 40
1
 40
1
 40
1
 10
31.273617
 20
-23.885580
 30
0.0
 10
31.144773
 20
-23.897580
 30
0.0
 10
31.014605
 20
-23.904472
 30
0.0
 10
30.888902
 20
-23.937238
 30
0.0
  0
SPLINE
  5
252
100
AcDbEntity
  8
0
 62
7
100
AcDbSpline
 70
8
 71
3
 72
8
 73
4
 74
0
 40
0
 40
0
 40
0
 40
0
 40
1
 40
1
 40
1
 40
1
 10
30.888902
 20
-23.937238
 30
0.0
 10
30.782687
 20
-23.964930
 30
0.0
 10
30.680753
 20
-24.008511
 30
0.0
 10
30.588771
 20
-24.068567
 30
0.0
  0
SPLINE
  5
253
100
AcDbEntity
  8
0
 62
7
100
AcDbSpline
 70
8
 71
3
 72
8
 73
4
 74
0
 40
0
 40
0
 40
0
 40
0
 40
1
 40
1
 40
1
 40
1
 10
30.588771
 20
-24.068567
 30
0.0
 10
30.398547
 20
-24.192752
 30
0.0
 10
30.247084
 20
-24.388498
 30
0.0
 10
30.179285
 20
-24.605644
 30
0.0
  0
SPLINE
  5
254
100
AcDbEntity
  8
0
 62
7
100
AcDbSpline
 70
8
 71
3
 72
8
 73
4
 74
0
 40
0
 40
0
 40
0
 40
0
 40
1
 40
1
 40
1
 40
1
 10
30.179285
 20
-24.605644
 30
0.0
 10
30.038026
 20
-25.058055
 30
0.0
 10
30.282715
 20
-25.546442
 30
0.0
 10
30.708434
 20
-25.738886
 30
0.0
  0
SPLINE
  5
255
100
AcDbEntity
  8
0
 62
7
100
AcDbSpline
 70
8
 71
3
 72
8
 73
4
 74
0
 40
0
 40
0
 40
0
 40
0
 40
1
 40
1
 40
1
 40
1
 10
30.708434
 20
-25.738886
 30
0.0
 10
30.937464
 20
-25.842420
 30
0.0
 10
31.195176
 20
-25.846147
 30
0.0
 10
31.440808
 20
-25.875428
 30
0.0
  0
SPLINE
  5
256
100
AcDbEntity
  8
0
 62
7
100
AcDbSpline
 70
8
 71
3
 72
8
 73
4
 74
0
 40
0
 40
0
 40
0
 40
0
 40
1
 40
1
 40
1
 40
1
 10
31.440808
 20
-25.875428
 30
0.0
 10
31.742400
 20
-25.911369
 30
0.0
 10
32.043727
 20
-25.949301
 30
0.0
 10
32.345343
 20
-25.985036
 30
0.0
  0
SPLINE
  5
257
100
AcDbEntity
  8
0
 62
7
100
AcDbSpline
 70
8
 71
3
 72
8
 73
4
 74
0
 40
0
 40
0
 40
0
 40
0
 40
1
 40
1
 40
1
 40
1
 10
32.345343
 20
-25.985036
 30
0.0
 10
32.950114
 20
-26.056677
 30
0.0
 10
33.554909
 20
-26.128112
 30
0.0
 10
34.159716
 20
-26.199455
 30
0.0
  0
SPLINE
  5
258
100
AcDbEntity
  8
0
 62
7
100
AcDbSpline
 70
8
 71
3
 72
8
 73
4
 74
0
 40
0
 40
0
 40
0
 40
0
 40
1
 40
1
 40
1
 40
1
 10
34.159716
 20
-26.199455
 30
0.0
 10
34.227653
 20
-26.207473
 30
0.0
 10
34.300594
 20
-26.224489
 30
0.0
 10
34.368704
 20
-26.217644
 30
0.0
  0
SPLINE
  5
259
100
AcDbEntity
  8
0
 62
7
100
AcDbSpline
 70
8
 71
3
 72
8
 73
4
 74
0
 40
0
 40
0
 40
0
 40
0
 40
1
 40
1
 40
1
 40
1
 10
34.368704
 20
-26.217644
 30
0.0
 10
33.708052
 20
-26.080631
 30
0.0
 10
33.029844
 20
-25.960081
 30
0.0
 10
32.433252
 20
-25.627472
 30
0.0
  0
SPLINE
  5
25a
100
AcDbEntity
  8
0
 62
7
100
AcDbSpline
 70
8
 71
3
 72
8
 73
4
 74
0
 40
0
 40
0
 40
0
 40
0
 40
1
 40
1
 40
1
 40
1
 10
32.433252
 20
-25.627472
 30
0.0
 10
32.179452
 20
-25.485983
 30
0.0
 10
31.932071
 20
-25.305297
 30
0.0
 10
31.820266
 20
-25.026612
 30
0.0
  0
SPLINE
  5
25b
100
AcDbEntity
  8
0
 62
7
100
AcDbSpline
 70
8
 71
3
 72
8
 73
4
 74
0
 40
0
 40
0
 40
0
 40
0
 40
1
 40
1
 40
1
 40
1
 10
31.820266
 20
-25.026612
 30
0.0
 10
31.763247
 20
-24.884502
 30
0.0
 10
31.749222
 20
-24.728092
 30
0.0
 10
31.794103
 20
-24.580586
 30
0.0
  0
SPLINE
  5
25c
100
AcDbEntity
  8
0
 62
7
100
AcDbSpline
 70
8
 71
3
 72
8
 73
4
 74
0
 40
0
 40
0
 40
0
 40
0
 40
1
 40
1
 40
1
 40
1
 10
31.794103
 20
-24.580586
 30
0.0
 10
31.840917
 20
-24.426707
 30
0.0
 10
31.941897
 20
-24.313774
 30
0.0
 10
32.066783
 20
-24.216878
 30
0.0
  0
SPLINE
  5
25d
100
AcDbEntity
  8
0
 62
7
100
AcDbSpline
 70
8
 71
3
 72
8
 73
4
 74
0
 40
0
 40
0
 40
0
 40
0
 40
1
 40
1
 40
1
 40
1
 10
32.066783
 20
-24.216878
 30
0.0
 10
32.215348
 20
-24.101610
 30
0.0
 10
32.382067
 20
-24.012619
 30
0.0
 10
32.553687
 20
-23.936950
 30
0.0
  0
SPLINE
  5
25e
100
AcDbEntity
  8
0
 62
7
100
AcDbSpline
 70
8
 71
3
 72
8
 73
4
 74
0
 40
0
 40
0
 40
0
 40
0
 40
1
 40
1
 40
1
 40
1
 10
32.553687
 20
-23.936950
 30
0.0
 10
32.640848
 20
-23.898512
 30
0.0
 10
32.729391
 20
-23.863180
 30
0.0
 10
32.818463
 20
-23.829425
 30
0.0
  0
SPLINE
  5
25f
100
AcDbEntity
  8
0
 62
7
100
AcDbSpline
 70
8
 71
3
 72
8
 73
4
 74
0
 40
0
 40
0
 40
0
 40
0
 40
1
 40
1
 40
1
 40
1
 10
32.818463
 20
-23.829425
 30
0.0
 10
32.863873
 20
-23.812213
 30
0.0
 10
32.909490
 20
-23.795531
 30
0.0
 10
32.955131
 20
-23.778929
 30
0.0
  0
SPLINE
  5
260
100
AcDbEntity
  8
0
 62
7
100
AcDbSpline
 70
8
 71
3
 72
8
 73
4
 74
0
 40
0
 40
0
 40
0
 40
0
 40
1
 40
1
 40
1
 40
1
 10
32.955131
 20
-23.778929
 30
0.0
 10
32.979153
 20
-23.770197
 30
0.0
 10
33.003198
 20
-23.761499
 30
0.0
 10
33.027221
 20
-23.752767
 30
0.0
  0
SPLINE
  5
261
100
AcDbEntity
  8
0
 62
7
100
AcDbSpline
 70
8
 71
3
 72
8
 73
4
 74
0
 40
0
 40
0
 40
0
 40
0
 40
1
 40
1
 40
1
 40
1
 10
33.027221
 20
-23.752767
 30
0.0
 10
33.039232
 20
-23.748395
 30
0.0
 10
33.051243
 20
-23.744023
 30
0.0
 10
33.063243
 20
-23.739639
 30
0.0
  0
SPLINE
  5
262
100
AcDbEntity
  8
0
 62
7
100
AcDbSpline
 70
8
 71
3
 72
8
 73
4
 74
0
 40
0
 40
0
 40
0
 40
0
 40
1
 40
1
 40
1
 40
1
 10
33.063243
 20
-23.739639
 30
0.0
 10
33.078591
 20
-23.734037
 30
0.0
 10
33.092983
 20
-23.736188
 30
0.0
 10
33.090452
 20
-23.716929
 30
0.0
  0
SPLINE
  5
263
100
AcDbEntity
  8
0
 62
7
100
AcDbSpline
 70
8
 71
3
 72
8
 73
4
 74
0
 40
0
 40
0
 40
0
 40
0
 40
1
 40
1
 40
1
 40
1
 10
33.090452
 20
-23.716929
 30
0.0
 10
33.061793
 20
-23.719805
 30
0.0
 10
33.090982
 20
-23.720978
 30
0.0
 10
33.090452
 20
-23.716929
 30
0.0
  0
LWPOLYLINE
  5
264
100
AcDbEntity
  8
0
 62
7
100
AcDbPolyline
 90
4
 70
0
 10
66.619451
 20
-50.482126
 30
0.0
 10
65.275046
 20
-50.482126
 30
0.0
 10
66.074275
 20
-46.724121
 30
0.0
 10
66.074275
 20
-46.724121
 30
0.0
  0
SPLINE
  5
265
100
AcDbEntity
  8
0
 62
7
100
AcDbSpline
 70
8
 71
3
 72
8
 73
4
 74
0
 40
0
 40
0
 40
0
 40
0
 40
1
 40
1
 40
1
 40
1
 10
18.762681
 20
-24.869812
 30
0.0
 10
22.550242
 20
-24.869812
 30
0.0
 10
25.625375
 20
-27.944874
 30
0.0
 10
25.625375
 20
-31.732505
 30
0.0
  0
SPLINE
  5
266
100
AcDbEntity
  8
0
 62
7
100
AcDbSpline
 70
8
 71
3
 72
8
 73
4
 74
0
 40
0
 40
0
 40
0
 40
0
 40
1
 40
1
 40
1
 40
1
 10
25.625375
 20
-31.732505
 30
0.0
 10
25.625375
 20
-35.520066
 30
0.0
 10
22.550242
 20
-38.595199
 30
0.0
 10
18.762681
 20
-38.595199
 30
0.0
  0
SPLINE
  5
267
100
AcDbEntity
  8
0
 62
7
100
AcDbSpline
 70
8
 71
3
 72
8
 73
4
 74
0
 40
0
 40
0
 40
0
 40
0
 40
1
 40
1
 40
1
 40
1
 10
18.762681
 20
-38.595199
 30
0.0
 10
14.975050
 20
-38.595199
 30
0.0
 10
11.899987
 20
-35.520066
 30
0.0
 10
11.899987
 20
-31.732505
 30
0.0
  0
SPLINE
  5
268
100
AcDbEntity
  8
0
 62
7
100
AcDbSpline
 70
8
 71
3
 72
8
 73
4
 74
0
 40
0
 40
0
 40
0
 40
0
 40
1
 40
1
 40
1
 40
1
 10
11.899987
 20
-31.732505
 30
0.0
 10
11.899987
 20
-27.944874
 30
0.0
 10
14.975050
 20
-24.869812
 30
0.0
 10
18.762681
 20
-24.869812
 30
0.0
  0
LWPOLYLINE
  5
269
100
AcDbEntity
  8
0
 62
7
100
AcDbPolyline
 90
14
 70
1
 10
26.691371
 20
-23.455282
 30
0.0
 10
27.606433
 20
-23.363345
 30
0.0
 10
27.514508
 20
-22.448284
 30
0.0
 10
28.298229
 20
-22.369544
 30
0.0
 10
28.390165
 20
-23.284617
 30
0.0
 10
29.305227
 20
-23.192680
 30
0.0
 10
29.383967
 20
-23.976401
 30
0.0
 10
28.468905
 20
-24.068337
 30
0.0
 10
28.560830
 20
-24.983399
 30
0.0
 10
27.777052
 20
-25.062151
 30
0.0
 10
27.685116
 20
-24.147078
 30
0.0
 10
26.770054
 20
-24.239014
 30
0.0
 10
26.691314
 20
-23.455282
 30
0.0
 10
26.691371
 20
-23.455282
 30
0.0
  0
SPLINE
  5
26a
100
AcDbEntity
  8
0
 62
7
100
AcDbSpline
 70
8
 71
3
 72
8
 73
4
 74
0
 40
0
 40
0
 40
0
 40
0
 40
1
 40
1
 40
1
 40
1
 10
19.363444
 20
-25.980087
 30
0.0
 10
22.538228
 20
-25.980087
 30
0.0
 10
25.115792
 20
-28.557651
 30
0.0
 10
25.115792
 20
-31.732505
 30
0.0
  0
SPLINE
  5
26b
100
AcDbEntity
  8
0
 62
7
100
AcDbSpline
 70
8
 71
3
 72
8
 73
4
 74
0
 40
0
 40
0
 40
0
 40
0
 40
1
 40
1
 40
1
 40
1
 10
25.115792
 20
-31.732505
 30
0.0
 10
25.115792
 20
-34.907290
 30
0.0
 10
22.538228
 20
-37.484854
 30
0.0
 10
19.363444
 20
-37.484854
 30
0.0
  0
SPLINE
  5
26c
100
AcDbEntity
  8
0
 62
7
100
AcDbSpline
 70
8
 71
3
 72
8
 73
4
 74
0
 40
0
 40
0
 40
0
 40
0
 40
1
 40
1
 40
1
 40
1
 10
19.363444
 20
-37.484854
 30
0.0
 10
16.188589
 20
-37.484854
 30
0.0
 10
13.611095
 20
-34.907290
 30
0.0
 10
13.611095
 20
-31.732505
 30
0.0
  0
SPLINE
  5
26d
100
AcDbEntity
  8
0
 62
7
100
AcDbSpline
 70
8
 71
3
 72
8
 73
4
 74
0
 40
0
 40
0
 40
0
 40
0
 40
1
 40
1
 40
1
 40
1
 10
13.611095
 20
-31.732505
 30
0.0
 10
13.611095
 20
-28.557651
 30
0.0
 10
16.188589
 20
-25.980087
 30
0.0
 10
19.363444
 20
-25.980087
 30
0.0
  0
LWPOLYLINE
  5
26e
100
AcDbEntity
  8
0
 62
7
100
AcDbPolyline
 90
1
 70
1
 10
18.762681
 20
-24.869812
 30
0.0
  0
LWPOLYLINE
  5
26f
100
AcDbEntity
  8
0
 62
7
100
AcDbPolyline
 90
1
 70
1
 10
19.363444
 20
-25.980087
 30
0.0
  0
SPLINE
  5
270
100
AcDbEntity
  8
0
 62
7
100
AcDbSpline
 70
8
 71
3
 72
8
 73
4
 74
0
 40
0
 40
0
 40
0
 40
0
 40
1
 40
1
 40
1
 40
1
 10
29.019117
 20
-31.302228
 30
0.0
 10
29.019117
 20
-31.302228
 30
0.0
 10
41.193813
 20
-31.283409
 30
0.0
 10
46.475677
 20
-31.307159
 30
0.0
  0
SPLINE
  5
271
100
AcDbEntity
  8
0
 62
7
100
AcDbSpline
 70
8
 71
3
 72
8
 73
4
 74
0
 40
0
 40
0
 40
0
 40
0
 40
1
 40
1
 40
1
 40
1
 10
46.475677
 20
-31.307159
 30
0.0
 10
46.467621
 20
-31.447575
 30
0.0
 10
46.463524
 20
-31.589172
 30
0.0
 10
46.463524
 20
-31.731741
 30
0.0
  0
SPLINE
  5
272
100
AcDbEntity
  8
0
 62
7
100
AcDbSpline
 70
8
 71
3
 72
8
 73
4
 74
0
 40
0
 40
0
 40
0
 40
0
 40
1
 40
1
 40
1
 40
1
 10
46.463524
 20
-31.731741
 30
0.0
 10
46.463524
 20
-31.960282
 30
0.0
 10
46.474010
 20
-32.186462
 30
0.0
 10
46.494496
 20
-32.409240
 30
0.0
  0
LWPOLYLINE
  5
273
100
AcDbEntity
  8
0
 62
7
100
AcDbPolyline
 90
3
 70
0
 10
46.494496
 20
-32.409240
 30
0.0
 10
30.213698
 20
-32.321532
 30
0.0
 10
29.019117
 20
-31.302228
 30
0.0
  0
LWPOLYLINE
  5
274
100
AcDbEntity
  8
0
 62
7
100
AcDbPolyline
 90
1
 70
1
 10
46.494496
 20
-32.409240
 30
0.0
  0
SPLINE
  5
275
100
AcDbEntity
  8
0
 62
7
100
AcDbSpline
 70
8
 71
3
 72
8
 73
4
 74
0
 40
0
 40
0
 40
0
 40
0
 40
1
 40
1
 40
1
 40
1
 10
27.504468
 20
-29.624107
 30
0.0
 10
27.504468
 20
-29.624107
 30
0.0
 10
43.470961
 20
-29.599385
 30
0.0
 10
46.766440
 20
-29.642162
 30
0.0
  0
SPLINE
  5
276
100
AcDbEntity
  8
0
 62
7
100
AcDbSpline
 70
8
 71
3
 72
8
 73
4
 74
0
 40
0
 40
0
 40
0
 40
0
 40
1
 40
1
 40
1
 40
1
 10
46.766440
 20
-29.642162
 30
0.0
 10
46.660746
 20
-29.997370
 30
0.0
 10
46.581232
 20
-30.363897
 30
0.0
 10
46.530330
 20
-30.739382
 30
0.0
  0
LWPOLYLINE
  5
277
100
AcDbEntity
  8
0
 62
7
100
AcDbPolyline
 90
3
 70
0
 10
46.530330
 20
-30.739382
 30
0.0
 10
28.699048
 20
-30.643410
 30
0.0
 10
27.504468
 20
-29.624107
 30
0.0
  0
LWPOLYLINE
  5
278
100
AcDbEntity
  8
0
 62
7
100
AcDbPolyline
 90
1
 70
1
 10
46.530330
 20
-30.739382
 30
0.0
  0
SPLINE
  5
279
100
AcDbEntity
  8
0
 62
7
100
AcDbSpline
 70
8
 71
3
 72
8
 73
4
 74
0
 40
0
 40
0
 40
0
 40
0
 40
1
 40
1
 40
1
 40
1
 10
67.416465
 20
-37.292979
 30
0.0
 10
67.416465
 20
-37.292979
 30
0.0
 10
64.026611
 20
-37.280757
 30
0.0
 10
59.164052
 20
-37.185618
 30
0.0
  0
SPLINE
  5
27a
100
AcDbEntity
  8
0
 62
7
100
AcDbSpline
 70
8
 71
3
 72
8
 73
4
 74
0
 40
0
 40
0
 40
0
 40
0
 40
1
 40
1
 40
1
 40
1
 10
59.164052
 20
-37.185618
 30
0.0
 10
58.995303
 20
-37.182354
 30
0.0
 10
58.826553
 20
-37.178952
 30
0.0
 10
58.658151
 20
-37.175410
 30
0.0
  0
SPLINE
  5
27b
100
AcDbEntity
  8
0
 62
7
100
AcDbSpline
 70
8
 71
3
 72
8
 73
4
 74
0
 40
0
 40
0
 40
0
 40
0
 40
1
 40
1
 40
1
 40
1
 10
58.658151
 20
-37.175410
 30
0.0
 10
60.149745
 20
-35.836941
 30
0.0
 10
61.088145
 20
-33.893959
 30
0.0
 10
61.088145
 20
-31.731741
 30
0.0
  0
SPLINE
  5
27c
100
AcDbEntity
  8
0
 62
7
100
AcDbSpline
 70
8
 71
3
 72
8
 73
4
 74
0
 40
0
 40
0
 40
0
 40
0
 40
1
 40
1
 40
1
 40
1
 10
61.088145
 20
-31.731741
 30
0.0
 10
61.088145
 20
-30.953479
 30
0.0
 10
60.966618
 20
-30.203689
 30
0.0
 10
60.741549
 20
-29.500774
 30
0.0
  0
LWPOLYLINE
  5
27d
100
AcDbEntity
  8
0
 62
7
100
AcDbPolyline
 90
4
 70
0
 10
60.741549
 20
-29.500774
 30
0.0
 10
68.889101
 20
-34.192500
 30
0.0
 10
68.889101
 20
-35.742774
 30
0.0
 10
67.416465
 20
-37.292979
 30
0.0
  0
LWPOLYLINE
  5
27e
100
AcDbEntity
  8
0
 62
7
100
AcDbPolyline
 90
1
 70
1
 10
60.741549
 20
-29.500774
 30
0.0
  0
SPLINE
  5
27f
100
AcDbEntity
  8
0
 62
7
100
AcDbSpline
 70
8
 71
3
 72
8
 73
4
 74
0
 40
0
 40
0
 40
0
 40
0
 40
1
 40
1
 40
1
 40
1
 10
35.107021
 20
-28.717303
 30
0.0
 10
35.131743
 20
-28.624665
 30
0.0
 10
35.316673
 20
-28.111957
 30
0.0
 10
35.495423
 20
-27.622375
 30
0.0
  0
SPLINE
  5
280
100
AcDbEntity
  8
0
 62
7
100
AcDbSpline
 70
8
 71
3
 72
8
 73
4
 74
0
 40
0
 40
0
 40
0
 40
0
 40
1
 40
1
 40
1
 40
1
 10
35.495423
 20
-27.622375
 30
0.0
 10
35.674242
 20
-27.132793
 30
0.0
 10
35.846811
 20
-26.666335
 30
0.0
 10
35.846811
 20
-26.666335
 30
0.0
  0
SPLINE
  5
281
100
AcDbEntity
  8
0
 62
7
100
AcDbSpline
 70
8
 71
3
 72
8
 73
4
 74
0
 40
0
 40
0
 40
0
 40
0
 40
1
 40
1
 40
1
 40
1
 10
35.846811
 20
-26.666335
 30
0.0
 10
35.846811
 20
-26.666335
 30
0.0
 10
42.473672
 20
-25.062103
 30
0.0
 10
45.556998
 20
-25.264672
 30
0.0
  0
SPLINE
  5
282
100
AcDbEntity
  8
0
 62
7
100
AcDbSpline
 70
8
 71
3
 72
8
 73
4
 74
0
 40
0
 40
0
 40
0
 40
0
 40
1
 40
1
 40
1
 40
1
 10
45.556998
 20
-25.264672
 30
0.0
 10
46.397830
 20
-25.319880
 30
0.0
 10
47.942271
 20
-25.513699
 30
0.0
 10
49.582615
 20
-25.740435
 30
0.0
  0
SPLINE
  5
283
100
AcDbEntity
  8
0
 62
7
100
AcDbSpline
 70
8
 71
3
 72
8
 73
4
 74
0
 40
0
 40
0
 40
0
 40
0
 40
1
 40
1
 40
1
 40
1
 10
49.582615
 20
-25.740435
 30
0.0
 10
48.544353
 20
-26.468419
 30
0.0
 10
47.704008
 20
-27.459459
 30
0.0
 10
47.158453
 20
-28.616540
 30
0.0
  0
LWPOLYLINE
  5
284
100
AcDbEntity
  8
0
 62
7
100
AcDbPolyline
 90
2
 70
0
 10
47.158453
 20
-28.616540
 30
0.0
 10
35.107021
 20
-28.717303
 30
0.0
  0
SPLINE
  5
285
100
AcDbEntity
  8
0
 62
7
100
AcDbSpline
 70
8
 71
3
 72
8
 73
4
 74
0
 40
0
 40
0
 40
0
 40
0
 40
1
 40
1
 40
1
 40
1
 10
53.833439
 20
-24.776339
 30
0.0
 10
57.672667
 20
-24.776339
 30
0.0
 10
60.789604
 20
-27.893277
 30
0.0
 10
60.789604
 20
-31.732505
 30
0.0
  0
SPLINE
  5
286
100
AcDbEntity
  8
0
 62
7
100
AcDbSpline
 70
8
 71
3
 72
8
 73
4
 74
0
 40
0
 40
0
 40
0
 40
0
 40
1
 40
1
 40
1
 40
1
 10
60.789604
 20
-31.732505
 30
0.0
 10
60.789604
 20
-35.571663
 30
0.0
 10
57.672667
 20
-38.688601
 30
0.0
 10
53.833439
 20
-38.688601
 30
0.0
  0
SPLINE
  5
287
100
AcDbEntity
  8
0
 62
7
100
AcDbSpline
 70
8
 71
3
 72
8
 73
4
 74
0
 40
0
 40
0
 40
0
 40
0
 40
1
 40
1
 40
1
 40
1
 10
53.833439
 20
-38.688601
 30
0.0
 10
49.994280
 20
-38.688601
 30
0.0
 10
46.877343
 20
-35.571663
 30
0.0
 10
46.877343
 20
-31.732505
 30
0.0
  0
SPLINE
  5
288
100
AcDbEntity
  8
0
 62
7
100
AcDbSpline
 70
8
 71
3
 72
8
 73
4
 74
0
 40
0
 40
0
 40
0
 40
0
 40
1
 40
1
 40
1
 40
1
 10
46.877343
 20
-31.732505
 30
0.0
 10
46.877343
 20
-27.893277
 30
0.0
 10
49.994280
 20
-24.776339
 30
0.0
 10
53.833439
 20
-24.776339
 30
0.0
  0
LWPOLYLINE
  5
289
100
AcDbEntity
  8
0
 62
7
100
AcDbPolyline
 90
1
 70
1
 10
47.158453
 20
-28.616540
 30
0.0
  0
SPLINE
  5
28a
100
AcDbEntity
  8
0
 62
7
100
AcDbSpline
 70
8
 71
3
 72
8
 73
4
 74
0
 40
0
 40
0
 40
0
 40
0
 40
1
 40
1
 40
1
 40
1
 10
54.444410
 20
-26.032795
 30
0.0
 10
57.577597
 20
-26.032795
 30
0.0
 10
60.121342
 20
-28.576540
 30
0.0
 10
60.121342
 20
-31.709727
 30
0.0
  0
SPLINE
  5
28b
100
AcDbEntity
  8
0
 62
7
100
AcDbSpline
 70
8
 71
3
 72
8
 73
4
 74
0
 40
0
 40
0
 40
0
 40
0
 40
1
 40
1
 40
1
 40
1
 10
60.121342
 20
-31.709727
 30
0.0
 10
60.121342
 20
-34.842984
 30
0.0
 10
57.577597
 20
-37.386729
 30
0.0
 10
54.444410
 20
-37.386729
 30
0.0
  0
SPLINE
  5
28c
100
AcDbEntity
  8
0
 62
7
100
AcDbSpline
 70
8
 71
3
 72
8
 73
4
 74
0
 40
0
 40
0
 40
0
 40
0
 40
1
 40
1
 40
1
 40
1
 10
54.444410
 20
-37.386729
 30
0.0
 10
51.311222
 20
-37.386729
 30
0.0
 10
48.767408
 20
-34.842984
 30
0.0
 10
48.767408
 20
-31.709727
 30
0.0
  0
SPLINE
  5
28d
100
AcDbEntity
  8
0
 62
7
100
AcDbSpline
 70
8
 71
3
 72
8
 73
4
 74
0
 40
0
 40
0
 40
0
 40
0
 40
1
 40
1
 40
1
 40
1
 10
48.767408
 20
-31.709727
 30
0.0
 10
48.767408
 20
-28.576540
 30
0.0
 10
51.311222
 20
-26.032795
 30
0.0
 10
54.444410
 20
-26.032795
 30
0.0
  0
LWPOLYLINE
  5
28e
100
AcDbEntity
  8
0
 62
7
100
AcDbPolyline
 90
1
 70
1
 10
53.833439
 20
-24.776339
 30
0.0
  0
SPLINE
  5
28f
100
AcDbEntity
  8
0
 62
7
100
AcDbSpline
 70
8
 71
3
 72
8
 73
4
 74
0
 40
0
 40
0
 40
0
 40
0
 40
1
 40
1
 40
1
 40
1
 10
23.841238
 20
-37.285373
 30
0.0
 10
23.841238
 20
-37.285373
 30
0.0
 10
34.275559
 20
-35.161021
 30
0.0
 10
37.999176
 20
-35.241315
 30
0.0
  0
SPLINE
  5
290
100
AcDbEntity
  8
0
 62
7
100
AcDbSpline
 70
8
 71
3
 72
8
 73
4
 74
0
 40
0
 40
0
 40
0
 40
0
 40
1
 40
1
 40
1
 40
1
 10
37.999176
 20
-35.241315
 30
0.0
 10
48.043041
 20
-35.457885
 30
0.0
 10
48.651310
 20
-37.308245
 30
0.0
 10
48.651310
 20
-37.308245
 30
0.0
  0
SPLINE
  5
291
100
AcDbEntity
  8
0
 62
7
100
AcDbSpline
 70
8
 71
3
 72
8
 73
4
 74
0
 40
0
 40
0
 40
0
 40
0
 40
1
 40
1
 40
1
 40
1
 10
19.875579
 20
-22.801602
 30
0.0
 10
20.541247
 20
-22.830998
 30
0.0
 10
21.225749
 20
-23.059913
 30
0.0
 10
21.880878
 20
-22.956954
 30
0.0
  0
SPLINE
  5
292
100
AcDbEntity
  8
0
 62
7
100
AcDbSpline
 70
8
 71
3
 72
8
 73
4
 74
0
 40
0
 40
0
 40
0
 40
0
 40
1
 40
1
 40
1
 40
1
 10
21.880878
 20
-22.956954
 30
0.0
 10
22.731960
 20
-22.823197
 30
0.0
 10
23.713279
 20
-22.193736
 30
0.0
 10
24.365452
 20
-21.675850
 30
0.0
  0
SPLINE
  5
293
100
AcDbEntity
  8
0
 62
7
100
AcDbSpline
 70
8
 71
3
 72
8
 73
4
 74
0
 40
0
 40
0
 40
0
 40
0
 40
1
 40
1
 40
1
 40
1
 10
24.365452
 20
-21.675850
 30
0.0
 10
25.246263
 20
-20.976403
 30
0.0
 10
25.846950
 20
-20.046753
 30
0.0
 10
26.532407
 20
-19.171418
 30
0.0
  0
SPLINE
  5
294
100
AcDbEntity
  8
0
 62
7
100
AcDbSpline
 70
8
 71
3
 72
8
 73
4
 74
0
 40
0
 40
0
 40
0
 40
0
 40
1
 40
1
 40
1
 40
1
 10
26.532407
 20
-19.171418
 30
0.0
 10
26.948957
 20
-18.639461
 30
0.0
 10
28.337484
 20
-16.717390
 30
0.0
 10
29.069881
 20
-16.825779
 30
0.0
  0
SPLINE
  5
295
100
AcDbEntity
  8
0
 62
7
100
AcDbSpline
 70
8
 71
3
 72
8
 73
4
 74
0
 40
0
 40
0
 40
0
 40
0
 40
1
 40
1
 40
1
 40
1
 10
29.069881
 20
-16.825779
 30
0.0
 10
28.484920
 20
-17.681348
 30
0.0
 10
27.325400
 20
-19.390784
 30
0.0
 10
26.846401
 20
-20.112113
 30
0.0
  0
SPLINE
  5
296
100
AcDbEntity
  8
0
 62
7
100
AcDbSpline
 70
8
 71
3
 72
8
 73
4
 74
0
 40
0
 40
0
 40
0
 40
0
 40
1
 40
1
 40
1
 40
1
 10
26.846401
 20
-20.112113
 30
0.0
 10
26.207816
 20
-21.073735
 30
0.0
 10
26.242228
 20
-21.022366
 30
0.0
 10
25.602573
 20
-22.148268
 30
0.0
  0
SPLINE
  5
297
100
AcDbEntity
  8
0
 62
7
100
AcDbSpline
 70
8
 71
3
 72
8
 73
4
 74
0
 40
0
 40
0
 40
0
 40
0
 40
1
 40
1
 40
1
 40
1
 10
25.602573
 20
-22.148268
 30
0.0
 10
24.619068
 20
-23.879414
 30
0.0
 10
25.183848
 20
-25.351697
 30
0.0
 10
26.336718
 20
-28.386544
 30
0.0
  0
SPLINE
  5
298
100
AcDbEntity
  8
0
 62
7
100
AcDbSpline
 70
8
 71
3
 72
8
 73
4
 74
0
 40
0
 40
0
 40
0
 40
0
 40
1
 40
1
 40
1
 40
1
 10
26.336718
 20
-28.386544
 30
0.0
 10
26.384337
 20
-28.511913
 30
0.0
 10
26.357554
 20
-28.526663
 30
0.0
 10
26.277295
 20
-28.419218
 30
0.0
  0
SPLINE
  5
299
100
AcDbEntity
  8
0
 62
7
100
AcDbSpline
 70
8
 71
3
 72
8
 73
4
 74
0
 40
0
 40
0
 40
0
 40
0
 40
1
 40
1
 40
1
 40
1
 10
26.277295
 20
-28.419218
 30
0.0
 10
24.401198
 20
-25.907711
 30
0.0
 10
23.017698
 20
-25.326421
 30
0.0
 10
21.382619
 20
-24.606783
 30
0.0
  0
SPLINE
  5
29a
100
AcDbEntity
  8
0
 62
7
100
AcDbSpline
 70
8
 71
3
 72
8
 73
4
 74
0
 40
0
 40
0
 40
0
 40
0
 40
1
 40
1
 40
1
 40
1
 10
10.211632
 20
-27.306097
 30
0.0
 10
10.203130
 20
-27.143992
 30
0.0
 10
10.195882
 20
-26.981772
 30
0.0
 10
10.185838
 20
-26.819666
 30
0.0
  0
SPLINE
  5
29b
100
AcDbEntity
  8
0
 62
7
100
AcDbSpline
 70
8
 71
3
 72
8
 73
4
 74
0
 40
0
 40
0
 40
0
 40
0
 40
1
 40
1
 40
1
 40
1
 10
10.185838
 20
-26.819666
 30
0.0
 10
10.169121
 20
-26.549989
 30
0.0
 10
10.149666
 20
-26.280427
 30
0.0
 10
10.133088
 20
-26.010750
 30
0.0
  0
SPLINE
  5
29c
100
AcDbEntity
  8
0
 62
7
100
AcDbSpline
 70
8
 71
3
 72
8
 73
4
 74
0
 40
0
 40
0
 40
0
 40
0
 40
1
 40
1
 40
1
 40
1
 10
10.133088
 20
-26.010750
 30
0.0
 10
10.106511
 20
-25.578392
 30
0.0
 10
10.083202
 20
-25.145919
 30
0.0
 10
10.054992
 20
-24.713676
 30
0.0
  0
SPLINE
  5
29d
100
AcDbEntity
  8
0
 62
7
100
AcDbSpline
 70
8
 71
3
 72
8
 73
4
 74
0
 40
0
 40
0
 40
0
 40
0
 40
1
 40
1
 40
1
 40
1
 10
10.054992
 20
-24.713676
 30
0.0
 10
10.033777
 20
-24.388545
 30
0.0
 10
10.011468
 20
-24.063413
 30
0.0
 10
9.981912
 20
-23.739087
 30
0.0
  0
SPLINE
  5
29e
100
AcDbEntity
  8
0
 62
7
100
AcDbSpline
 70
8
 71
3
 72
8
 73
4
 74
0
 40
0
 40
0
 40
0
 40
0
 40
1
 40
1
 40
1
 40
1
 10
9.981912
 20
-23.739087
 30
0.0
 10
9.902792
 20
-22.870805
 30
0.0
 10
9.799983
 20
-22.006411
 30
0.0
 10
9.559460
 20
-21.164142
 30
0.0
  0
SPLINE
  5
29f
100
AcDbEntity
  8
0
 62
7
100
AcDbSpline
 70
8
 71
3
 72
8
 73
4
 74
0
 40
0
 40
0
 40
0
 40
0
 40
1
 40
1
 40
1
 40
1
 10
9.559460
 20
-21.164142
 30
0.0
 10
9.412737
 20
-20.650340
 30
0.0
 10
9.168048
 20
-20.184203
 30
0.0
 10
8.884278
 20
-19.736130
 30
0.0
  0
SPLINE
  5
2a0
100
AcDbEntity
  8
0
 62
7
100
AcDbSpline
 70
8
 71
3
 72
8
 73
4
 74
0
 40
0
 40
0
 40
0
 40
0
 40
1
 40
1
 40
1
 40
1
 10
8.884278
 20
-19.736130
 30
0.0
 10
8.520524
 20
-19.161765
 30
0.0
 10
8.098624
 20
-18.630280
 30
0.0
 10
7.673698
 20
-18.101131
 30
0.0
  0
SPLINE
  5
2a1
100
AcDbEntity
  8
0
 62
7
100
AcDbSpline
 70
8
 71
3
 72
8
 73
4
 74
0
 40
0
 40
0
 40
0
 40
0
 40
1
 40
1
 40
1
 40
1
 10
7.673698
 20
-18.101131
 30
0.0
 10
7.167168
 20
-17.470358
 30
0.0
 10
6.660430
 20
-16.839746
 30
0.0
 10
6.153865
 20
-16.208984
 30
0.0
  0
SPLINE
  5
2a2
100
AcDbEntity
  8
0
 62
7
100
AcDbSpline
 70
8
 71
3
 72
8
 73
4
 74
0
 40
0
 40
0
 40
0
 40
0
 40
1
 40
1
 40
1
 40
1
 10
6.153865
 20
-16.208984
 30
0.0
 10
6.141002
 20
-16.192969
 30
0.0
 10
6.129152
 20
-16.176137
 30
0.0
 10
6.110733
 20
-16.151563
 30
0.0
  0
SPLINE
  5
2a3
100
AcDbEntity
  8
0
 62
7
100
AcDbSpline
 70
8
 71
3
 72
8
 73
4
 74
0
 40
0
 40
0
 40
0
 40
0
 40
1
 40
1
 40
1
 40
1
 10
6.110733
 20
-16.151563
 30
0.0
 10
6.241475
 20
-16.134144
 30
0.0
 10
6.363693
 20
-16.117082
 30
0.0
 10
6.486118
 20
-16.101666
 30
0.0
  0
SPLINE
  5
2a4
100
AcDbEntity
  8
0
 62
7
100
AcDbSpline
 70
8
 71
3
 72
8
 73
4
 74
0
 40
0
 40
0
 40
0
 40
0
 40
1
 40
1
 40
1
 40
1
 10
6.486118
 20
-16.101666
 30
0.0
 10
7.245954
 20
-16.006036
 30
0.0
 10
8.007677
 20
-15.922694
 30
0.0
 10
8.756745
 20
-15.756447
 30
0.0
  0
SPLINE
  5
2a5
100
AcDbEntity
  8
0
 62
7
100
AcDbSpline
 70
8
 71
3
 72
8
 73
4
 74
0
 40
0
 40
0
 40
0
 40
0
 40
1
 40
1
 40
1
 40
1
 10
8.756745
 20
-15.756447
 30
0.0
 10
8.948027
 20
-15.713993
 30
0.0
 10
9.133464
 20
-15.654248
 30
0.0
 10
9.306189
 20
-15.559331
 30
0.0
  0
SPLINE
  5
2a6
100
AcDbEntity
  8
0
 62
7
100
AcDbSpline
 70
8
 71
3
 72
8
 73
4
 74
0
 40
0
 40
0
 40
0
 40
0
 40
1
 40
1
 40
1
 40
1
 10
9.306189
 20
-15.559331
 30
0.0
 10
9.626523
 20
-15.383293
 30
0.0
 10
9.795059
 20
-15.106598
 30
0.0
 10
9.844980
 20
-14.750311
 30
0.0
  0
SPLINE
  5
2a7
100
AcDbEntity
  8
0
 62
7
100
AcDbSpline
 70
8
 71
3
 72
8
 73
4
 74
0
 40
0
 40
0
 40
0
 40
0
 40
1
 40
1
 40
1
 40
1
 10
9.844980
 20
-14.750311
 30
0.0
 10
9.897868
 20
-14.372821
 30
0.0
 10
9.835350
 20
-14.006306
 30
0.0
 10
9.711406
 20
-13.653632
 30
0.0
  0
SPLINE
  5
2a8
100
AcDbEntity
  8
0
 62
7
100
AcDbSpline
 70
8
 71
3
 72
8
 73
4
 74
0
 40
0
 40
0
 40
0
 40
0
 40
1
 40
1
 40
1
 40
1
 10
9.711406
 20
-13.653632
 30
0.0
 10
9.498886
 20
-13.048986
 30
0.0
 10
9.271582
 20
-12.449438
 30
0.0
 10
9.044542
 20
-11.850004
 30
0.0
  0
SPLINE
  5
2a9
100
AcDbEntity
  8
0
 62
7
100
AcDbSpline
 70
8
 71
3
 72
8
 73
4
 74
0
 40
0
 40
0
 40
0
 40
0
 40
1
 40
1
 40
1
 40
1
 10
9.044542
 20
-11.850004
 30
0.0
 10
8.892722
 20
-11.449124
 30
0.0
 10
8.730605
 20
-11.052144
 30
0.0
 10
8.573182
 20
-10.653381
 30
0.0
  0
SPLINE
  5
2aa
100
AcDbEntity
  8
0
 62
7
100
AcDbSpline
 70
8
 71
3
 72
8
 73
4
 74
0
 40
0
 40
0
 40
0
 40
0
 40
1
 40
1
 40
1
 40
1
 10
8.573182
 20
-10.653381
 30
0.0
 10
8.566233
 20
-10.635778
 30
0.0
 10
8.560147
 20
-10.617819
 30
0.0
 10
8.548757
 20
-10.586571
 30
0.0
  0
SPLINE
  5
2ab
100
AcDbEntity
  8
0
 62
7
100
AcDbSpline
 70
8
 71
3
 72
8
 73
4
 74
0
 40
0
 40
0
 40
0
 40
0
 40
1
 40
1
 40
1
 40
1
 10
8.548757
 20
-10.586571
 30
0.0
 10
8.577635
 20
-10.596489
 30
0.0
 10
8.596158
 20
-10.601873
 30
0.0
 10
8.613945
 20
-10.609087
 30
0.0
  0
SPLINE
  5
2ac
100
AcDbEntity
  8
0
 62
7
100
AcDbSpline
 70
8
 71
3
 72
8
 73
4
 74
0
 40
0
 40
0
 40
0
 40
0
 40
1
 40
1
 40
1
 40
1
 10
8.613945
 20
-10.609087
 30
0.0
 10
9.804194
 20
-11.091445
 30
0.0
 10
10.997217
 20
-11.567142
 30
0.0
 10
12.183497
 20
-12.059073
 30
0.0
  0
SPLINE
  5
2ad
100
AcDbEntity
  8
0
 62
7
100
AcDbSpline
 70
8
 71
3
 72
8
 73
4
 74
0
 40
0
 40
0
 40
0
 40
0
 40
1
 40
1
 40
1
 40
1
 10
12.183497
 20
-12.059073
 30
0.0
 10
12.863592
 20
-12.341107
 30
0.0
 10
13.568446
 20
-12.538751
 30
0.0
 10
14.279271
 20
-12.716469
 30
0.0
  0
SPLINE
  5
2ae
100
AcDbEntity
  8
0
 62
7
100
AcDbSpline
 70
8
 71
3
 72
8
 73
4
 74
0
 40
0
 40
0
 40
0
 40
0
 40
1
 40
1
 40
1
 40
1
 10
14.279271
 20
-12.716469
 30
0.0
 10
16.144945
 20
-13.182939
 30
0.0
 10
18.013426
 20
-13.638123
 30
0.0
 10
19.880147
 20
-14.100474
 30
0.0
  0
SPLINE
  5
2af
100
AcDbEntity
  8
0
 62
7
100
AcDbSpline
 70
8
 71
3
 72
8
 73
4
 74
0
 40
0
 40
0
 40
0
 40
0
 40
1
 40
1
 40
1
 40
1
 10
19.880147
 20
-14.100474
 30
0.0
 10
21.278741
 20
-14.446867
 30
0.0
 10
22.677530
 20
-14.792558
 30
0.0
 10
24.073777
 20
-15.148534
 30
0.0
  0
SPLINE
  5
2b0
100
AcDbEntity
  8
0
 62
7
100
AcDbSpline
 70
8
 71
3
 72
8
 73
4
 74
0
 40
0
 40
0
 40
0
 40
0
 40
1
 40
1
 40
1
 40
1
 10
24.073777
 20
-15.148534
 30
0.0
 10
24.618884
 20
-15.287537
 30
0.0
 10
25.150530
 20
-15.473964
 30
0.0
 10
25.675963
 20
-15.676004
 30
0.0
  0
SPLINE
  5
2b1
100
AcDbEntity
  8
0
 62
7
100
AcDbSpline
 70
8
 71
3
 72
8
 73
4
 74
0
 40
0
 40
0
 40
0
 40
0
 40
1
 40
1
 40
1
 40
1
 10
25.675963
 20
-15.676004
 30
0.0
 10
25.753737
 20
-15.705917
 30
0.0
 10
25.828749
 20
-15.747990
 30
0.0
 10
25.897434
 20
-15.795575
 30
0.0
  0
SPLINE
  5
2b2
100
AcDbEntity
  8
0
 62
7
100
AcDbSpline
 70
8
 71
3
 72
8
 73
4
 74
0
 40
0
 40
0
 40
0
 40
0
 40
1
 40
1
 40
1
 40
1
 10
25.897434
 20
-15.795575
 30
0.0
 10
26.035494
 20
-15.891320
 30
0.0
 10
26.107631
 20
-16.030150
 30
0.0
 10
26.133057
 20
-16.194684
 30
0.0
  0
SPLINE
  5
2b3
100
AcDbEntity
  8
0
 62
7
100
AcDbSpline
 70
8
 71
3
 72
8
 73
4
 74
0
 40
0
 40
0
 40
0
 40
0
 40
1
 40
1
 40
1
 40
1
 10
26.133057
 20
-16.194684
 30
0.0
 10
26.135933
 20
-16.213276
 30
0.0
 10
26.141685
 20
-16.231430
 30
0.0
 10
26.146057
 20
-16.249781
 30
0.0
  0
LWPOLYLINE
  5
2b4
100
AcDbEntity
  8
0
 62
7
100
AcDbPolyline
 90
1
 70
1
 10
54.444410
 20
-26.032795
 30
0.0
  0
SPLINE
  5
2b5
100
AcDbEntity
  8
0
 62
7
100
AcDbSpline
 70
8
 71
3
 72
8
 73
4
 74
0
 40
0
 40
0
 40
0
 40
0
 40
1
 40
1
 40
1
 40
1
 10
26.146057
 20
-16.514396
 30
0.0
 10
26.135358
 20
-16.593700
 30
0.0
 10
26.126384
 20
-16.673315
 30
0.0
 10
26.113383
 20
-16.752250
 30
0.0
  0
SPLINE
  5
2b6
100
AcDbEntity
  8
0
 62
7
100
AcDbSpline
 70
8
 71
3
 72
8
 73
4
 74
0
 40
0
 40
0
 40
0
 40
0
 40
1
 40
1
 40
1
 40
1
 10
26.113383
 20
-16.752250
 30
0.0
 10
26.072771
 20
-16.999677
 30
0.0
 10
26.027671
 20
-17.246413
 30
0.0
 10
25.989704
 20
-17.494231
 30
0.0
  0
SPLINE
  5
2b7
100
AcDbEntity
  8
0
 62
7
100
AcDbSpline
 70
8
 71
3
 72
8
 73
4
 74
0
 40
0
 40
0
 40
0
 40
0
 40
1
 40
1
 40
1
 40
1
 10
25.989704
 20
-17.494231
 30
0.0
 10
25.927923
 20
-17.897343
 30
0.0
 10
25.870398
 20
-18.301099
 30
0.0
 10
25.810917
 20
-18.704580
 30
0.0
  0
SPLINE
  5
2b8
100
AcDbEntity
  8
0
 62
7
100
AcDbSpline
 70
8
 71
3
 72
8
 73
4
 74
0
 40
0
 40
0
 40
0
 40
0
 40
1
 40
1
 40
1
 40
1
 10
25.810917
 20
-18.704580
 30
0.0
 10
25.802633
 20
-18.760989
 30
0.0
 10
25.794119
 20
-18.817352
 30
0.0
 10
25.784455
 20
-18.881849
 30
0.0
  0
SPLINE
  5
2b9
100
AcDbEntity
  8
0
 62
7
100
AcDbSpline
 70
8
 71
3
 72
8
 73
4
 74
0
 40
0
 40
0
 40
0
 40
0
 40
1
 40
1
 40
1
 40
1
 10
25.784455
 20
-18.881849
 30
0.0
 10
25.725550
 20
-18.851614
 30
0.0
 10
25.663883
 20
-18.832423
 30
0.0
 10
25.619819
 20
-18.793364
 30
0.0
  0
SPLINE
  5
2ba
100
AcDbEntity
  8
0
 62
7
100
AcDbSpline
 70
8
 71
3
 72
8
 73
4
 74
0
 40
0
 40
0
 40
0
 40
0
 40
1
 40
1
 40
1
 40
1
 10
25.619819
 20
-18.793364
 30
0.0
 10
25.584843
 20
-18.762404
 30
0.0
 10
25.557001
 20
-18.708871
 30
0.0
 10
25.551249
 20
-18.662264
 30
0.0
  0
SPLINE
  5
2bb
100
AcDbEntity
  8
0
 62
7
100
AcDbSpline
 70
8
 71
3
 72
8
 73
4
 74
0
 40
0
 40
0
 40
0
 40
0
 40
1
 40
1
 40
1
 40
1
 10
25.551249
 20
-18.662264
 30
0.0
 10
25.533071
 20
-18.514172
 30
0.0
 10
25.530885
 20
-18.364193
 30
0.0
 10
25.515123
 20
-18.215721
 30
0.0
  0
SPLINE
  5
2bc
100
AcDbEntity
  8
0
 62
7
100
AcDbSpline
 70
8
 71
3
 72
8
 73
4
 74
0
 40
0
 40
0
 40
0
 40
0
 40
1
 40
1
 40
1
 40
1
 10
25.515123
 20
-18.215721
 30
0.0
 10
25.447589
 20
-17.579839
 30
0.0
 10
25.118661
 20
-17.128544
 30
0.0
 10
24.530755
 20
-16.883315
 30
0.0
  0
SPLINE
  5
2bd
100
AcDbEntity
  8
0
 62
7
100
AcDbSpline
 70
8
 71
3
 72
8
 73
4
 74
0
 40
0
 40
0
 40
0
 40
0
 40
1
 40
1
 40
1
 40
1
 10
24.530755
 20
-16.883315
 30
0.0
 10
24.256476
 20
-16.768875
 30
0.0
 10
23.967356
 20
-16.686568
 30
0.0
 10
23.680536
 20
-16.605493
 30
0.0
  0
SPLINE
  5
2be
100
AcDbEntity
  8
0
 62
7
100
AcDbSpline
 70
8
 71
3
 72
8
 73
4
 74
0
 40
0
 40
0
 40
0
 40
0
 40
1
 40
1
 40
1
 40
1
 10
23.680536
 20
-16.605493
 30
0.0
 10
20.570700
 20
-15.726418
 30
0.0
 10
17.460703
 20
-14.847747
 30
0.0
 10
14.348945
 20
-13.975323
 30
0.0
  0
SPLINE
  5
2bf
100
AcDbEntity
  8
0
 62
7
100
AcDbSpline
 70
8
 71
3
 72
8
 73
4
 74
0
 40
0
 40
0
 40
0
 40
0
 40
1
 40
1
 40
1
 40
1
 10
14.348945
 20
-13.975323
 30
0.0
 10
13.383618
 20
-13.704668
 30
0.0
 10
12.412907
 20
-13.453238
 30
0.0
 10
11.444589
 20
-13.193294
 30
0.0
  0
SPLINE
  5
2c0
100
AcDbEntity
  8
0
 62
7
100
AcDbSpline
 70
8
 71
3
 72
8
 73
4
 74
0
 40
0
 40
0
 40
0
 40
0
 40
1
 40
1
 40
1
 40
1
 10
11.444589
 20
-13.193294
 30
0.0
 10
11.408348
 20
-13.183572
 30
0.0
 10
11.371325
 20
-13.176784
 30
0.0
 10
11.327238
 20
-13.166982
 30
0.0
  0
SPLINE
  5
2c1
100
AcDbEntity
  8
0
 62
7
100
AcDbSpline
 70
8
 71
3
 72
8
 73
4
 74
0
 40
0
 40
0
 40
0
 40
0
 40
1
 40
1
 40
1
 40
1
 10
11.327238
 20
-13.166982
 30
0.0
 10
11.348833
 20
-13.296378
 30
0.0
 10
11.370071
 20
-13.418251
 30
0.0
 10
11.389399
 20
-13.540445
 30
0.0
  0
SPLINE
  5
2c2
100
AcDbEntity
  8
0
 62
7
100
AcDbSpline
 70
8
 71
3
 72
8
 73
4
 74
0
 40
0
 40
0
 40
0
 40
0
 40
1
 40
1
 40
1
 40
1
 10
11.389399
 20
-13.540445
 30
0.0
 10
11.469520
 20
-14.047218
 30
0.0
 10
11.515080
 20
-14.556164
 30
0.0
 10
11.473949
 20
-15.069448
 30
0.0
  0
SPLINE
  5
2c3
100
AcDbEntity
  8
0
 62
7
100
AcDbSpline
 70
8
 71
3
 72
8
 73
4
 74
0
 40
0
 40
0
 40
0
 40
0
 40
1
 40
1
 40
1
 40
1
 10
11.473949
 20
-15.069448
 30
0.0
 10
11.385004
 20
-16.179359
 30
0.0
 10
10.865139
 20
-17.030579
 30
0.0
 10
9.930968
 20
-17.631969
 30
0.0
  0
SPLINE
  5
2c4
100
AcDbEntity
  8
0
 62
7
100
AcDbSpline
 70
8
 71
3
 72
8
 73
4
 74
0
 40
0
 40
0
 40
0
 40
0
 40
1
 40
1
 40
1
 40
1
 10
9.930968
 20
-17.631969
 30
0.0
 10
9.915137
 20
-17.642162
 30
0.0
 10
9.899824
 20
-17.653138
 30
0.0
 10
9.880703
 20
-17.666173
 30
0.0
  0
SPLINE
  5
2c5
100
AcDbEntity
  8
0
 62
7
100
AcDbSpline
 70
8
 71
3
 72
8
 73
4
 74
0
 40
0
 40
0
 40
0
 40
0
 40
1
 40
1
 40
1
 40
1
 10
9.880703
 20
-17.666173
 30
0.0
 10
9.931773
 20
-17.779578
 30
0.0
 10
9.982303
 20
-17.890613
 30
0.0
 10
10.031867
 20
-18.002084
 30
0.0
  0
SPLINE
  5
2c6
100
AcDbEntity
  8
0
 62
7
100
AcDbSpline
 70
8
 71
3
 72
8
 73
4
 74
0
 40
0
 40
0
 40
0
 40
0
 40
1
 40
1
 40
1
 40
1
 10
10.031867
 20
-18.002084
 30
0.0
 10
10.378075
 20
-18.780674
 30
0.0
 10
10.657279
 20
-19.581537
 30
0.0
 10
10.837458
 20
-20.415649
 30
0.0
  0
SPLINE
  5
2c7
100
AcDbEntity
  8
0
 62
7
100
AcDbSpline
 70
8
 71
3
 72
8
 73
4
 74
0
 40
0
 40
0
 40
0
 40
0
 40
1
 40
1
 40
1
 40
1
 10
10.837458
 20
-20.415649
 30
0.0
 10
10.996883
 20
-21.153638
 30
0.0
 10
11.062795
 20
-21.899024
 30
0.0
 10
11.032848
 20
-22.653936
 30
0.0
  0
SPLINE
  5
2c8
100
AcDbEntity
  8
0
 62
7
100
AcDbSpline
 70
8
 71
3
 72
8
 73
4
 74
0
 40
0
 40
0
 40
0
 40
0
 40
1
 40
1
 40
1
 40
1
 10
11.032848
 20
-22.653936
 30
0.0
 10
11.010954
 20
-23.205831
 30
0.0
 10
10.968719
 20
-23.755770
 30
0.0
 10
10.898872
 20
-24.303408
 30
0.0
  0
SPLINE
  5
2c9
100
AcDbEntity
  8
0
 62
7
100
AcDbSpline
 70
8
 71
3
 72
8
 73
4
 74
0
 40
0
 40
0
 40
0
 40
0
 40
1
 40
1
 40
1
 40
1
 10
10.898872
 20
-24.303408
 30
0.0
 10
10.789298
 20
-25.162601
 30
0.0
 10
10.640654
 20
-26.014316
 30
0.0
 10
10.383770
 20
-26.843827
 30
0.0
  0
SPLINE
  5
2ca
100
AcDbEntity
  8
0
 62
7
100
AcDbSpline
 70
8
 71
3
 72
8
 73
4
 74
0
 40
0
 40
0
 40
0
 40
0
 40
1
 40
1
 40
1
 40
1
 10
10.383770
 20
-26.843827
 30
0.0
 10
10.355019
 20
-26.936672
 30
0.0
 10
10.323208
 20
-27.028482
 30
0.0
 10
10.288543
 20
-27.133868
 30
0.0
  0
SPLINE
  5
2cb
100
AcDbEntity
  8
0
 62
7
100
AcDbSpline
 70
8
 71
3
 72
8
 73
4
 74
0
 40
0
 40
0
 40
0
 40
0
 40
1
 40
1
 40
1
 40
1
 10
10.288543
 20
-27.133868
 30
0.0
 10
10.303626
 20
-27.119601
 30
0.0
 10
10.310518
 20
-27.115114
 30
0.0
 10
10.314821
 20
-27.108787
 30
0.0
  0
SPLINE
  5
2cc
100
AcDbEntity
  8
0
 62
7
100
AcDbSpline
 70
8
 71
3
 72
8
 73
4
 74
0
 40
0
 40
0
 40
0
 40
0
 40
1
 40
1
 40
1
 40
1
 10
10.314821
 20
-27.108787
 30
0.0
 10
10.643553
 20
-26.627418
 30
0.0
 10
11.050266
 20
-26.215654
 30
0.0
 10
11.471717
 20
-25.817811
 30
0.0
  0
SPLINE
  5
2cd
100
AcDbEntity
  8
0
 62
7
100
AcDbSpline
 70
8
 71
3
 72
8
 73
4
 74
0
 40
0
 40
0
 40
0
 40
0
 40
1
 40
1
 40
1
 40
1
 10
11.471717
 20
-25.817811
 30
0.0
 10
12.160499
 20
-25.167433
 30
0.0
 10
12.911580
 20
-24.601387
 30
0.0
 10
13.745888
 20
-24.149010
 30
0.0
  0
SPLINE
  5
2ce
100
AcDbEntity
  8
0
 62
7
100
AcDbSpline
 70
8
 71
3
 72
8
 73
4
 74
0
 40
0
 40
0
 40
0
 40
0
 40
1
 40
1
 40
1
 40
1
 10
13.745888
 20
-24.149010
 30
0.0
 10
14.522843
 20
-23.727697
 30
0.0
 10
15.344473
 20
-23.423965
 30
0.0
 10
16.201250
 20
-23.211353
 30
0.0
  0
SPLINE
  5
2cf
100
AcDbEntity
  8
0
 62
7
100
AcDbSpline
 70
8
 71
3
 72
8
 73
4
 74
0
 40
0
 40
0
 40
0
 40
0
 40
1
 40
1
 40
1
 40
1
 10
16.201250
 20
-23.211353
 30
0.0
 10
16.753306
 20
-23.074443
 30
0.0
 10
17.308952
 20
-22.954791
 30
0.0
 10
17.871328
 20
-22.869654
 30
0.0
  0
SPLINE
  5
2d0
100
AcDbEntity
  8
0
 62
7
100
AcDbSpline
 70
8
 71
3
 72
8
 73
4
 74
0
 40
0
 40
0
 40
0
 40
0
 40
1
 40
1
 40
1
 40
1
 10
17.871328
 20
-22.869654
 30
0.0
 10
18.372670
 20
-22.793721
 30
0.0
 10
18.877716
 20
-22.768180
 30
0.0
 10
19.384638
 20
-22.781296
 30
0.0
  0
SPLINE
  5
2d1
100
AcDbEntity
  8
0
 62
7
100
AcDbSpline
 70
8
 71
3
 72
8
 73
4
 74
0
 40
0
 40
0
 40
0
 40
0
 40
1
 40
1
 40
1
 40
1
 10
19.384638
 20
-22.781296
 30
0.0
 10
19.465138
 20
-22.783367
 30
0.0
 10
19.545800
 20
-22.782792
 30
0.0
 10
19.626059
 20
-22.788314
 30
0.0
  0
SPLINE
  5
2d2
100
AcDbEntity
  8
0
 62
7
100
AcDbSpline
 70
8
 71
3
 72
8
 73
4
 74
0
 40
0
 40
0
 40
0
 40
0
 40
1
 40
1
 40
1
 40
1
 10
19.626059
 20
-22.788314
 30
0.0
 10
19.649483
 20
-22.789925
 30
0.0
 10
19.678855
 20
-22.802350
 30
0.0
 10
19.693536
 20
-22.819838
 30
0.0
  0
SPLINE
  5
2d3
100
AcDbEntity
  8
0
 62
7
100
AcDbSpline
 70
8
 71
3
 72
8
 73
4
 74
0
 40
0
 40
0
 40
0
 40
0
 40
1
 40
1
 40
1
 40
1
 10
19.693536
 20
-22.819838
 30
0.0
 10
20.177574
 20
-23.397159
 30
0.0
 10
20.660163
 20
-23.975745
 30
0.0
 10
21.142855
 20
-24.554217
 30
0.0
  0
SPLINE
  5
2d4
100
AcDbEntity
  8
0
 62
7
100
AcDbSpline
 70
8
 71
3
 72
8
 73
4
 74
0
 40
0
 40
0
 40
0
 40
0
 40
1
 40
1
 40
1
 40
1
 10
21.142855
 20
-24.554217
 30
0.0
 10
21.147192
 20
-24.559394
 30
0.0
 10
21.150103
 20
-24.565722
 30
0.0
 10
21.156811
 20
-24.576651
 30
0.0
  0
SPLINE
  5
2d5
100
AcDbEntity
  8
0
 62
7
100
AcDbSpline
 70
8
 71
3
 72
8
 73
4
 74
0
 40
0
 40
0
 40
0
 40
0
 40
1
 40
1
 40
1
 40
1
 10
21.156811
 20
-24.576651
 30
0.0
 10
21.013688
 20
-24.522118
 30
0.0
 10
20.877780
 20
-24.466779
 30
0.0
 10
20.739536
 20
-24.418227
 30
0.0
  0
SPLINE
  5
2d6
100
AcDbEntity
  8
0
 62
7
100
AcDbSpline
 70
8
 71
3
 72
8
 73
4
 74
0
 40
0
 40
0
 40
0
 40
0
 40
1
 40
1
 40
1
 40
1
 10
20.739536
 20
-24.418227
 30
0.0
 10
20.235858
 20
-24.241165
 30
0.0
 10
19.717363
 20
-24.125425
 30
0.0
 10
19.189847
 20
-24.047076
 30
0.0
  0
SPLINE
  5
2d7
100
AcDbEntity
  8
0
 62
7
100
AcDbSpline
 70
8
 71
3
 72
8
 73
4
 74
0
 40
0
 40
0
 40
0
 40
0
 40
1
 40
1
 40
1
 40
1
 10
19.189847
 20
-24.047076
 30
0.0
 10
18.705383
 20
-23.975170
 30
0.0
 10
18.218273
 20
-23.938354
 30
0.0
 10
17.728827
 20
-23.949859
 30
0.0
  0
SPLINE
  5
2d8
100
AcDbEntity
  8
0
 62
7
100
AcDbSpline
 70
8
 71
3
 72
8
 73
4
 74
0
 40
0
 40
0
 40
0
 40
0
 40
1
 40
1
 40
1
 40
1
 10
17.728827
 20
-23.949859
 30
0.0
 10
16.868506
 20
-23.970108
 30
0.0
 10
16.016561
 20
-24.060307
 30
0.0
 10
15.182690
 20
-24.283964
 30
0.0
  0
SPLINE
  5
2d9
100
AcDbEntity
  8
0
 62
7
100
AcDbSpline
 70
8
 71
3
 72
8
 73
4
 74
0
 40
0
 40
0
 40
0
 40
0
 40
1
 40
1
 40
1
 40
1
 10
15.182690
 20
-24.283964
 30
0.0
 10
14.164578
 20
-24.556978
 30
0.0
 10
13.228784
 20
-25.007514
 30
0.0
 10
12.356130
 20
-25.594844
 30
0.0
  0
SPLINE
  5
2da
100
AcDbEntity
  8
0
 62
7
100
AcDbSpline
 70
8
 71
3
 72
8
 73
4
 74
0
 40
0
 40
0
 40
0
 40
0
 40
1
 40
1
 40
1
 40
1
 10
12.356130
 20
-25.594844
 30
0.0
 10
11.823655
 20
-25.953225
 30
0.0
 10
11.334233
 20
-26.365449
 30
0.0
 10
10.851034
 20
-26.785956
 30
0.0
  0
SPLINE
  5
2db
100
AcDbEntity
  8
0
 62
7
100
AcDbSpline
 70
8
 71
3
 72
8
 73
4
 74
0
 40
0
 40
0
 40
0
 40
0
 40
1
 40
1
 40
1
 40
1
 10
10.851034
 20
-26.785956
 30
0.0
 10
10.678954
 20
-26.935752
 30
0.0
 10
10.504193
 20
-27.082325
 30
0.0
 10
10.329754
 20
-27.229359
 30
0.0
  0
SPLINE
  5
2dc
100
AcDbEntity
  8
0
 62
7
100
AcDbSpline
 70
8
 71
3
 72
8
 73
4
 74
0
 40
0
 40
0
 40
0
 40
0
 40
1
 40
1
 40
1
 40
1
 10
10.329754
 20
-27.229359
 30
0.0
 10
10.296378
 20
-27.257546
 30
0.0
 10
10.258791
 20
-27.280671
 30
0.0
 10
10.223137
 20
-27.306097
 30
0.0
  0
LWPOLYLINE
  5
2dd
100
AcDbEntity
  8
0
 62
7
100
AcDbPolyline
 90
2
 70
0
 10
26.146057
 20
-16.249781
 30
0.0
 10
26.146057
 20
-16.514396
 30
0.0
  0
LWPOLYLINE
  5
2de
100
AcDbEntity
  8
0
 62
7
100
AcDbPolyline
 90
3
 70
0
 10
10.223137
 20
-27.306097
 30
0.0
 10
10.211632
 20
-27.306097
 30
0.0
 10
10.211632
 20
-27.306097
 30
0.0
  0
ENDSEC
  0
SECTION
  2
OBJECTS
  0
DICTIONARY
  5
C
330
0
100
AcDbDictionary
  3
ACAD_GROUP
350
D
  3
ACAD_MLINESTYLE
350
17
  0
DICTIONARY
  5
D
330
C
100
AcDbDictionary
  0
DICTIONARY
  5
1A
330
C
100
AcDbDictionary
  0
DICTIONARY
  5
17
330
C
100
AcDbDictionary
  3
STANDARD
350
18
  0
DICTIONARY
  5
19
330
C
100
AcDbDictionary
  0
ENDSEC
  0
EOF
