<?xml version="1.0" encoding="UTF-8" standalone="no"?>
<svg
   xmlns:dc="http://purl.org/dc/elements/1.1/"
   xmlns:cc="http://creativecommons.org/ns#"
   xmlns:rdf="http://www.w3.org/1999/02/22-rdf-syntax-ns#"
   xmlns:svg="http://www.w3.org/2000/svg"
   xmlns="http://www.w3.org/2000/svg"
   xmlns:sodipodi="http://sodipodi.sourceforge.net/DTD/sodipodi-0.dtd"
   xmlns:inkscape="http://www.inkscape.org/namespaces/inkscape"
   width="100%"
   height="100%"
   viewBox="0 0 1080 1080"
   version="1.1"
   xml:space="preserve"
   style="fill-rule:evenodd;clip-rule:evenodd;stroke-linejoin:round;stroke-miterlimit:2;"
   id="svg148"
   sodipodi:docname="LogoFSCH-BW.svg"
   inkscape:version="0.92.4 (5da689c313, 2019-01-14)"><metadata
   id="metadata154"><rdf:RDF><cc:Work
       rdf:about=""><dc:format>image/svg+xml</dc:format><dc:type
         rdf:resource="http://purl.org/dc/dcmitype/StillImage" /><dc:title></dc:title></cc:Work></rdf:RDF></metadata><defs
   id="defs152" /><sodipodi:namedview
   pagecolor="#ffffff"
   bordercolor="#666666"
   borderopacity="1"
   objecttolerance="10"
   gridtolerance="10"
   guidetolerance="10"
   inkscape:pageopacity="0"
   inkscape:pageshadow="2"
   inkscape:window-width="1920"
   inkscape:window-height="996"
   id="namedview150"
   showgrid="false"
   inkscape:zoom="0.21851852"
   inkscape:cx="540"
   inkscape:cy="540"
   inkscape:window-x="-8"
   inkscape:window-y="-8"
   inkscape:window-maximized="1"
   inkscape:current-layer="svg148" />
    <g
   transform="matrix(0.165672,0,0,0.165672,59.299,219.683)"
   id="g146">
        <g
   transform="matrix(1,0,0,1,749.684,3190.65)"
   id="g4">
            <path
   d="M0,-326.641L210.706,-326.641L196.904,-260.392L61.188,-260.392L46.466,-190.003L157.799,-190.003L144.918,-128.816L33.124,-128.816L5.981,0L-69.468,0L0,-326.641Z"
   style="fill-rule:nonzero;"
   id="path2" />
        </g>
        <g
   transform="matrix(1,0,0,1,1102.55,2929.34)"
   id="g8">
            <path
   d="M0,196.903C15.944,196.903 30.206,193.072 42.785,185.402C55.358,177.739 66.018,167.999 74.759,156.188C83.5,144.385 90.243,131.273 95.002,116.853C99.753,102.441 102.133,88.33 102.133,74.528C102.133,64.407 100.903,54.904 98.452,46.005C95.994,37.113 92.313,29.213 87.411,22.312C82.501,15.411 76.211,9.969 68.548,5.98C60.878,1.998 51.828,-0.001 41.405,-0.001C25.763,-0.001 11.573,3.758 -1.15,11.27C-13.881,18.79 -24.613,28.372 -33.354,40.024C-42.095,51.683 -48.845,64.716 -53.597,79.129C-58.355,93.549 -60.728,107.652 -60.728,121.454C-60.728,131.575 -59.505,141.165 -57.047,150.208C-54.596,159.257 -50.915,167.229 -46.005,174.131C-41.103,181.031 -34.813,186.552 -27.143,190.692C-19.48,194.833 -10.43,196.903 0,196.903M-14.722,264.072C-34.662,264.072 -52.295,260.319 -67.628,252.8C-82.968,245.289 -95.85,235.167 -106.273,222.436C-116.703,209.713 -124.604,195.142 -129.966,178.731C-135.336,162.327 -138.017,145.226 -138.017,127.435C-138.017,110.873 -135.565,94.62 -130.656,78.669C-125.753,62.725 -118.924,47.543 -110.184,33.123C-101.442,18.711 -91.091,5.369 -79.129,-6.902C-67.168,-19.165 -53.906,-29.746 -39.335,-38.646C-24.771,-47.537 -9.359,-54.518 6.901,-59.578C23.154,-64.639 39.867,-67.169 57.047,-67.169C76.671,-67.169 94.153,-63.33 109.494,-55.667C124.826,-47.997 137.629,-37.876 147.908,-25.304C158.181,-12.724 166.001,1.84 171.371,18.401C176.734,34.964 179.422,51.985 179.422,69.467C179.422,94.008 174.131,117.931 163.55,141.236C152.969,164.549 138.707,185.33 120.765,203.574C102.823,221.826 82.192,236.468 58.887,247.509C35.575,258.55 11.042,264.072 -14.722,264.072"
   style="fill-rule:nonzero;"
   id="path6" />
        </g>
        <g
   transform="matrix(1,0,0,1,1488.07,3035.15)"
   id="g12">
            <path
   d="M0,-15.641C4.601,-15.641 9.201,-17.093 13.802,-20.012C18.402,-22.923 22.543,-26.912 26.223,-31.973C29.904,-37.034 32.894,-42.936 35.194,-49.686C37.495,-56.428 38.645,-63.638 38.645,-71.308C38.645,-81.429 36.496,-89.552 32.204,-95.691C27.905,-101.823 22.694,-104.892 16.562,-104.892L-43.706,-104.892L-62.568,-15.641L0,-15.641ZM-174.361,155.5L-104.893,-171.141L35.424,-171.141C48.306,-171.141 59.728,-168.531 69.699,-163.32C79.662,-158.101 88.101,-151.2 95.001,-142.617C101.902,-134.027 107.193,-124.215 110.874,-113.173C114.554,-102.132 116.394,-90.782 116.394,-79.129C116.394,-67.779 114.626,-56.586 111.104,-45.545C107.574,-34.503 102.665,-23.995 96.382,-14.032C90.092,-4.061 82.58,5.061 73.839,13.342C65.098,21.624 55.509,28.524 45.085,34.045L86.951,155.5L1.84,155.5L-34.044,50.147L-76.83,50.147L-98.912,155.5L-174.361,155.5Z"
   style="fill-rule:nonzero;"
   id="path10" />
        </g>
        <g
   transform="matrix(1,0,0,1,1706.13,3190.65)"
   id="g16">
            <path
   d="M0,-326.641L81.89,-326.641L122.375,-155.959L235.549,-326.641L317.439,-326.641L247.971,0L172.062,0L213.926,-195.525L120.535,-53.367L80.05,-53.367L47.846,-195.525L5.981,0L-69.468,0L0,-326.641Z"
   style="fill-rule:nonzero;"
   id="path14" />
        </g>
        <g
   transform="matrix(1,0,0,1,2174.47,2864.01)"
   id="g20">
            <path
   d="M0,329.401C-19.94,329.401 -36.804,326.568 -50.606,320.889C-64.408,315.218 -75.679,307.397 -84.42,297.426C-93.161,287.463 -99.53,275.653 -103.513,262.003C-107.502,248.359 -109.493,233.709 -109.493,218.067C-109.493,201.505 -107.653,184.483 -103.973,167.001L-68.088,0L7.361,0L-28.523,167.001C-31.284,180.501 -32.664,192.922 -32.664,204.265C-32.664,212.547 -31.823,220.216 -30.133,227.268C-28.452,234.327 -25.763,240.459 -22.083,245.671C-18.402,250.889 -13.571,254.951 -7.591,257.862C-1.61,260.78 5.672,262.232 14.262,262.232C25.914,262.232 36.345,259.551 45.546,254.181C54.747,248.819 62.719,241.688 69.469,232.789C76.211,223.897 81.89,213.696 86.491,202.195C91.091,190.694 94.772,178.963 97.532,167.001L132.957,0L208.406,0L172.981,167.001C168.072,189.702 160.79,210.864 151.129,230.489C141.468,250.12 129.427,267.293 115.014,282.015C100.594,296.737 83.802,308.317 64.638,316.749C45.467,325.188 23.923,329.401 0,329.401"
   style="fill-rule:nonzero;"
   id="path18" />
        </g>
        <g
   transform="matrix(1,0,0,1,2466.14,3190.65)"
   id="g24">
            <path
   d="M0,-326.641L75.449,-326.641L19.783,-66.248L167.461,-66.248L153.659,0L-69.468,0L0,-326.641Z"
   style="fill-rule:nonzero;"
   id="path22" />
        </g>
        <g
   transform="matrix(1,0,0,1,2859.48,2989.15)"
   id="g28">
            <path
   d="M0,76.369L-9.201,-39.105L-69.009,76.369L0,76.369ZM-25.303,-125.136L43.245,-125.136L85.57,201.505L8.281,201.505L1.38,128.355L-91.551,128.355L-128.816,201.505L-206.565,201.505L-25.303,-125.136Z"
   style="fill-rule:nonzero;"
   id="path26" />
        </g>
        <g
   transform="matrix(1,0,0,1,3227.53,2861.25)"
   id="g32">
            <path
   d="M0,333.081C-23.003,333.081 -45.546,329.552 -67.628,322.5C-89.711,315.447 -108.731,305.477 -124.675,292.596L-77.75,226.808C-77.139,228.346 -74.148,231.258 -68.778,235.549C-63.416,239.848 -56.515,244.139 -48.076,248.431C-39.644,252.729 -29.904,256.56 -18.862,259.932C-7.821,263.31 3.68,264.992 15.642,264.992C30.364,264.992 40.787,262.311 46.926,256.941C53.057,251.579 56.127,244.599 56.127,236.009C56.127,230.797 54.438,226.427 51.066,222.897C47.688,219.375 43.015,216.154 37.035,213.236C31.054,210.325 24.153,207.564 16.332,204.955C8.511,202.352 0.151,199.514 -8.741,196.444C-30.824,188.472 -47.314,179.12 -58.197,168.381C-69.088,157.648 -74.529,143.235 -74.529,125.136C-74.529,105.511 -70.547,87.871 -62.568,72.228C-54.596,56.587 -44.094,43.476 -31.054,32.894C-18.021,22.312 -3.069,14.189 13.802,8.511C30.666,2.839 47.997,0 65.788,0C76.829,0 87.411,1.078 97.532,3.221C107.653,5.37 117.156,8.13 126.055,11.501C134.947,14.88 143.149,18.711 150.668,23.003C158.18,27.302 165.002,31.593 171.141,35.885L125.135,98.452C124.517,97.23 121.987,94.93 117.544,91.551C113.095,88.18 107.344,84.65 100.292,80.97C93.233,77.289 85.261,74.069 76.369,71.309C67.47,68.549 58.427,67.168 49.226,67.168C36.344,67.168 26.295,70.008 19.092,75.68C11.882,81.358 8.281,89.251 8.281,99.372C8.281,108.271 13.032,114.942 22.542,119.385C32.046,123.834 45.545,128.815 63.028,134.336C74.68,138.017 85.34,142.086 95.001,146.528C104.663,150.977 112.944,156.269 119.845,162.399C126.746,168.539 132.036,175.741 135.717,184.022C139.397,192.304 141.237,202.123 141.237,213.466C141.237,235.247 137.097,253.721 128.816,268.903C120.535,284.085 109.645,296.435 96.152,305.937C82.652,315.447 67.47,322.349 50.606,326.64C33.735,330.932 16.864,333.081 0,333.081"
   style="fill-rule:nonzero;"
   id="path30" />
        </g>
        <g
   transform="matrix(1,0,0,1,3532.54,3124.4)"
   id="g36">
            <path
   d="M0,-194.143L-93.391,-194.143L-79.589,-260.392L182.183,-260.392L168.381,-194.143L75.45,-194.143L19.783,66.249L-55.667,66.249L0,-194.143Z"
   style="fill-rule:nonzero;"
   id="path34" />
        </g>
        <g
   transform="matrix(1,0,0,1,3841.24,2864.01)"
   id="g40">
            <path
   d="M0,329.401C-19.94,329.401 -36.804,326.568 -50.606,320.889C-64.408,315.218 -75.679,307.397 -84.42,297.426C-93.161,287.463 -99.53,275.653 -103.513,262.003C-107.502,248.359 -109.493,233.709 -109.493,218.067C-109.493,201.505 -107.653,184.483 -103.973,167.001L-68.088,0L7.361,0L-28.523,167.001C-31.284,180.501 -32.664,192.922 -32.664,204.265C-32.664,212.547 -31.823,220.216 -30.133,227.268C-28.452,234.327 -25.763,240.459 -22.083,245.671C-18.402,250.889 -13.571,254.951 -7.591,257.862C-1.61,260.78 5.672,262.232 14.262,262.232C25.915,262.232 36.345,259.551 45.546,254.181C54.748,248.819 62.719,241.688 69.469,232.789C76.211,223.897 81.89,213.696 86.491,202.195C91.091,190.694 94.772,178.963 97.533,167.001L132.957,0L208.406,0L172.982,167.001C168.072,189.702 160.791,210.864 151.129,230.489C141.468,250.12 129.427,267.293 115.014,282.015C100.594,296.737 83.802,308.317 64.638,316.749C45.467,325.188 23.923,329.401 0,329.401"
   style="fill-rule:nonzero;"
   id="path38" />
        </g>
        <g
   transform="matrix(1,0,0,1,4194.1,2930.26)"
   id="g44">
            <path
   d="M0,194.145C15.333,194.145 29.286,190.853 41.865,184.253C54.438,177.662 65.249,168.691 74.299,157.34C83.343,145.998 90.322,132.957 95.231,118.236C100.135,103.514 102.593,88.03 102.593,71.77C102.593,50.305 97.453,32.974 87.181,19.784C76.901,6.6 61.647,0.001 41.405,0.001L0,0.001L-41.405,194.145L0,194.145ZM-61.188,-66.248L55.667,-66.248C76.83,-66.248 95.304,-62.948 111.104,-56.356C126.896,-49.757 139.93,-40.786 150.209,-29.443C160.48,-18.092 168.15,-4.671 173.212,10.812C178.272,26.303 180.803,42.945 180.803,60.729C180.803,89.561 175.893,116.166 166.081,140.548C156.262,164.931 142.618,186.022 125.136,203.806C107.653,221.597 87.022,235.478 63.258,245.441C39.486,255.412 13.802,260.393 -13.802,260.393L-130.655,260.393L-61.188,-66.248Z"
   style="fill-rule:nonzero;"
   id="path42" />
        </g>
        <g
   transform="matrix(1,0,0,1,4477.03,3190.65)"
   id="g48">
            <path
   d="M0,-326.641L214.847,-326.641L200.585,-260.392L61.188,-260.392L47.846,-196.905L167.461,-196.905L154.579,-135.717L34.965,-135.717L19.782,-66.248L163.32,-66.248L149.519,0L-69.469,0L0,-326.641Z"
   style="fill-rule:nonzero;"
   id="path46" />
        </g>
        <g
   transform="matrix(1,0,0,1,4767.32,3190.65)"
   id="g52">
            <path
   d="M0,-326.641L58.888,-326.641L156.88,-134.797L197.364,-326.641L272.813,-326.641L203.345,0L143.538,0L45.546,-186.784L5.98,0L-69.469,0L0,-326.641Z"
   style="fill-rule:nonzero;"
   id="path50" />
        </g>
        <g
   transform="matrix(1,0,0,1,5182.28,3124.4)"
   id="g56">
            <path
   d="M0,-194.143L-93.392,-194.143L-79.59,-260.392L182.182,-260.392L168.381,-194.143L75.449,-194.143L19.782,66.249L-55.667,66.249L0,-194.143Z"
   style="fill-rule:nonzero;"
   id="path54" />
        </g>
        <g
   transform="matrix(1,0,0,1,2308.35,3336.04)"
   id="g60">
            <path
   d="M0,333.081C-23.003,333.081 -45.546,329.552 -67.628,322.5C-89.711,315.447 -108.731,305.477 -124.675,292.596L-77.75,226.808C-77.139,228.346 -74.148,231.258 -68.778,235.549C-63.416,239.848 -56.515,244.139 -48.076,248.431C-39.644,252.729 -29.904,256.561 -18.862,259.932C-7.821,263.311 3.68,264.992 15.642,264.992C30.364,264.992 40.787,262.311 46.926,256.941C53.057,251.579 56.127,244.599 56.127,236.009C56.127,230.797 54.438,226.427 51.066,222.897C47.688,219.375 43.015,216.154 37.035,213.236C31.054,210.325 24.153,207.564 16.332,204.955C8.511,202.352 0.151,199.514 -8.741,196.444C-30.824,188.472 -47.314,179.12 -58.197,168.381C-69.088,157.648 -74.529,143.235 -74.529,125.136C-74.529,105.511 -70.547,87.871 -62.568,72.228C-54.596,56.587 -44.094,43.476 -31.054,32.894C-18.021,22.312 -3.069,14.189 13.802,8.511C30.666,2.839 47.997,0 65.788,0C76.829,0 87.411,1.078 97.532,3.221C107.653,5.37 117.156,8.13 126.055,11.501C134.947,14.88 143.149,18.711 150.668,23.003C158.18,27.302 165.002,31.593 171.141,35.885L125.135,98.452C124.517,97.23 121.987,94.93 117.544,91.551C113.095,88.18 107.344,84.65 100.292,80.97C93.233,77.289 85.261,74.069 76.369,71.309C67.47,68.549 58.427,67.168 49.226,67.168C36.344,67.168 26.295,70.008 19.092,75.68C11.882,81.358 8.281,89.251 8.281,99.372C8.281,108.271 13.032,114.942 22.542,119.385C32.046,123.834 45.545,128.815 63.028,134.336C74.68,138.017 85.34,142.086 95.001,146.528C104.663,150.977 112.944,156.269 119.845,162.399C126.746,168.539 132.036,175.741 135.717,184.022C139.397,192.304 141.237,202.123 141.237,213.466C141.237,235.247 137.097,253.721 128.816,268.903C120.535,284.085 109.645,296.435 96.152,305.937C82.652,315.447 67.47,322.349 50.606,326.64C33.735,330.932 16.864,333.081 0,333.081"
   style="fill-rule:nonzero;"
   id="path58" />
        </g>
        <g
   transform="matrix(1,0,0,1,2522.27,3665.44)"
   id="g64">
            <path
   d="M0,-326.641L81.89,-326.641L105.813,-86.491L152.739,-174.362L134.336,-326.18L203.345,-326.18L211.626,-221.747L264.072,-326.18L333.541,-326.18L249.351,-174.362L259.932,-86.491L385.527,-326.641L468.337,-326.641L275.114,0L212.546,0L191.383,-127.896L116.854,0L53.827,0L0,-326.641Z"
   style="fill-rule:nonzero;"
   id="path62" />
        </g>
        <g
   transform="matrix(1,0,0,1,3044.9,3665.44)"
   id="g68">
            <path
   d="M0,-326.641L75.449,-326.641L5.981,0L-69.468,0L0,-326.641Z"
   style="fill-rule:nonzero;"
   id="path66" />
        </g>
        <g
   transform="matrix(1,0,0,1,3262.5,3599.19)"
   id="g72">
            <path
   d="M0,-194.143L-93.391,-194.143L-79.589,-260.392L182.183,-260.392L168.381,-194.143L75.45,-194.143L19.783,66.249L-55.667,66.249L0,-194.143Z"
   style="fill-rule:nonzero;"
   id="path70" />
        </g>
        <g
   transform="matrix(1,0,0,1,3431.8,3395.38)"
   id="g76">
            <path
   d="M0,213.467L200.125,9.662L49.687,9.662L63.488,-56.587L301.796,-56.587L289.376,0.001L96.613,203.806L247.97,203.806L234.169,270.054L-11.961,270.054L0,213.467Z"
   style="fill-rule:nonzero;"
   id="path74" />
        </g>
        <g
   transform="matrix(1,0,0,1,3806.74,3665.44)"
   id="g80">
            <path
   d="M0,-326.641L214.847,-326.641L200.585,-260.392L61.188,-260.392L47.846,-196.905L167.461,-196.905L154.579,-135.717L34.965,-135.717L19.782,-66.248L163.32,-66.248L149.519,0L-69.469,0L0,-326.641Z"
   style="fill-rule:nonzero;"
   id="path78" />
        </g>
        <g
   transform="matrix(1,0,0,1,4201.92,3509.94)"
   id="g84">
            <path
   d="M0,-15.641C4.601,-15.641 9.201,-17.093 13.802,-20.012C18.402,-22.923 22.543,-26.912 26.224,-31.973C29.904,-37.034 32.895,-42.936 35.194,-49.686C37.495,-56.428 38.646,-63.638 38.646,-71.308C38.646,-81.429 36.496,-89.552 32.204,-95.691C27.906,-101.823 22.694,-104.892 16.562,-104.892L-43.705,-104.892L-62.567,-15.641L0,-15.641ZM-174.361,155.5L-104.893,-171.141L35.425,-171.141C48.307,-171.141 59.729,-168.531 69.699,-163.32C79.662,-158.101 88.102,-151.2 95.002,-142.617C101.903,-134.027 107.193,-124.215 110.874,-113.173C114.555,-102.132 116.395,-90.782 116.395,-79.129C116.395,-67.779 114.626,-56.586 111.104,-45.545C107.574,-34.503 102.665,-23.995 96.383,-14.032C90.093,-4.061 82.581,5.061 73.84,13.342C65.099,21.624 55.509,28.524 45.086,34.045L86.951,155.5L1.841,155.5L-34.044,50.147L-76.829,50.147L-98.912,155.5L-174.361,155.5Z"
   style="fill-rule:nonzero;"
   id="path82" />
        </g>
        <g
   transform="matrix(1,0,0,1,4419.98,3665.44)"
   id="g88">
            <path
   d="M0,-326.641L75.449,-326.641L19.782,-66.248L167.461,-66.248L153.659,0L-69.469,0L0,-326.641Z"
   style="fill-rule:nonzero;"
   id="path86" />
        </g>
        <g
   transform="matrix(1,0,0,1,4813.32,3463.93)"
   id="g92">
            <path
   d="M0,76.369L-9.201,-39.105L-69.008,76.369L0,76.369ZM-25.303,-125.136L43.246,-125.136L85.571,201.505L8.281,201.505L1.381,128.355L-91.551,128.355L-128.815,201.505L-206.565,201.505L-25.303,-125.136Z"
   style="fill-rule:nonzero;"
   id="path90" />
        </g>
        <g
   transform="matrix(1,0,0,1,5024.48,3665.44)"
   id="g96">
            <path
   d="M0,-326.641L58.888,-326.641L156.88,-134.797L197.364,-326.641L272.813,-326.641L203.345,0L143.538,0L45.546,-186.784L5.98,0L-69.469,0L0,-326.641Z"
   style="fill-rule:nonzero;"
   id="path94" />
        </g>
        <g
   transform="matrix(1,0,0,1,5446.35,3405.04)"
   id="g100">
            <path
   d="M0,194.145C15.333,194.145 29.286,190.853 41.865,184.253C54.438,177.662 65.249,168.691 74.299,157.34C83.343,145.998 90.322,132.957 95.231,118.236C100.135,103.514 102.593,88.03 102.593,71.77C102.593,50.305 97.453,32.974 87.181,19.784C76.901,6.6 61.647,0.001 41.405,0.001L0,0.001L-41.405,194.145L0,194.145ZM-61.188,-66.248L55.667,-66.248C76.83,-66.248 95.304,-62.948 111.104,-56.356C126.896,-49.757 139.93,-40.786 150.209,-29.443C160.48,-18.092 168.15,-4.671 173.212,10.812C178.272,26.303 180.803,42.945 180.803,60.729C180.803,89.561 175.893,116.166 166.081,140.548C156.262,164.931 142.618,186.022 125.136,203.806C107.653,221.597 87.022,235.478 63.258,245.441C39.486,255.412 13.802,260.393 -13.802,260.393L-130.656,260.393L-61.188,-66.248Z"
   style="fill-rule:nonzero;"
   id="path98" />
        </g>
        <g
   transform="matrix(1,0,0,1,2667.11,1330.02)"
   id="g104">
            <path
   d="M0,213.885C-9.13,174.67 -17.582,135.29 -28.465,96.508C-33.77,77.603 -39.572,58.832 -46.079,40.303C-49.261,31.24 -52.613,22.237 -56.153,13.308C-57.926,8.838 -59.747,4.387 -61.617,-0.043C-62.898,-3.075 -64.103,-8.419 -67.491,-9.861C-68.983,-10.495 -70.799,-10.287 -72.366,-10.357C-74.722,-10.462 -77.073,-10.656 -79.427,-10.791C-84.485,-11.081 -89.372,-10.73 -94.4,-10.234C-104.548,-9.235 -114.695,-8.232 -124.842,-7.227C-144.911,-5.24 -164.979,-3.242 -185.046,-1.237C-225.632,2.818 -266.214,6.905 -306.795,11.003C-324.133,12.754 -342.045,13.302 -358.629,19.129C-372.319,23.939 -384.668,31.979 -394.549,42.611C-417.088,66.863 -426.598,100.972 -416.916,132.931C-408.971,159.155 -391.513,181.615 -366.237,192.912C-352.315,199.135 -337.638,201.166 -322.637,202.992C-302.495,205.444 -282.352,207.881 -262.209,210.319C-181.986,220.03 -101.769,229.796 -21.549,239.537C-12.567,240.627 -3.398,242.373 5.648,242.465C3.782,232.936 2.203,223.346 0,213.885C-8.041,179.347 2.173,223.216 0,213.885M-95.147,-47.098C-107.239,-67.747 -119.598,-88.329 -135.701,-106.159C-149.87,-121.849 -165.963,-135.754 -183.493,-147.567C-221.171,-172.956 -264.863,-188.496 -309.316,-196.901C-358.449,-206.19 -409.185,-207.819 -458.823,-201.875C-507.864,-196.003 -556.053,-182.977 -601.627,-163.996C-644.78,-146.023 -687.854,-124.16 -720.212,-89.676C-750.583,-57.31 -770.903,-15.832 -777.97,27.978C-785.995,77.724 -776.923,128.275 -764.884,176.597C-752.869,224.822 -736.283,271.804 -717.031,317.59C-707.344,340.628 -696.951,363.168 -685.098,385.176C-682.1,390.741 -679.086,396.296 -676.134,401.885C-673.81,406.282 -670.996,409.757 -666.228,411.591C-661.354,413.467 -655.873,413.193 -650.742,413.439C-644.204,413.753 -637.666,414.064 -631.128,414.372C-579.097,416.82 -527.052,418.875 -474.982,420.283C-422.927,421.691 -370.865,422.2 -318.799,422.928C-266.593,423.658 -214.403,424.432 -162.192,423.648C-136.238,423.259 -110.3,422.326 -84.361,421.423C-74.207,421.069 -60.468,422.763 -51.918,416.067C-47.769,412.817 -45.649,407.925 -43.271,403.369C-40.383,397.834 -37.546,392.274 -34.762,386.686C-23.733,364.546 -13.548,341.982 -4.388,319.004C-0.267,308.666 4.776,298.084 5.909,286.89C6.52,280.861 5.43,275.717 3.427,270.057C2.421,267.212 1.388,264.388 0.3,261.573C-0.672,259.058 -1.096,255.829 -2.484,253.544C-3.562,251.771 -5.246,251.525 -7.168,251.259C-10.532,250.793 -13.921,250.468 -17.293,250.069C-23.818,249.298 -30.341,248.517 -36.864,247.731C-49.909,246.159 -62.951,244.562 -75.993,242.964C-101.732,239.81 -127.47,236.652 -153.208,233.49C-205.027,227.124 -256.874,220.984 -308.692,214.612C-330.23,211.963 -352.422,210.94 -372.236,201.277C-389.022,193.091 -403.543,180.302 -413.735,164.647C-433.523,134.253 -436.429,92.055 -419.21,59.908C-410.236,43.154 -396.168,28.116 -380.053,18.041C-370.67,12.175 -360.231,8.077 -349.367,5.974C-337.176,3.615 -324.506,3.027 -312.163,1.762C-260.043,-3.578 -207.903,-8.717 -155.773,-13.946C-143.197,-15.207 -130.621,-16.468 -118.045,-17.73C-111.982,-18.338 -105.919,-18.946 -99.856,-19.555C-93.936,-20.15 -87.73,-20.263 -81.956,-21.701C-86.328,-30.178 -90.324,-38.86 -95.147,-47.098M-797.822,26.868C-792.435,-7.376 -780.068,-40.264 -761.092,-69.303C-741.019,-100.022 -714.707,-125.406 -683.65,-144.879C-649.406,-166.35 -611.688,-183.542 -573.315,-196.141C-553.021,-202.804 -532.229,-207.989 -511.368,-212.542C-490.468,-217.103 -469.468,-221.04 -448.142,-222.932C-369.571,-229.904 -286.587,-221.469 -214.449,-187.83C-179.476,-171.521 -147.795,-149.018 -121.722,-120.5C-108.34,-105.864 -97.075,-89.465 -86.896,-72.483C-76.459,-55.07 -66.919,-37.138 -58.568,-18.631C-23.549,58.974 -5.66,143.313 12.399,226.077C14.483,235.629 15.695,245.713 18.793,254.994C20.229,259.294 23.021,262.977 24.363,267.25C25.754,271.68 26.484,276.739 26.417,281.376C26.286,290.562 22.773,299.192 19.617,307.673C16.028,317.32 12.385,326.936 8.464,336.454C0.552,355.665 -8.122,374.554 -17.108,393.283C-21.517,402.471 -25.668,411.932 -30.61,420.845C-34.522,427.902 -40.477,433.623 -47.904,436.855C-56.17,440.452 -65.43,440.429 -74.277,440.988C-84.975,441.664 -95.685,442.125 -106.398,442.484C-127.906,443.205 -149.413,443.598 -170.932,443.608C-213.919,443.627 -256.898,443.789 -299.883,443.265C-386.78,442.206 -473.638,440.287 -560.502,437.654C-582.224,436.995 -603.941,436.167 -625.646,435.09C-636.509,434.552 -647.384,434.04 -658.233,433.268C-665.671,432.739 -673.074,431.069 -679.541,427.23C-686.491,423.103 -690.973,417.026 -694.617,409.966C-699.45,400.604 -704.312,391.258 -709.084,381.865C-718.817,362.71 -727.939,343.307 -736.262,323.496C-752.485,284.881 -766.348,245.278 -777.728,204.968C-788.701,166.096 -797.257,126.846 -799.97,86.467C-801.305,66.608 -800.918,46.553 -797.822,26.868C-789.728,-24.59 -801.523,50.402 -797.822,26.868"
   style="fill-rule:nonzero;"
   id="path102" />
        </g>
        <g
   transform="matrix(1,0,0,1,2518.25,1556.99)"
   id="g108">
            <path
   d="M0,-217.954C-52.596,-212.67 -105.283,-208.197 -157.917,-203.295C-169.116,-202.252 -180.43,-201.653 -191.356,-198.805C-200.588,-196.398 -209.448,-192.61 -217.443,-187.39C-233.977,-176.596 -247.142,-159.582 -253.035,-140.708C-265.313,-101.385 -244.045,-58.935 -207.042,-42.208C-187.135,-33.209 -164.735,-32.885 -143.385,-30.34C-117.171,-27.216 -90.98,-23.919 -64.764,-20.813C-12.198,-14.586 40.37,-8.377 92.939,-2.176C98.844,-1.479 105.184,0 111.104,-0.595C53.681,-12.504 -5.268,-22.982 -57.123,-51.892C-79.183,-64.19 -100.685,-79.895 -110.403,-104.118C-115.359,-116.47 -116.578,-130.065 -112.677,-142.886C-108.608,-156.261 -99.831,-166.077 -88.976,-174.499C-76.063,-184.518 -61.572,-192.253 -46.655,-198.83C-39.079,-202.171 -31.383,-205.242 -23.641,-208.176C-19.694,-209.672 -15.729,-211.122 -11.762,-212.565C-9.674,-213.324 -7.584,-214.08 -5.496,-214.839C-4.452,-215.219 -3.408,-215.599 -2.365,-215.98C-1.031,-216.467 0.22,-216.28 0,-217.954C-2.491,-217.704 0.046,-217.602 0,-217.954"
   style="fill-rule:nonzero;"
   id="path106" />
        </g>
        <g
   transform="matrix(1,0,0,1,1962.05,1361.59)"
   id="g112">
            <path
   d="M0,-45.296L79.536,-53.287L71.546,-132.823L139.666,-139.667L147.657,-60.13L227.193,-68.121L234.037,-0.001L154.501,7.99L162.491,87.526L94.366,94.371L86.375,14.834L6.839,22.825L-0.005,-45.296L0,-45.296Z"
   style="fill-rule:nonzero;"
   id="path110" />
        </g>
        <g
   transform="matrix(6.03601,0,0,6.03601,-357.929,-1326.01)"
   id="g116">
            <path
   d="M270.183,458.126C324.724,458.126 369.006,502.407 369.006,556.949C369.006,611.49 324.724,655.772 270.183,655.772C215.641,655.772 171.36,611.49 171.36,556.949C171.36,502.407 215.641,458.126 270.183,458.126ZM278.834,474.114C324.551,474.114 361.668,511.231 361.668,556.949C361.668,602.666 324.551,639.783 278.834,639.783C233.116,639.783 196,602.666 196,556.949C196,511.231 233.116,474.114 278.834,474.114Z"
   style="fill:rgb(0,3,7);"
   id="path114" />
        </g>
        <g
   transform="matrix(6.03601,0,0,6.03601,-357.929,-1326.01)"
   id="g120">
            <path
   d="M669.522,566.694L435.078,565.431L417.876,550.753C417.876,550.753 593.192,550.482 669.251,550.824C669.135,552.846 669.076,554.885 669.076,556.938C669.076,560.229 669.227,563.486 669.522,566.694Z"
   style="fill-rule:nonzero;"
   id="path118" />
        </g>
        <g
   transform="matrix(6.03601,0,0,6.03601,-357.929,-1326.01)"
   id="g124">
            <path
   d="M670.038,542.648L413.267,541.266L396.065,526.588C396.065,526.588 625.983,526.232 673.438,526.848C671.916,531.963 670.771,537.241 670.038,542.648Z"
   style="fill-rule:nonzero;"
   id="path122" />
        </g>
        <g
   transform="matrix(6.03601,0,0,6.03601,-357.929,-1326.01)"
   id="g128">
            <path
   d="M874.68,524.812L992.005,592.373L992.005,614.697L970.799,637.02C970.799,637.02 921.985,636.844 851.964,635.474C849.534,635.427 847.104,635.378 844.679,635.327C866.158,616.053 879.671,588.074 879.671,556.938C879.671,545.731 877.921,534.934 874.68,524.812ZM679.083,512.079L505.542,513.53C505.898,512.196 508.561,504.813 511.135,497.763C513.71,490.713 516.195,483.996 516.195,483.996C516.195,483.996 611.622,460.895 656.022,463.812C668.13,464.607 690.37,467.398 713.991,470.663C699.04,481.146 686.939,495.417 679.083,512.079Z"
   style="fill-rule:nonzero;"
   id="path126" />
        </g>
        <g
   transform="matrix(6.03601,0,0,6.03601,-357.929,-1326.01)"
   id="g132">
            <path
   d="M775.203,456.78C830.488,456.78 875.372,501.664 875.372,556.949C875.372,612.233 830.488,657.117 775.203,657.117C719.919,657.117 675.035,612.233 675.035,556.949C675.035,501.664 719.919,456.78 775.203,456.78ZM784.001,474.873C829.119,474.873 865.749,511.503 865.749,556.621C865.749,601.74 829.119,638.37 784.001,638.37C738.883,638.37 702.252,601.74 702.252,556.621C702.252,511.503 738.883,474.873 784.001,474.873Z"
   id="path130" />
        </g>
        <g
   transform="matrix(1,0,0,1,1714.32,2335.73)"
   id="g136">
            <path
   d="M0,182.658C0,182.658 906.938,-1.988 1230.59,4.991C2103.59,23.815 2156.46,184.646 2156.46,184.646"
   style="fill-rule:nonzero;"
   id="path134" />
        </g>
        <g
   transform="matrix(1,0,0,1,1369.63,1228.26)"
   id="g140">
            <path
   d="M0,31.217C57.859,33.772 117.355,53.669 174.298,44.72C248.273,33.094 333.568,-21.618 390.254,-66.632C466.813,-127.427 519.024,-208.231 578.603,-284.314C614.809,-330.551 735.498,-497.615 799.157,-488.194C748.313,-413.829 647.529,-265.247 605.895,-202.55C550.39,-118.967 553.381,-123.432 497.783,-25.57C412.298,124.899 461.388,252.868 561.594,516.653C565.733,527.55 563.405,528.832 556.429,519.493C393.361,301.196 273.109,250.671 130.99,188.121"
   style="fill-rule:nonzero;"
   id="path138" />
        </g>
        <g
   transform="matrix(1,0,0,1,529.652,197.762)"
   id="g144">
            <path
   d="M0,1453.24C-0.739,1439.15 -1.369,1425.05 -2.242,1410.96C-3.695,1387.52 -5.386,1364.09 -6.827,1340.65C-9.137,1303.07 -11.163,1265.48 -13.615,1227.91C-15.459,1199.65 -17.398,1171.39 -19.967,1143.2C-26.844,1067.73 -35.78,992.598 -56.686,919.389C-69.439,874.73 -90.707,834.214 -115.372,795.268C-146.989,745.345 -183.66,699.149 -220.594,653.156C-264.621,598.33 -308.666,543.518 -352.696,488.693C-353.814,487.301 -354.844,485.838 -356.445,483.702C-345.081,482.188 -334.458,480.705 -323.817,479.365C-257.773,471.053 -191.565,463.809 -126.457,449.359C-109.831,445.669 -93.713,440.476 -78.7,432.226C-50.857,416.925 -36.208,392.875 -31.869,361.907C-27.272,329.096 -32.706,297.239 -43.479,266.585C-61.951,214.03 -81.708,161.918 -101.442,109.816C-114.638,74.972 -128.729,40.467 -142.412,5.807C-143.016,4.277 -143.545,2.716 -144.535,0C-142.025,0.862 -140.415,1.33 -138.869,1.957C-35.414,43.883 68.282,85.23 171.392,127.988C230.505,152.502 291.77,169.681 353.554,185.128C515.716,225.673 678.122,265.237 840.375,305.424C961.939,335.532 1083.52,365.579 1204.88,396.52C1252.26,408.602 1298.47,424.806 1344.14,442.367C1350.9,444.967 1357.42,448.624 1363.39,452.76C1375.39,461.082 1381.66,473.149 1383.87,487.45C1384.12,489.066 1384.62,490.644 1385,492.239L1385,515.239C1384.07,522.132 1383.29,529.052 1382.16,535.913C1378.63,557.419 1374.71,578.865 1371.41,600.405C1366.04,635.443 1361.04,670.537 1355.87,705.607C1355.15,710.51 1354.41,715.409 1353.57,721.015C1348.45,718.387 1343.09,716.719 1339.26,713.324C1336.22,710.633 1333.8,705.98 1333.3,701.929C1331.72,689.057 1331.53,676.021 1330.16,663.116C1324.29,607.846 1295.7,568.62 1244.6,547.305C1220.76,537.358 1195.63,530.204 1170.7,523.157C900.397,446.749 630.08,370.376 359.61,294.546C275.705,271.021 191.332,249.167 107.167,226.573C104.017,225.728 100.799,225.138 96.967,224.286C98.844,235.533 100.69,246.126 102.37,256.747C109.334,300.795 113.294,345.032 109.719,389.646C101.988,486.118 56.802,560.105 -24.395,612.377C-25.771,613.263 -27.102,614.217 -28.764,615.35C-24.325,625.207 -19.933,634.858 -15.625,644.547C14.467,712.221 38.735,781.831 54.396,854.331C68.253,918.476 73.982,983.264 71.379,1048.88C69.476,1096.85 65.805,1144.65 59.734,1192.25C50.21,1266.93 37.29,1340.96 14.962,1413.06C12.463,1421.13 9.698,1429.11 6.685,1438.27C7.996,1437.03 8.595,1436.64 8.969,1436.09C37.542,1394.25 72.893,1358.46 109.525,1323.88C169.393,1267.35 234.676,1218.15 307.193,1178.83C374.725,1142.21 446.14,1115.81 520.61,1097.33C568.594,1085.43 616.89,1075.03 665.771,1067.63C709.347,1061.03 753.245,1058.81 797.306,1059.95C804.303,1060.13 811.314,1060.08 818.29,1060.56C820.326,1060.7 822.879,1061.78 824.155,1063.3C866.227,1113.48 908.173,1163.77 950.128,1214.05C950.505,1214.5 950.758,1215.05 951.341,1216C938.901,1211.26 927.088,1206.45 915.072,1202.23C871.293,1186.84 826.226,1176.78 780.375,1169.97C738.266,1163.72 695.927,1160.52 653.385,1161.52C578.607,1163.28 504.557,1171.12 432.078,1190.56C343.585,1214.29 262.247,1253.45 186.397,1304.5C140.115,1335.65 97.575,1371.48 55.576,1408.03C40.619,1421.05 25.429,1433.79 10.267,1446.57C7.366,1449.02 4.099,1451.03 1,1453.24L0,1453.24Z"
   style="fill-rule:nonzero;"
   id="path142" />
        </g>
    </g>
</svg>